<?xml version="1.0" encoding="utf-8"?>
<!-- Generator: Adobe Illustrator 22.0.0, SVG Export Plug-In . SVG Version: 6.00 Build 0)  -->
<svg version="1.1" id="Layer_1" xmlns="http://www.w3.org/2000/svg" xmlns:xlink="http://www.w3.org/1999/xlink" x="0px" y="0px"
	 viewBox="0 0 23 13" style="enable-background:new 0 0 23 13;" xml:space="preserve">
<g>
	<g>
		<path d="M3.5,0.6l3,6.5H6.3L5.8,6H0.9L0.4,7H0.2l3-6.5H3.5z M5.7,5.8l-2.3-5L1,5.8H5.7z"/>
		<path d="M7.6,1.9l3.5,4.8V1.9h0.2V7h-0.3L7.6,2.2V7H7.4V1.9H7.6z"/>
		<path d="M13.1,1.9l3.5,4.8V1.9h0.2V7h-0.3l-3.5-4.8V7h-0.2V1.9H13.1z"/>
		<path d="M22.1,6.1h-3.7L18,7h-0.2l2.4-5.1h0.3L22.8,7h-0.2L22.1,6.1z M18.6,5.9H22l-1.7-3.7L18.6,5.9z"/>
	</g>
	<g>
		<path d="M0.3,8.2h1.5c0.4,0,0.8,0.2,1.1,0.5C3.2,9,3.4,9.4,3.4,9.8c0,0.4-0.2,0.8-0.5,1.1c-0.3,0.3-0.7,0.5-1.1,0.5H0.4v1.2H0.3
			V8.2z M0.4,8.4v2.9h1.3c0.4,0,0.8-0.1,1-0.4c0.3-0.3,0.4-0.6,0.4-1c0-0.4-0.1-0.8-0.4-1c-0.3-0.3-0.6-0.4-1-0.4H0.4z"/>
		<path d="M6.2,12H3.7l-0.3,0.7H3.2l1.6-3.5H5l1.6,3.5H6.5L6.2,12z M3.7,11.8h2.4L4.9,9.3L3.7,11.8z"/>
		<path d="M7.4,9.2l2.4,3.3V9.2h0.1v3.5H9.8L7.4,9.4v3.3H7.3V9.2H7.4z"/>
		<path d="M13.8,12.2L13.8,12.2c-0.3,0.4-0.7,0.6-1.2,0.6c-0.5,0-1-0.2-1.3-0.5c-0.4-0.4-0.5-0.8-0.5-1.3c0-0.5,0.2-1,0.5-1.3
			C11.6,9.2,12.1,9,12.6,9c0.5,0,1,0.2,1.3,0.5c0,0,0,0,0,0l-0.1,0.1c0,0,0,0,0,0c-0.3-0.3-0.7-0.5-1.2-0.5c-0.5,0-0.9,0.2-1.2,0.5
			c-0.3,0.3-0.5,0.7-0.5,1.2c0,0.5,0.2,0.9,0.5,1.2c0.3,0.3,0.7,0.5,1.2,0.5C13.1,12.7,13.5,12.5,13.8,12.2z"/>
		<path d="M14.9,9.2v3.5h-0.1V9.2H14.9z"/>
		<path d="M18.9,9.6c0.4,0.4,0.5,0.8,0.5,1.3c0,0.5-0.2,1-0.5,1.3c-0.4,0.4-0.8,0.5-1.3,0.5c-0.5,0-1-0.2-1.3-0.5
			c-0.4-0.4-0.5-0.8-0.5-1.3c0-0.5,0.2-1,0.5-1.3C16.6,9.2,17,9,17.5,9C18.1,9,18.5,9.2,18.9,9.6z M17.5,9.2c-0.5,0-0.9,0.2-1.2,0.5
			c-0.3,0.3-0.5,0.7-0.5,1.2c0,0.5,0.2,0.9,0.5,1.2c0.3,0.3,0.7,0.5,1.2,0.5c0.5,0,0.9-0.2,1.2-0.5c0.3-0.3,0.5-0.7,0.5-1.2
			c0-0.5-0.2-0.9-0.5-1.2C18.4,9.3,18,9.2,17.5,9.2z"/>
		<path d="M20.2,9.2h0.1v3.3h1.9v0.1h-2V9.2z"/>
		<path d="M22.7,9.2v3.5h-0.1V9.2H22.7z"/>
	</g>
	<g>
		<rect x="0.4" y="8.2" width="22.4" height="0.1"/>
	</g>
</g>
</svg>
