<?xml version="1.0" encoding="utf-8"?>
<!-- Generator: Adobe Illustrator 22.0.0, SVG Export Plug-In . SVG Version: 6.00 Build 0)  -->
<svg version="1.1" id="Layer_1" xmlns="http://www.w3.org/2000/svg" xmlns:xlink="http://www.w3.org/1999/xlink" x="0px" y="0px"
	 viewBox="0 0 384.2 121.4" style="enable-background:new 0 0 384.2 121.4;" xml:space="preserve">
<style type="text/css">
	.st0{fill:#1E596D;}
</style>
<g>
	<path class="st0" d="M365.8,18.4C342.4-5,304.5-5,281.1,18.4c-23.4,23.4-23.4,61.3,0,84.7c12.6,12.6,29.3,18.4,45.7,17.4
		c14.2-0.8,28.1-6.6,38.9-17.4c10.8-10.8,16.6-24.8,17.4-39C384.1,47.6,378.3,30.9,365.8,18.4z M351.6,88.9
		c-15.6,15.6-40.8,15.6-56.4,0c-15.6-15.6-15.6-40.8,0-56.4c15.6-15.6,40.8-15.6,56.4,0C367.2,48.1,367.2,73.3,351.6,88.9z"/>
	<g>
		<g>
			<path class="st0" d="M126.7,43.7h-18.6v-2.8l7.5-7.5c2.3-2.3,3.8-3.9,4.5-4.9c0.7-1,1.3-1.9,1.6-2.9c0.4-0.9,0.5-1.9,0.5-3
				c0-1.5-0.5-2.7-1.4-3.6c-0.9-0.9-2.2-1.3-3.8-1.3c-1.2,0-2.3,0.2-3.3,0.6c-1.1,0.4-2.2,1.1-3.5,2.1l-1.7-2.2
				C111,16,113.9,15,117,15c2.7,0,4.7,0.7,6.3,2c1.5,1.4,2.3,3.2,2.3,5.5c0,1.8-0.5,3.6-1.5,5.3s-2.9,4-5.7,6.7l-6.2,6.1v0.2h14.6
				V43.7z"/>
			<path class="st0" d="M149.5,29.5c0,4.9-0.8,8.6-2.3,11c-1.5,2.4-3.9,3.6-7.1,3.6c-3,0-5.4-1.2-7-3.7s-2.4-6.1-2.4-10.9
				c0-4.9,0.8-8.6,2.3-11c1.5-2.4,3.9-3.6,7-3.6c3.1,0,5.4,1.2,7,3.7S149.5,24.8,149.5,29.5z M134.1,29.5c0,4.1,0.5,7.1,1.5,9
				c1,1.9,2.5,2.8,4.6,2.8c2.1,0,3.7-1,4.7-2.9c1-1.9,1.4-4.9,1.4-9s-0.5-7-1.4-8.9c-1-1.9-2.5-2.8-4.7-2.8c-2.1,0-3.7,0.9-4.6,2.8
				C134.5,22.4,134.1,25.4,134.1,29.5z"/>
			<path class="st0" d="M165.4,43.7h-3.1V23.5c0-1.7,0.1-3.3,0.2-4.8c-0.3,0.3-0.6,0.6-0.9,0.9c-0.3,0.3-1.9,1.6-4.6,3.8l-1.7-2.2
				l7.5-5.8h2.7V43.7z"/>
			<path class="st0" d="M193.7,22c0,1.8-0.5,3.3-1.5,4.4c-1,1.1-2.5,1.9-4.3,2.3v0.2c2.3,0.3,4,1,5.1,2.2c1.1,1.2,1.6,2.7,1.6,4.6
				c0,2.7-0.9,4.8-2.8,6.2c-1.9,1.5-4.5,2.2-8,2.2c-1.5,0-2.9-0.1-4.1-0.3c-1.2-0.2-2.5-0.6-3.6-1.2v-3.1c1.2,0.6,2.5,1.1,3.9,1.4
				s2.7,0.5,3.9,0.5c4.9,0,7.3-1.9,7.3-5.8c0-3.4-2.7-5.2-8.1-5.2h-2.8v-2.8h2.8c2.2,0,4-0.5,5.3-1.5s1.9-2.3,1.9-4.1
				c0-1.4-0.5-2.5-1.4-3.3c-0.9-0.8-2.2-1.2-3.9-1.2c-1.2,0-2.4,0.2-3.5,0.5c-1.1,0.3-2.4,1-3.8,1.9l-1.6-2.2c1.2-0.9,2.5-1.6,4-2.2
				c1.5-0.5,3.1-0.8,4.8-0.8c2.8,0,4.9,0.6,6.4,1.9C192.9,18.1,193.7,19.8,193.7,22z"/>
		</g>
		<g id="XMLID_349_">
			<path id="XMLID_284_" class="st0" d="M283.3,56.5H53.6c-5.7,0-11.1-2.8-14.3-7.6c-3.9-5.8-10.5-9.5-18-9.3
				C10.4,40,1.3,48.9,0.9,59.8c-0.5,12,9.1,21.9,21,21.9c7.1,0,13.4-3.5,17.2-9c3.4-4.8,8.7-7.9,14.5-7.9h229.7V56.5z"/>
		</g>
		<g>
			<path class="st0" d="M305.4,48.7c0-4,3.2-7.2,7.2-7.2c4,0,7.2,3.2,7.2,7.2v24.9c0,4-3.2,7.2-7.2,7.2c-4,0-7.2-3.2-7.2-7.2V48.7z
				 M308.3,73.7c0,2.3,1.9,4.2,4.2,4.2c2.3,0,4.2-1.9,4.2-4.2V48.7c0-2.3-1.9-4.2-4.2-4.2c-2.3,0-4.2,1.9-4.2,4.2V73.7z"/>
			<path class="st0" d="M336.1,48.9c0-2.4-2-4.4-4.4-4.4c-2.4,0-4.4,2-4.4,4.4v4.6l-2.9,0.3v-5c0-4.1,3.3-7.4,7.4-7.4
				s7.4,3.3,7.4,7.4v3.6c0,1.4-1.5,4.3-1.5,4.3l-9.2,17.1c0,0-1,1.9-1,3.5h11.5v2.9h-14.4v-2.9c0-2.3,1.4-4.8,1.4-4.8l9.2-17.2
				c0,0,1.2-2.2,1.2-2.9V48.9z"/>
		</g>
	</g>
</g>
</svg>
