<?xml version="1.0" encoding="utf-8"?>
<!-- Generator: Adobe Illustrator 22.0.0, SVG Export Plug-In . SVG Version: 6.00 Build 0)  -->
<svg version="1.1" xmlns="http://www.w3.org/2000/svg" xmlns:xlink="http://www.w3.org/1999/xlink" x="0px" y="0px"
	 viewBox="0 0 670 185.6" style="enable-background:new 0 0 670 185.6;" xml:space="preserve">
<style type="text/css">
	.st0{fill:none;}
	.st1{fill:#726658;}
	.st2{font-family:'Bebas';}
	.st3{font-size:18.2205px;}
	.st4{enable-background:new    ;}
	.st5{fill:#DD5361;}
	.st6{fill:#DED9D7;}
	.st7{fill:#DA635A;}
	.st8{fill:#FF6B68;}
	.st9{clip-path:url(#SVGID_2_);}
	.st10{fill:#E6E7E8;}
	.st11{fill:#EC1C24;}
	.st12{fill:#FBE6EF;}
	.st13{fill:url(#SVGID_3_);}
</style>
<g id="Layer_1">
	<g id="group">
		<g id="XMLID_299_">
			<g id="XMLID_288_">
				<rect id="XMLID_10_" x="401.8" y="109" class="st0" width="210.3" height="67.3"/>
				<text transform="matrix(1 0 0 1 401.8149 121.9392)" class="st1 st2 st3">Art Fundamentals </text>
				<text transform="matrix(1 0 0 1 401.8149 143.8392)" class="st1 st2 st3">Certificate at Sheridan </text>
				<text transform="matrix(1 0 0 1 401.8149 165.6392)" class="st1 st2 st3">College, Oakville, On.</text>
			</g>
		</g>
		<g class="st4">
			<path class="st5" d="M414.5,83.5h-2.2l-1.1-7.2h-5.7l-1.1,7.2h-2.2l4.3-28h3.6L414.5,83.5z M405.9,74.1h5l-2.4-16.3h-0.1
				L405.9,74.1z"/>
			<path class="st5" d="M427.7,83.5h-2.2v-9.3c0-2-1.6-3.6-3.6-3.6h-2.6v12.9h-2.2v-28h4.8c3.2,0,5.8,2.6,5.8,5.8v3.4
				c0,1.9-1,3.7-2.4,4.7c1.5,1.1,2.4,2.8,2.4,4.7V83.5z M421.9,68.4c2,0,3.6-1.6,3.6-3.6v-3.4c0-2-1.6-3.6-3.6-3.6h-2.6v10.7H421.9z
				"/>
			<path class="st5" d="M439.8,57.6h-3.9v25.8h-2.2V57.6h-3.9v-2.2h10V57.6z"/>
			<path class="st5" d="M449.8,57.6v10.7h5v2.2h-5v12.9h-2.2v-28h9v2.2H449.8z"/>
			<path class="st5" d="M470.2,55.5v23c0,3-2.4,5.4-5.4,5.4s-5.4-2.4-5.4-5.4v-23h2.2v23c0,1.8,1.5,3.2,3.2,3.2s3.2-1.5,3.2-3.2v-23
				H470.2z"/>
			<path class="st5" d="M474.3,55.5h2.6l6.6,21.2h0.1V55.5h2.2v28h-2.2l-7.1-22.4h-0.1v22.4h-2.2V55.5z"/>
			<path class="st5" d="M500.7,77.7c0,3.2-2.6,5.8-5.8,5.8h-5v-28h5c3.2,0,5.8,2.6,5.8,5.8V77.7z M498.5,61.3c0-2-1.6-3.6-3.6-3.6
				h-2.8v23.7h2.8c2,0,3.6-1.6,3.6-3.7V61.3z"/>
			<path class="st5" d="M515.1,83.5h-2.2l-1.1-7.2h-5.7l-1.1,7.2h-2.2l4.3-28h3.7L515.1,83.5z M506.5,74.1h5L509,57.9h-0.1
				L506.5,74.1z"/>
			<path class="st5" d="M526.8,83.5h-2.4L519.9,60h-0.1v23.5h-2.2v-28h3.2l4.6,24.7h0.1l4.6-24.7h3.3v28h-2.2V59.8h-0.1L526.8,83.5z
				"/>
			<path class="st5" d="M539.8,57.6v10.7h5v2.2h-5v10.7h7.1v2.2h-9.3v-28h9v2.2H539.8z"/>
			<path class="st5" d="M549.9,55.5h2.6l6.6,21.2h0.1V55.5h2.2v28h-2.2l-7.1-22.4h-0.1v22.4h-2.2V55.5z"/>
			<path class="st5" d="M574.2,57.6h-3.9v25.8h-2.2V57.6h-3.9v-2.2h10V57.6z"/>
			<path class="st5" d="M586.7,83.5h-2.2l-1.1-7.2h-5.7l-1.1,7.2h-2.2l4.3-28h3.6L586.7,83.5z M578.1,74.1h5l-2.4-16.3h-0.1
				L578.1,74.1z"/>
			<path class="st5" d="M598.3,81.3v2.2h-8.9v-28h2.2v25.8H598.3z"/>
			<path class="st5" d="M601.7,65.8c0,0-1.2-1.5-1.2-3.5v-1.9c0-3,2.4-5.4,5.4-5.4s5.4,2.4,5.4,5.4v3.5l-2.2,0.2v-3.7
				c0-1.8-1.5-3.2-3.2-3.2s-3.2,1.5-3.2,3.2v1.9c0,1.2,0.7,2.1,0.7,2.1l6.6,7.8c0,0,1.3,1.5,1.3,3.6v2.7c0,3-2.4,5.4-5.4,5.4
				s-5.4-2.4-5.4-5.4v-4.1l2.2-0.2v4.4c0,1.8,1.5,3.2,3.2,3.2s3.2-1.5,3.2-3.2v-2.7c0-1.2-0.8-2.2-0.8-2.2L601.7,65.8z"/>
		</g>
		<rect id="XMLID_290_" x="400.1" y="90.4" class="st6" width="212" height="6.4"/>
		<g>
			<g class="st4">
				<path class="st7" d="M204.4,52.2h-18.6v-2.8l7.5-7.5c2.3-2.3,3.8-3.9,4.5-4.9c0.7-1,1.3-1.9,1.6-2.9c0.4-0.9,0.5-1.9,0.5-3
					c0-1.5-0.5-2.7-1.4-3.6c-0.9-0.9-2.2-1.3-3.8-1.3c-1.2,0-2.3,0.2-3.3,0.6c-1.1,0.4-2.2,1.1-3.5,2.1l-1.7-2.2
					c2.6-2.2,5.5-3.3,8.5-3.3c2.7,0,4.7,0.7,6.3,2c1.5,1.4,2.3,3.2,2.3,5.5c0,1.8-0.5,3.6-1.5,5.3c-1,1.8-2.9,4-5.7,6.7l-6.2,6.1
					v0.2h14.6V52.2z"/>
				<path class="st7" d="M227.2,37.9c0,4.9-0.8,8.6-2.3,11c-1.5,2.4-3.9,3.6-7.1,3.6c-3,0-5.4-1.2-7-3.7s-2.4-6.1-2.4-10.9
					c0-4.9,0.8-8.6,2.3-11c1.5-2.4,3.9-3.6,7-3.6c3.1,0,5.4,1.2,7,3.7S227.2,33.2,227.2,37.9z M211.8,37.9c0,4.1,0.5,7.1,1.5,9
					c1,1.9,2.5,2.8,4.6,2.8c2.1,0,3.7-1,4.7-2.9c1-1.9,1.4-4.9,1.4-9s-0.5-7-1.4-8.9c-1-1.9-2.5-2.8-4.7-2.8c-2.1,0-3.7,0.9-4.6,2.8
					C212.2,30.8,211.8,33.8,211.8,37.9z"/>
				<path class="st7" d="M243.1,52.2h-3.1V32c0-1.7,0.1-3.3,0.2-4.8c-0.3,0.3-0.6,0.6-0.9,0.9c-0.3,0.3-1.9,1.6-4.6,3.8l-1.7-2.2
					l7.5-5.8h2.7V52.2z"/>
				<path class="st7" d="M272.5,52.2h-18.6v-2.8l7.5-7.5c2.3-2.3,3.8-3.9,4.5-4.9c0.7-1,1.3-1.9,1.6-2.9c0.4-0.9,0.5-1.9,0.5-3
					c0-1.5-0.5-2.7-1.4-3.6c-0.9-0.9-2.2-1.3-3.8-1.3c-1.2,0-2.3,0.2-3.3,0.6c-1.1,0.4-2.2,1.1-3.5,2.1l-1.7-2.2
					c2.6-2.2,5.5-3.3,8.5-3.3c2.7,0,4.7,0.7,6.3,2c1.5,1.4,2.3,3.2,2.3,5.5c0,1.8-0.5,3.6-1.5,5.3c-1,1.8-2.9,4-5.7,6.7l-6.2,6.1
					v0.2h14.6V52.2z"/>
			</g>
			<g id="XMLID_329_">
				<path id="XMLID_280_" class="st5" d="M100.7,73.3h229.7c5.7,0,11.1,2.8,14.3,7.6c3.9,5.8,10.5,9.5,18,9.3
					c10.9-0.3,19.9-9.2,20.4-20.1c0.5-12-9.1-21.9-21-21.9c-7.1,0-13.4,3.5-17.2,9c-3.4,4.8-8.7,7.9-14.5,7.9H100.7V73.3z"/>
			</g>
			<path class="st5" d="M103.2,26.8c-23.4-23.4-61.3-23.4-84.7,0s-23.4,61.3,0,84.7c12.6,12.6,29.3,18.4,45.7,17.4
				c14.2-0.8,28.1-6.6,38.9-17.4s16.6-24.8,17.4-39C121.6,56.1,115.8,39.4,103.2,26.8z M89.1,97.3c-15.6,15.6-40.8,15.6-56.4,0
				s-15.6-40.8,0-56.4s40.8-15.6,56.4,0C104.6,56.5,104.6,81.8,89.1,97.3z"/>
			<g class="st4">
				<path class="st7" d="M47.5,56.9c0-4,3.2-7.2,7.2-7.2s7.2,3.2,7.2,7.2v24.9c0,4-3.2,7.2-7.2,7.2s-7.2-3.2-7.2-7.2V56.9z
					 M50.5,81.9c0,2.3,1.9,4.2,4.2,4.2c2.3,0,4.2-1.9,4.2-4.2V56.9c0-2.3-1.9-4.2-4.2-4.2c-2.3,0-4.2,1.9-4.2,4.2V81.9z"/>
				<path class="st7" d="M67.6,88.5V50.6l2.9-0.3v38.2H67.6z"/>
			</g>
		</g>
	</g>
</g>
<g id="canada_1_">
	<g>
		<g>
			<path class="st8" d="M666.4,55.3c-4-22.6-36.6-22.6-40.7,0c-0.4,2-0.5,4.1-0.5,6.2c0,14.3,8.6,26.6,20.9,32
				c12.3-5.4,20.9-17.7,20.9-32C666.9,59.4,666.7,57.3,666.4,55.3z"/>
		</g>
		<g>
			<g>
				<defs>
					<path id="SVGID_1_" d="M662.4,59.1c0,8.4-6.3,15.3-14.5,16.2c-0.6,0.1-1.2,0.1-1.9,0.1c-9,0-16.3-7.3-16.3-16.3
						S637,42.8,646,42.8c0.6,0,1.3,0,1.9,0.1C656.1,43.8,662.4,50.7,662.4,59.1z"/>
				</defs>
				<clipPath id="SVGID_2_">
					<use xlink:href="#SVGID_1_"  style="overflow:visible;"/>
				</clipPath>
				<g class="st9">
					<g>
						<path class="st10" d="M669.8,73.3c0,1.2-1,2.2-2.2,2.2h-42.9c-1.2,0-2.2-1-2.2-2.2V44.6c0-1.2,1-2.2,2.2-2.2h42.9
							c1.2,0,2.2,1,2.2,2.2V73.3z"/>
						<path class="st11" d="M624.7,42.4c-1.2,0-2.2,1-2.2,2.2v28.7c0,1.2,1,2.2,2.2,2.2h9.9V42.4H624.7z"/>
						<path class="st11" d="M669.8,73.3V44.6c0-1.2-1-2.2-2.2-2.2h-9.9v33.1h9.9C668.8,75.5,669.8,74.5,669.8,73.3z"/>
						<g>
							<path class="st12" d="M645.5,49.5c0,0-1.5,3-1.6,3.2c-0.3-0.1-2.1-1.1-2.1-1.1l0.1,0.4c1.4,4.7,1,5.1,0.9,5.2
								c-0.3,0.1-1.3-1-2.2-2.4l-0.3-0.5v0.6c0,0.5-0.1,0.8-0.4,1c-0.8,0.6-2.6-0.1-2.7-0.1l-0.4-0.1L637,56
								c0.9,1.8,0.9,2.6,0.6,2.9c-0.3,0.4-0.8,0.4-0.9,0.4l-0.1,0.3c3.6,1.8,4.4,3.2,4.5,4.1c0,0.8-0.6,1.3-0.6,1.3l0.1,0.3
								c0,0,4.1-0.9,4.5-1c0,0.4-0.3,4.6-0.3,4.6l0.8,0.1l0.8-0.1c0,0-0.3-4.3-0.3-4.7c0.4,0.1,4.5,1,4.5,1l0.1-0.3
								c0,0-0.7-0.5-0.6-1.3c0-0.8,0.9-2.2,4.5-4.1l-0.1-0.3c0,0-0.6,0-0.9-0.4c-0.2-0.4-0.3-1.2,0.6-2.9l0.2-0.4l-0.4,0.1
								c0,0-1.8,0.7-2.7,0.1c-0.3-0.2-0.4-0.5-0.4-1v-0.6l-0.3,0.5c-0.9,1.4-1.9,2.6-2.2,2.4c-0.1,0-0.5-0.5,0.9-5.2l0.1-0.4
								c0,0-1.8,1-2.1,1.1c-0.1-0.3-1.8-3.5-1.8-3.5L645.5,49.5z"/>
							<path class="st11" d="M654.5,59.5c0,0-2.4,0.2-0.4-3.6c0,0-3.3,1.2-3.3-1.1c0,0-4.6,7.3-1.6-2.9l-1.9,1l-1.7-3.4l-1.7,3.4
								l-1.9-1c3,10.1-1.6,2.9-1.6,2.9c0,2.3-3.3,1.1-3.3,1.1c2,3.8-0.4,3.6-0.4,3.6c7,3.6,3.9,5.6,3.9,5.6l4.7-1l-0.3,4.7l0.6,0.1
								l0.6-0.1l-0.3-4.7l4.7,1C650.7,65.1,647.5,63,654.5,59.5z"/>
						</g>
					</g>
					
						<radialGradient id="SVGID_3_" cx="-359.0995" cy="-1606.11" r="8.0788" gradientTransform="matrix(1.0148 0 0 -1.0148 1010.54 -1554.3804)" gradientUnits="userSpaceOnUse">
						<stop  offset="0" style="stop-color:#DDDFE0"/>
						<stop  offset="1" style="stop-color:#FFFFFF"/>
					</radialGradient>
					<polygon class="st13" points="634.5,75.5 657.7,75.5 657.7,75.5 					"/>
				</g>
			</g>
		</g>
	</g>
</g>
</svg>
