<?xml version="1.0" encoding="utf-8"?>
<!-- Generator: Adobe Illustrator 22.0.0, SVG Export Plug-In . SVG Version: 6.00 Build 0)  -->
<svg version="1.1" id="Layer_1" xmlns="http://www.w3.org/2000/svg" xmlns:xlink="http://www.w3.org/1999/xlink" x="0px" y="0px"
	 viewBox="0 0 384.2 121.4" style="enable-background:new 0 0 384.2 121.4;" xml:space="preserve">
<style type="text/css">
	.st0{fill:#C7C004;}
</style>
<g>
	<g>
		<g id="XMLID_350_">
			<path id="XMLID_281_" class="st0" d="M100.7,64.8h229.7c5.7,0,11.1,2.8,14.3,7.6c3.9,5.8,10.5,9.5,18,9.3
				c10.9-0.3,19.9-9.2,20.4-20.1c0.5-12-9.1-21.9-21-21.9c-7.1,0-13.4,3.5-17.2,9c-3.4,4.8-8.7,7.9-14.5,7.9H100.7V64.8z"/>
		</g>
		<path class="st0" d="M103.2,18.4C79.8-5,41.9-5,18.5,18.4c-23.4,23.4-23.4,61.3,0,84.7c12.6,12.6,29.3,18.4,45.7,17.4
			c14.2-0.8,28.1-6.6,38.9-17.4c10.8-10.8,16.6-24.8,17.4-39C121.6,47.6,115.8,30.9,103.2,18.4z M89,88.9
			c-15.6,15.6-40.8,15.6-56.4,0c-15.6-15.6-15.6-40.8,0-56.4c15.6-15.6,40.8-15.6,56.4,0C104.6,48.1,104.6,73.3,89,88.9z"/>
	</g>
	<g>
		<path class="st0" d="M41.7,48.5c0-4,3.2-7.2,7.2-7.2s7.2,3.2,7.2,7.2v24.9c0,4-3.2,7.2-7.2,7.2s-7.2-3.2-7.2-7.2V48.5z M44.6,73.4
			c0,2.3,1.9,4.2,4.2,4.2c2.3,0,4.2-1.9,4.2-4.2V48.5c0-2.3-1.9-4.2-4.2-4.2c-2.3,0-4.2,1.9-4.2,4.2V73.4z"/>
		<path class="st0" d="M68,59.4c2.4,0,4.4-2,4.4-4.4v-6.4c0-2.4-2-4.4-4.4-4.4c-2.4,0-4.4,2-4.4,4.4v3.7l-2.9,0.3v-4
			c0-4.1,3.3-7.4,7.4-7.4s7.4,3.3,7.4,7.4V55c0,2.4-1.7,5.1-3.5,5.9c1.8,0.8,3.5,3.5,3.5,5.9v6.4c0,4.1-3.3,7.4-7.4,7.4
			s-7.4-3.3-7.4-7.4v-3.7l2.9-0.3v4c0,2.4,2,4.4,4.4,4.4c2.4,0,4.4-2,4.4-4.4v-6.4c0-2.4-2-4.4-4.4-4.4h-0.8v-2.9H68z"/>
	</g>
	<g>
		<path class="st0" d="M203.4,45.7h-18.6v-2.8l7.5-7.5c2.3-2.3,3.8-3.9,4.5-4.9c0.7-1,1.3-1.9,1.6-2.9c0.4-0.9,0.5-1.9,0.5-3
			c0-1.5-0.5-2.7-1.4-3.6c-0.9-0.9-2.2-1.3-3.8-1.3c-1.2,0-2.3,0.2-3.3,0.6c-1.1,0.4-2.2,1.1-3.5,2.1l-1.7-2.2
			c2.6-2.2,5.5-3.3,8.5-3.3c2.7,0,4.7,0.7,6.3,2c1.5,1.4,2.3,3.2,2.3,5.5c0,1.8-0.5,3.6-1.5,5.3s-2.9,4-5.7,6.7l-6.2,6.1v0.2h14.6
			V45.7z"/>
		<path class="st0" d="M226.2,31.5c0,4.9-0.8,8.6-2.3,11c-1.5,2.4-3.9,3.6-7.1,3.6c-3,0-5.4-1.2-7-3.7c-1.6-2.5-2.4-6.1-2.4-10.9
			c0-4.9,0.8-8.6,2.3-11s3.9-3.6,7-3.6c3.1,0,5.4,1.2,7,3.7S226.2,26.8,226.2,31.5z M210.7,31.5c0,4.1,0.5,7.1,1.5,9
			c1,1.9,2.5,2.8,4.6,2.8c2.1,0,3.7-1,4.7-2.9s1.4-4.9,1.4-9s-0.5-7-1.4-8.9c-1-1.9-2.5-2.8-4.7-2.8c-2.1,0-3.7,0.9-4.6,2.8
			C211.2,24.4,210.7,27.4,210.7,31.5z"/>
		<path class="st0" d="M242,45.7h-3.1V25.5c0-1.7,0.1-3.3,0.2-4.8c-0.3,0.3-0.6,0.6-0.9,0.9c-0.3,0.3-1.9,1.6-4.6,3.8l-1.7-2.2
			l7.5-5.8h2.7V45.7z"/>
		<path class="st0" d="M272.8,39.2h-4.2v6.5h-3.1v-6.5h-13.8v-2.8l13.4-19.2h3.4v19h4.2V39.2z M265.5,36.3v-9.4
			c0-1.8,0.1-3.9,0.2-6.3h-0.2c-0.6,1.2-1.2,2.3-1.7,3.1l-8.9,12.6H265.5z"/>
	</g>
</g>
</svg>
