<?xml version="1.0" encoding="utf-8"?>
<!-- Generator: Adobe Illustrator 22.0.0, SVG Export Plug-In . SVG Version: 6.00 Build 0)  -->
<svg version="1.1" id="Layer_1" xmlns="http://www.w3.org/2000/svg" xmlns:xlink="http://www.w3.org/1999/xlink" x="0px" y="0px"
	 viewBox="0 0 655 185.6" style="enable-background:new 0 0 655 185.6;" xml:space="preserve">
<style type="text/css">
	.st0{fill:none;}
	.st1{enable-background:new    ;}
	.st2{fill:#726658;}
	.st3{fill:#DD5361;}
	.st4{fill:#DED9D7;}
	.st5{fill:#FCFF26;}
	.st6{clip-path:url(#SVGID_2_);}
	.st7{fill:#00AA5B;}
	.st8{fill:#F9D10B;}
	.st9{fill:#005E9E;}
	.st10{fill:#FFFFFF;}
	.st11{fill:#00A460;}
</style>
<g id="XMLID_312_">
	<g id="XMLID_313_">
		<rect id="XMLID_11_" x="403.6" y="105.3" class="st0" width="196.3" height="148.5"/>
		<g class="st1">
			<path class="st2" d="M406.5,118.2v-12.5h-2.1V104c0.6-0.1,1.1-0.3,1.7-0.7c0.5-0.4,0.9-0.8,1.2-1.4h1.7v16.2H406.5z"/>
			<path class="st2" d="M415.6,111.4l-3.3-9.4h2.7l1.8,5.8l1.8-5.8h2.7l-3.3,9.4v6.8h-2.4V111.4z"/>
			<path class="st2" d="M423.3,118.2V102h7v2.4h-4.5v4.4h3.3v2.4h-3.3v4.4h4.5v2.4H423.3z"/>
			<path class="st2" d="M435.1,114.5l-0.6,3.7h-2.5l2.7-16.2h3.4l2.7,16.2h-2.6l-0.6-3.7H435.1z M436.3,105.7l-0.9,6.4h1.8
				L436.3,105.7z"/>
			<path class="st2" d="M446.7,102c1.4,0,2.4,0.4,3,1.1c0.6,0.7,0.8,1.6,0.8,2.7v2.4c0,1.2-0.4,2.1-1.3,2.9l1.8,7.1h-2.6l-1.5-6.1
				c-0.1,0-0.1,0-0.2,0h-1.4v6.1h-2.4V102H446.7z M448.1,105.9c0-0.9-0.5-1.4-1.4-1.4h-1.5v5.2h1.5c0.4,0,0.7-0.1,1-0.4
				c0.3-0.3,0.4-0.6,0.4-1V105.9z"/>
			<path class="st2" d="M458.2,101.8c1.1,0,2,0.4,2.8,1.1c0.8,0.8,1.1,1.7,1.1,2.7v8.9c0,1.1-0.4,2-1.1,2.8
				c-0.8,0.8-1.7,1.1-2.7,1.1s-2-0.4-2.7-1.1c-0.8-0.8-1.1-1.7-1.1-2.8v-8.9c0-1.1,0.4-2,1.1-2.8
				C456.3,102.2,457.2,101.8,458.2,101.8z M459.6,105.6c0-0.4-0.1-0.7-0.4-1s-0.6-0.4-1-0.4c-0.4,0-0.7,0.1-1,0.4
				c-0.3,0.3-0.4,0.6-0.4,1v8.9c0,0.4,0.1,0.7,0.4,1c0.3,0.3,0.6,0.4,1,0.4c0.4,0,0.7-0.1,1-0.4c0.3-0.3,0.4-0.6,0.4-1V105.6z"/>
			<path class="st2" d="M467,102l3.2,10.9V102h2.4v16.2h-2.6l-3.4-10.4v10.4h-2.4V102H467z"/>
			<path class="st2" d="M479.2,114.5l-0.6,3.7h-2.5l2.7-16.2h3.4l2.7,16.2h-2.6l-0.6-3.7H479.2z M480.5,105.7l-0.9,6.4h1.8
				L480.5,105.7z"/>
			<path class="st2" d="M490.9,104.4h-2.6V102h7.6v2.4h-2.6v13.8h-2.4V104.4z"/>
			<path class="st2" d="M501.7,102c1.4,0,2.4,0.4,3,1.1c0.6,0.7,0.8,1.6,0.8,2.7v2.4c0,1.2-0.4,2.1-1.3,2.9l1.8,7.1h-2.6l-1.5-6.1
				c-0.1,0-0.1,0-0.2,0h-1.4v6.1h-2.4V102H501.7z M503.2,105.9c0-0.9-0.5-1.4-1.4-1.4h-1.5v5.2h1.5c0.4,0,0.7-0.1,1-0.4
				c0.3-0.3,0.4-0.6,0.4-1V105.9z"/>
			<path class="st2" d="M511.2,114.5l-0.6,3.7H508l2.7-16.2h3.4l2.7,16.2h-2.6l-0.6-3.7H511.2z M512.5,105.7l-0.9,6.4h1.8
				L512.5,105.7z"/>
			<path class="st2" d="M526.6,114.3c0,1.1-0.4,2-1.1,2.7c-0.8,0.8-1.7,1.1-2.7,1.1h-3.8V102h3.8c1.1,0,2,0.4,2.7,1.1
				c0.7,0.8,1.1,1.7,1.1,2.7V114.3z M521.4,115.8h1.5c0.4,0,0.7-0.1,1-0.4c0.3-0.3,0.4-0.6,0.4-1v-8.5c0-0.4-0.1-0.7-0.4-1
				c-0.3-0.3-0.6-0.4-1-0.4h-1.5V115.8z"/>
			<path class="st2" d="M528.8,118.2V102h7v2.4h-4.5v4.4h3.3v2.4h-3.3v4.4h4.5v2.4H528.8z"/>
		</g>
		<g class="st1">
			<path class="st2" d="M406.9,140.1h-2.4v-16.2h3.5l2.3,11.6l2.2-11.6h3.4v16.2h-2.4v-10.2l-2.1,10.2h-2l-2.4-10.2V140.1z"/>
			<path class="st2" d="M421,136.4l-0.6,3.7h-2.5l2.7-16.2h3.4l2.7,16.2h-2.6l-0.6-3.7H421z M422.2,127.6l-0.9,6.4h1.8L422.2,127.6z
				"/>
			<path class="st2" d="M432.6,123.9c1.4,0,2.4,0.4,3,1.1c0.6,0.7,0.8,1.6,0.8,2.7v2.4c0,1.2-0.4,2.1-1.3,2.9l1.8,7.1h-2.6l-1.5-6.1
				c-0.1,0-0.1,0-0.2,0h-1.4v6.1h-2.4v-16.2H432.6z M434,127.8c0-0.9-0.5-1.4-1.4-1.4h-1.5v5.2h1.5c0.4,0,0.7-0.1,1-0.4
				c0.3-0.3,0.4-0.6,0.4-1V127.8z"/>
			<path class="st2" d="M441.5,135v5.1H439v-16.2h2.4v5.8l3-5.8h2.6l-3.3,6.6l3.9,9.6h-2.9l-2.6-6.6L441.5,135z"/>
			<path class="st2" d="M449.6,140.1v-16.2h7v2.4h-4.5v4.4h3.3v2.4h-3.3v4.4h4.5v2.4H449.6z"/>
			<path class="st2" d="M460.9,126.3h-2.6v-2.4h7.6v2.4h-2.6v13.8h-2.4V126.3z"/>
			<path class="st2" d="M470.3,140.1h-2.4v-16.2h2.4V140.1z"/>
			<path class="st2" d="M475.3,123.9l3.2,10.9v-10.9h2.4v16.2h-2.6l-3.4-10.4v10.4h-2.4v-16.2H475.3z"/>
			<path class="st2" d="M487,140.3c-1.1,0-2-0.4-2.7-1.1c-0.8-0.8-1.1-1.7-1.1-2.7v-8.9c0-1.1,0.4-2,1.1-2.7
				c0.8-0.8,1.7-1.1,2.7-1.1c1.1,0,2,0.4,2.7,1.1c0.8,0.8,1.1,1.7,1.1,2.7v1.9h-2.5v-1.9c0-0.4-0.1-0.7-0.4-1
				c-0.3-0.3-0.6-0.4-1-0.4c-0.4,0-0.7,0.1-1,0.4s-0.4,0.6-0.4,1v8.9c0,0.4,0.1,0.7,0.4,1c0.3,0.3,0.6,0.4,1,0.4
				c0.4,0,0.7-0.1,1-0.4c0.3-0.3,0.4-0.6,0.4-1v-3.2h-1.4v-2.4h3.9v5.7c0,1.1-0.4,2-1.1,2.7C488.9,139.9,488,140.3,487,140.3z"/>
			<path class="st2" d="M498.1,140.3c-1.1,0-2-0.4-2.7-1.1c-0.8-0.8-1.1-1.7-1.1-2.7v-8.9c0-1.1,0.4-2,1.1-2.7
				c0.8-0.8,1.7-1.1,2.7-1.1c1.1,0,2,0.4,2.7,1.1c0.8,0.8,1.1,1.7,1.1,2.7v1.9h-2.5v-1.9c0-0.4-0.1-0.7-0.4-1
				c-0.3-0.3-0.6-0.4-1-0.4c-0.4,0-0.7,0.1-1,0.4c-0.3,0.3-0.4,0.6-0.4,1v8.9c0,0.4,0.1,0.7,0.4,1c0.3,0.3,0.6,0.4,1,0.4
				c0.4,0,0.7-0.1,1-0.4c0.3-0.3,0.4-0.6,0.4-1v-2.2h2.5v2.3c0,1.1-0.4,2-1.1,2.7C500.1,139.9,499.1,140.3,498.1,140.3z"/>
			<path class="st2" d="M507.8,123.7c1.1,0,2,0.4,2.8,1.1c0.8,0.8,1.1,1.7,1.1,2.7v8.9c0,1.1-0.4,2-1.1,2.8
				c-0.8,0.8-1.7,1.1-2.7,1.1s-2-0.4-2.7-1.1c-0.8-0.8-1.1-1.7-1.1-2.7v-8.9c0-1.1,0.4-2,1.1-2.8
				C505.8,124.1,506.7,123.7,507.8,123.7z M509.1,127.5c0-0.4-0.1-0.7-0.4-1s-0.6-0.4-1-0.4c-0.4,0-0.7,0.1-1,0.4
				c-0.3,0.3-0.4,0.6-0.4,1v8.9c0,0.4,0.1,0.7,0.4,1c0.3,0.3,0.6,0.4,1,0.4c0.4,0,0.7-0.1,1-0.4s0.4-0.6,0.4-1V127.5z"/>
			<path class="st2" d="M513.3,130.8h7.2v2.5h-7.2V130.8z"/>
			<path class="st2" d="M526.1,123.7c1.1,0,2,0.4,2.8,1.1c0.8,0.8,1.1,1.7,1.1,2.7v8.9c0,1.1-0.4,2-1.1,2.8
				c-0.8,0.8-1.7,1.1-2.7,1.1c-1.1,0-2-0.4-2.7-1.1c-0.8-0.8-1.1-1.7-1.1-2.7v-8.9c0-1.1,0.4-2,1.1-2.8
				C524.2,124.1,525.1,123.7,526.1,123.7z M527.5,127.5c0-0.4-0.1-0.7-0.4-1c-0.3-0.3-0.6-0.4-1-0.4c-0.4,0-0.7,0.1-1,0.4
				s-0.4,0.6-0.4,1v8.9c0,0.4,0.1,0.7,0.4,1s0.6,0.4,1,0.4c0.4,0,0.7-0.1,1-0.4c0.3-0.3,0.4-0.6,0.4-1V127.5z"/>
			<path class="st2" d="M536,123.9c1.2,0,2.1,0.4,2.8,1.1c0.7,0.7,1,1.6,1,2.7v2.4c0,1.1-0.4,2-1.1,2.7c-0.7,0.8-1.6,1.1-2.7,1.1
				h-1.4v6.1h-2.4v-16.2H536z M537.5,127.8c0-0.4-0.1-0.8-0.4-1c-0.3-0.3-0.6-0.4-1-0.4h-1.5v5.2h1.5c0.4,0,0.7-0.1,1-0.4
				c0.3-0.3,0.4-0.6,0.4-1V127.8z"/>
			<path class="st2" d="M546.4,136.4l-0.6,3.7h-2.5l2.7-16.2h3.4l2.7,16.2h-2.6l-0.6-3.7H546.4z M547.7,127.6l-0.9,6.4h1.8
				L547.7,127.6z"/>
			<path class="st2" d="M554.5,126.3h-2.6v-2.4h7.6v2.4h-2.6v13.8h-2.4V126.3z"/>
		</g>
		<g class="st1">
			<path class="st2" d="M406.9,155v6.9h-2.4v-16.2h2.4v6.9h2.9v-6.9h2.4v16.2h-2.4V155H406.9z"/>
			<path class="st2" d="M417.5,158.2l-0.6,3.7h-2.5l2.7-16.2h3.4l2.7,16.2h-2.6l-0.6-3.7H417.5z M418.7,149.4l-0.9,6.4h1.8
				L418.7,149.4z"/>
			<path class="st2" d="M432.6,157.9c0,1.1-0.3,2.1-0.9,2.9c-0.4,0.5-1,0.9-1.7,1.1c-0.4,0.1-0.8,0.2-1.4,0.2c-1,0-1.8-0.2-2.4-0.7
				c-0.5-0.4-0.9-0.9-1.2-1.6c-0.3-0.7-0.5-1.4-0.5-2.3l2.3-0.2c0.1,0.9,0.4,1.6,0.8,2c0.3,0.3,0.6,0.5,1,0.5c0.5,0,1-0.3,1.3-0.8
				c0.2-0.3,0.2-0.6,0.2-1.1c0-0.7-0.3-1.4-0.9-2c-0.5-0.5-1.2-1.1-2.2-2.1c-0.8-0.8-1.4-1.5-1.7-2.1c-0.4-0.7-0.5-1.5-0.5-2.3
				c0-1.5,0.5-2.6,1.5-3.4c0.6-0.5,1.4-0.7,2.3-0.7c0.9,0,1.6,0.2,2.2,0.6c0.5,0.3,0.9,0.7,1.2,1.3c0.3,0.5,0.5,1.2,0.5,1.9
				l-2.3,0.4c-0.1-0.7-0.3-1.2-0.6-1.5c-0.2-0.3-0.5-0.4-1-0.4c-0.4,0-0.8,0.2-1,0.6c-0.2,0.3-0.3,0.7-0.3,1.2c0,0.7,0.3,1.5,1,2.3
				c0.2,0.3,0.6,0.6,1.1,1c0.6,0.5,0.9,0.8,1.1,1c0.6,0.6,1.1,1.2,1.4,1.8c0.2,0.3,0.3,0.5,0.4,0.8
				C432.4,156.9,432.5,157.4,432.6,157.9z"/>
			<path class="st2" d="M434.6,161.9v-16.2h3.7c1,0,1.8,0.3,2.6,0.8c0.7,0.4,1.1,1.1,1.4,2c0.2,0.5,0.2,1.1,0.2,1.7
				c0,1.1-0.3,2-0.9,2.6c-0.2,0.3-0.5,0.5-0.9,0.6c0.5,0.2,1,0.6,1.4,1.2c0.3,0.4,0.4,0.9,0.6,1.6c0.1,0.3,0.1,0.7,0.1,1.1
				c0,1-0.2,1.9-0.6,2.6c-0.3,0.6-0.7,1-1.3,1.3c-0.6,0.4-1.2,0.6-1.9,0.6H434.6z M437.2,152.3h1c0.8,0,1.3-0.4,1.5-1.1
				c0.1-0.3,0.1-0.6,0.1-1c0-0.7-0.2-1.2-0.5-1.5c-0.3-0.3-0.7-0.5-1.2-0.5h-1V152.3z M437.2,159.5h1c0.8,0,1.4-0.4,1.7-1.3
				c0.1-0.3,0.2-0.6,0.2-1c0-0.9-0.2-1.6-0.5-2c-0.3-0.4-0.8-0.6-1.4-0.6h-1V159.5z"/>
			<path class="st2" d="M448.8,145.7c1.4,0,2.4,0.4,3,1.1c0.6,0.7,0.8,1.6,0.8,2.7v2.4c0,1.2-0.4,2.1-1.3,2.9l1.8,7.1h-2.6l-1.5-6.1
				c-0.1,0-0.1,0-0.2,0h-1.4v6.1H445v-16.2H448.8z M450.3,149.6c0-0.9-0.5-1.4-1.4-1.4h-1.5v5.2h1.5c0.4,0,0.7-0.1,1-0.4
				c0.3-0.3,0.4-0.6,0.4-1V149.6z"/>
			<path class="st2" d="M458.7,145.5c1.1,0,2,0.4,2.8,1.1c0.8,0.8,1.1,1.7,1.1,2.7v8.9c0,1.1-0.4,2-1.1,2.8
				c-0.8,0.8-1.7,1.1-2.7,1.1s-2-0.4-2.7-1.1c-0.8-0.8-1.1-1.7-1.1-2.7v-8.9c0-1.1,0.4-2,1.1-2.8
				C456.7,145.9,457.6,145.5,458.7,145.5z M460,149.3c0-0.4-0.1-0.7-0.4-1s-0.6-0.4-1-0.4c-0.4,0-0.7,0.1-1,0.4
				c-0.3,0.3-0.4,0.6-0.4,1v8.9c0,0.4,0.1,0.7,0.4,1c0.3,0.3,0.6,0.4,1,0.4c0.4,0,0.7-0.1,1-0.4s0.4-0.6,0.4-1V149.3z"/>
			<path class="st2" d="M464.3,159.5h2.4v2.4h-2.4V159.5z"/>
		</g>
	</g>
</g>
<g class="st1">
	<path class="st3" d="M414.3,53.9h-3.9v25.8h-2.2V53.9h-3.9v-2.2h10V53.9z"/>
	<path class="st3" d="M427.8,79.8h-2.2v-9.3c0-2-1.6-3.6-3.6-3.6h-2.6v12.9h-2.2v-28h4.8c3.2,0,5.8,2.6,5.8,5.8V61
		c0,1.9-1,3.7-2.4,4.7c1.5,1.1,2.4,2.8,2.4,4.7V79.8z M421.9,64.7c2,0,3.6-1.6,3.6-3.6v-3.4c0-2-1.6-3.6-3.6-3.6h-2.6v10.7H421.9z"
		/>
	<path class="st3" d="M442.1,79.8h-2.2l-1.1-7.2h-5.7l-1.1,7.2h-2.2l4.3-28h3.6L442.1,79.8z M433.5,70.4h5L436,54.2H436L433.5,70.4z
		"/>
	<path class="st3" d="M455.5,73.9c0,3.2-2.6,5.8-5.8,5.8h-5v-28h5c3.2,0,5.8,2.6,5.8,5.8V73.9z M453.3,57.6c0-2-1.6-3.6-3.7-3.6
		h-2.8v23.7h2.8c2,0,3.7-1.6,3.7-3.7V57.6z"/>
	<path class="st3" d="M461.5,53.9v10.7h5v2.2h-5v10.7h7.1v2.2h-9.3v-28h9v2.2H461.5z"/>
	<path class="st3" d="M486.2,79.8h-2.4l-4.4-23.5h-0.1v23.5h-2.2v-28h3.2l4.6,24.7h0.1l4.6-24.7h3.3v28h-2.2V56.1h-0.1L486.2,79.8z"
		/>
	<path class="st3" d="M507.7,79.8h-2.2l-1.1-7.2h-5.7l-1.1,7.2h-2.2l4.3-28h3.6L507.7,79.8z M499.1,70.4h5l-2.4-16.3h-0.1
		L499.1,70.4z"/>
	<path class="st3" d="M520.9,79.8h-2.2v-9.3c0-2-1.6-3.6-3.6-3.6h-2.6v12.9h-2.2v-28h4.8c3.2,0,5.8,2.6,5.8,5.8V61
		c0,1.9-1,3.7-2.4,4.7c1.5,1.1,2.4,2.8,2.4,4.7V79.8z M515.1,64.7c2,0,3.6-1.6,3.6-3.6v-3.4c0-2-1.6-3.6-3.6-3.6h-2.6v10.7H515.1z"
		/>
	<path class="st3" d="M524.6,51.8h2.2v12.9h2.1l4.7-12.9h2.2l-5.1,14l5.1,14h-2.2l-4.7-12.9h-2.1v12.9h-2.2V51.8z"/>
	<path class="st3" d="M540.4,53.9v10.7h5v2.2h-5v10.7h7.1v2.2h-9.3v-28h9v2.2H540.4z"/>
	<path class="st3" d="M559.2,53.9h-3.9v25.8h-2.2V53.9h-3.9v-2.2h10V53.9z"/>
	<path class="st3" d="M562,79.8v-28h2.2v28H562z"/>
	<path class="st3" d="M568.3,51.8h2.6l6.6,21.2h0.1V51.8h2.2v28h-2.2l-7.1-22.4h-0.1v22.4h-2.2V51.8z"/>
	<path class="st3" d="M589.1,65.4h5.4v14.8l-1.8-0.4v-1c-1,0.8-2.2,1.3-3.6,1.3c-3,0-5.4-2.4-5.4-5.4v-18c0-3,2.4-5.4,5.4-5.4
		c3,0,5.4,2.4,5.4,5.4v3.3l-2.2,0.2v-3.6c0-1.8-1.5-3.2-3.2-3.2s-3.2,1.5-3.2,3.2v18c0,1.8,1.5,3.2,3.2,3.2s3.2-1.5,3.2-3.2v-7.2
		h-3.2V65.4z"/>
</g>
<rect id="XMLID_309_" x="403.6" y="86.7" class="st4" width="196.3" height="6.4"/>
<g>
	<g>
		<path class="st3" d="M165.5,45.5h-16.4v-2.4l6.6-6.6c2-2,3.3-3.5,4-4.3c0.6-0.9,1.1-1.7,1.4-2.5c0.3-0.8,0.5-1.7,0.5-2.6
			c0-1.3-0.4-2.4-1.2-3.2c-0.8-0.8-1.9-1.2-3.4-1.2c-1,0-2,0.2-2.9,0.5s-2,1-3.1,1.9l-1.5-1.9c2.3-1.9,4.8-2.9,7.5-2.9
			c2.3,0,4.2,0.6,5.5,1.8s2,2.8,2,4.8c0,1.6-0.4,3.2-1.3,4.7c-0.9,1.5-2.6,3.5-5,5.9l-5.5,5.3v0.1h12.9v2.6H165.5z"/>
		<path class="st3" d="M185.7,33c0,4.3-0.7,7.5-2,9.7c-1.4,2.1-3.4,3.2-6.2,3.2c-2.7,0-4.7-1.1-6.1-3.3s-2.1-5.4-2.1-9.6
			c0-4.4,0.7-7.6,2-9.7c1.4-2.1,3.4-3.2,6.2-3.2c2.7,0,4.8,1.1,6.2,3.3C185,25.6,185.7,28.8,185.7,33z M172,33
			c0,3.6,0.4,6.3,1.3,7.9c0.9,1.7,2.2,2.5,4.1,2.5c1.9,0,3.3-0.8,4.1-2.5s1.3-4.3,1.3-7.9s-0.4-6.2-1.3-7.9
			c-0.8-1.7-2.2-2.5-4.1-2.5c-1.9,0-3.2,0.8-4.1,2.5C172.5,26.7,172,29.3,172,33z"/>
		<path class="st3" d="M199.6,45.5h-2.8V27.7c0-1.5,0-2.9,0.1-4.2c-0.2,0.2-0.5,0.5-0.8,0.8s-1.7,1.4-4.1,3.3l-1.5-1.9l6.6-5.1h2.4
			v24.9H199.6z"/>
		<path class="st3" d="M209.4,34.8c0-4.9,1-8.6,2.9-11s4.7-3.6,8.5-3.6c1.3,0,2.3,0.1,3,0.3v2.4c-0.9-0.3-1.9-0.4-3-0.4
			c-2.7,0-4.7,0.8-6.1,2.5c-1.4,1.7-2.2,4.3-2.3,7.9h0.2c1.3-2,3.2-2.9,5.9-2.9c2.2,0,4,0.7,5.3,2c1.3,1.4,1.9,3.2,1.9,5.5
			c0,2.6-0.7,4.6-2.1,6.1c-1.4,1.5-3.3,2.2-5.8,2.2c-2.6,0-4.6-1-6.2-2.9C210.2,41,209.4,38.3,209.4,34.8z M217.8,43.4
			c1.6,0,2.9-0.5,3.8-1.5c0.9-1,1.3-2.5,1.3-4.4c0-1.7-0.4-3-1.2-3.9s-2.1-1.4-3.7-1.4c-1,0-2,0.2-2.8,0.6c-0.9,0.4-1.5,1-2,1.7
			s-0.8,1.5-0.8,2.3c0,1.2,0.2,2.3,0.7,3.3s1.1,1.8,1.9,2.4C215.8,43.1,216.8,43.4,217.8,43.4z"/>
		<path class="st3" d="M239.9,20.5l-9.3,25h-2.8l9.3-25H239.9z"/>
		<path class="st3" d="M258.4,45.5H242v-2.4l6.6-6.6c2-2,3.3-3.5,4-4.3c0.6-0.9,1.1-1.7,1.4-2.5c0.3-0.8,0.5-1.7,0.5-2.6
			c0-1.3-0.4-2.4-1.2-3.2c-0.8-0.8-1.9-1.2-3.4-1.2c-1,0-2,0.2-2.9,0.5s-2,1-3.1,1.9l-1.5-1.9c2.3-1.9,4.8-2.9,7.5-2.9
			c2.3,0,4.2,0.6,5.5,1.8s2,2.8,2,4.8c0,1.6-0.4,3.2-1.3,4.7s-2.6,3.5-5,5.9l-5.5,5.3v0.1h12.9v2.6H258.4z"/>
		<path class="st3" d="M278.6,33c0,4.3-0.7,7.5-2,9.7c-1.4,2.1-3.4,3.2-6.2,3.2c-2.7,0-4.7-1.1-6.1-3.3s-2.1-5.4-2.1-9.6
			c0-4.4,0.7-7.6,2-9.7c1.4-2.1,3.4-3.2,6.2-3.2c2.7,0,4.8,1.1,6.2,3.3C277.9,25.6,278.6,28.8,278.6,33z M264.9,33
			c0,3.6,0.4,6.3,1.3,7.9c0.9,1.7,2.2,2.5,4.1,2.5s3.3-0.8,4.1-2.5c0.8-1.7,1.3-4.3,1.3-7.9s-0.4-6.2-1.3-7.9
			c-0.8-1.7-2.2-2.5-4.1-2.5s-3.2,0.8-4.1,2.5C265.4,26.7,264.9,29.3,264.9,33z"/>
		<path class="st3" d="M292.5,45.5h-2.8V27.7c0-1.5,0-2.9,0.1-4.2c-0.2,0.2-0.5,0.5-0.8,0.8s-1.7,1.4-4.1,3.3l-1.5-1.9l6.6-5.1h2.4
			L292.5,45.5L292.5,45.5z"/>
		<path class="st3" d="M305.2,45.5l10.4-22.4H302v-2.6h16.6v2.3l-10.2,22.7H305.2z"/>
	</g>
	<g>
		<g id="XMLID_352_">
			<path id="XMLID_283_" class="st3" d="M100.5,65h229.7c5.7,0,11.1,2.8,14.3,7.6c3.9,5.8,10.5,9.5,18,9.3
				c10.9-0.3,19.9-9.2,20.4-20.1c0.5-12-9.1-21.9-21-21.9c-7.1,0-13.4,3.5-17.2,9c-3.4,4.8-8.7,7.9-14.5,7.9H100.5V65z"/>
		</g>
		<path class="st3" d="M103,18.5c-23.4-23.4-61.3-23.4-84.7,0s-23.4,61.3,0,84.7c12.6,12.6,29.3,18.4,45.7,17.4
			c14.2-0.8,28.1-6.6,38.9-17.4s16.6-24.8,17.4-39C121.4,47.8,115.5,31,103,18.5z M88.8,89c-15.6,15.6-40.8,15.6-56.4,0
			s-15.6-40.8,0-56.4s40.8-15.6,56.4,0S104.4,73.4,88.8,89z"/>
	</g>
	<g>
		<path class="st3" d="M41.6,48.6c0-4,3.2-7.2,7.2-7.2s7.2,3.2,7.2,7.2v24.9c0,4-3.2,7.2-7.2,7.2s-7.2-3.2-7.2-7.2V48.6z M44.5,73.6
			c0,2.3,1.9,4.2,4.2,4.2s4.2-1.9,4.2-4.2v-25c0-2.3-1.9-4.2-4.2-4.2s-4.2,1.9-4.2,4.2V73.6z"/>
		<path class="st3" d="M63.8,44.9v12.6c1.2-0.9,2.8-1.4,4.4-1.4c4.1,0,7.4,3.3,7.4,7.4v9.9c0,4.1-3.3,7.4-7.4,7.4s-7.4-3.3-7.4-7.4
			v-3.5l2.9-0.3v3.8c0,2.4,2,4.4,4.4,4.4s4.4-2,4.4-4.4v-9.9c0-2.4-2-4.4-4.4-4.4c-2.1,0-4,1.6-4.4,3.7l-3-0.6V42h13.6v2.9H63.8z"/>
	</g>
</g>
<g>
	<g>
		<path class="st5" d="M652.1,51.6c-4-22.6-36.6-22.6-40.7,0c-0.4,2-0.5,4.1-0.5,6.2c0,14.3,8.6,26.6,20.9,32
			c12.3-5.4,20.9-17.7,20.9-32C652.6,55.7,652.4,53.6,652.1,51.6z"/>
	</g>
	<g>
		<g>
			<defs>
				<path id="SVGID_1_" d="M648.1,55.4c0,8.4-6.3,15.3-14.5,16.2c-0.6,0.1-1.2,0.1-1.9,0.1c-9,0-16.3-7.3-16.3-16.3
					s7.3-16.3,16.3-16.3c0.6,0,1.3,0,1.9,0.1C641.7,40.1,648.1,47,648.1,55.4z"/>
			</defs>
			<clipPath id="SVGID_2_">
				<use xlink:href="#SVGID_1_"  style="overflow:visible;"/>
			</clipPath>
			<g class="st6">
				<path class="st7" d="M655,69.6c0,1.2-1,2.2-2.2,2.2h-42.4c-1.2,0-2.2-1-2.2-2.2V41.3c0-1.2,1-2.2,2.2-2.2h42.4
					c1.2,0,2.2,1,2.2,2.2V69.6z"/>
				<g>
					<polygon class="st8" points="631.6,67.4 612.4,55.5 631.6,43.5 650.8,55.5 					"/>
					<path class="st9" d="M639.6,55.5c0,4.4-3.6,8-8,8s-8-3.6-8-8s3.6-8,8-8C636,47.4,639.6,51,639.6,55.5z"/>
					<path class="st10" d="M628.9,52.6c-1.9-0.3-3.5-0.2-4.5-0.1c-0.3,0.5-0.5,1-0.6,1.6c0.8-0.1,2.6-0.3,5,0
						c2.6,0.4,6.5,1.5,10.3,4.5c0.2-0.5,0.3-1.1,0.3-1.6C635.5,54,631.7,52.9,628.9,52.6z"/>
					<g>
						<path class="st11" d="M625.7,53.1c0,0.2-0.1,0.3-0.2,0.3c-0.1,0-0.2-0.1-0.2-0.3s0.1-0.3,0.2-0.3
							C625.6,52.8,625.7,53,625.7,53.1z M625.8,53.1c0-0.1-0.1-0.4-0.3-0.3c-0.2,0-0.3,0.2-0.3,0.4c0,0.1,0.1,0.3,0.3,0.3
							S625.8,53.3,625.8,53.1z"/>
						<path class="st11" d="M626,52.9h0.2c0,0,0.1,0,0.1,0.1s-0.1,0.1-0.1,0.1H626V52.9z M626,53.2h0.2c0.1,0,0.1,0.1,0.1,0.1
							s0,0.1,0,0.2h0.1l0,0c0,0,0,0,0-0.1v-0.1c0-0.1,0-0.1-0.1-0.1c0.1,0,0.1-0.1,0.1-0.2c0-0.1-0.1-0.2-0.2-0.2h-0.3v0.7h0.1
							L626,53.2z"/>
						<path class="st11" d="M626.7,52.9h0.2c0.1,0,0.2,0.1,0.2,0.3s-0.1,0.3-0.2,0.3h-0.2V52.9z M626.6,53.5h0.3
							c0.2,0,0.3-0.2,0.3-0.3c0-0.2-0.1-0.3-0.3-0.3h-0.3V53.5z"/>
						<path class="st11" d="M627.8,53.5h-0.5v-0.7h0.5v0.1h-0.4v0.2h0.4v0.1h-0.4v0.2L627.8,53.5L627.8,53.5z"/>
						<path class="st11" d="M628.4,53.6v-0.4c0,0,0-0.1,0-0.2l0,0l-0.2,0.5h-0.1L628,53l0,0c0,0.1,0,0.1,0,0.2v0.4h-0.1l0.1-0.7h0.1
							l0.1,0.6l0,0l0.3-0.5h0.1L628.4,53.6L628.4,53.6z"/>
						<path class="st11" d="M630.9,54l-0.5-0.1l0.2-0.7l0.5,0.1v0.1l-0.4-0.1v0.2l0.4,0.1v0.1l-0.4-0.1v0.2L630.9,54L630.9,54z"/>
						<path class="st11" d="M632.9,54L632.9,54c0.2,0,0.2,0.1,0.2,0.2c0,0.1-0.1,0.1-0.2,0.1l-0.2-0.1L632.9,54z M632.8,54.3
							l0.2,0.1c0.1,0,0.2,0,0.3-0.1c0-0.1,0-0.2-0.1-0.2l-0.3-0.1l-0.2,0.6h0.1V54.3z"/>
						<path class="st11" d="M633.5,54.2l0.2,0.1c0,0,0.1,0.1,0.1,0.2c0,0.1-0.1,0.1-0.2,0.1l-0.2-0.1L633.5,54.2z M633.4,54.5
							l0.2,0.1c0.1,0,0.1,0.1,0.1,0.1s0,0.1,0,0.2h0.1l0,0c0,0,0,0,0-0.1v-0.1c0-0.1,0-0.1,0-0.1s0.1,0,0.1-0.1
							c0.1-0.1,0-0.2-0.1-0.3l-0.3-0.1l-0.2,0.6h0.1L633.4,54.5z"/>
						<path class="st11" d="M634.4,54.9c-0.1,0.1-0.2,0.2-0.3,0.2c-0.1-0.1-0.2-0.2-0.1-0.3c0.1-0.1,0.2-0.2,0.3-0.2
							C634.4,54.6,634.4,54.7,634.4,54.9z M634.5,54.9c0.1-0.1,0.1-0.4-0.2-0.5c-0.2-0.1-0.4,0.1-0.4,0.2c-0.1,0.1-0.1,0.4,0.2,0.4
							C634.3,55.2,634.4,55,634.5,54.9z"/>
						<path class="st11" d="M634.8,55l0.3,0.1l-0.2,0.3h-0.1v-0.1c-0.1,0-0.2,0-0.2,0c-0.1,0-0.1-0.1-0.1-0.2c-0.1-0.1,0-0.2,0-0.3
							c0.1-0.2,0.2-0.3,0.4-0.2c0.1,0.1,0.2,0.2,0.2,0.3H635c0-0.1-0.1-0.2-0.1-0.2c-0.1,0-0.2,0-0.3,0.2c-0.1,0.1-0.1,0.3,0.1,0.3
							h0.1c0.1,0,0.1-0.1,0.1-0.1L634.8,55L634.8,55z"/>
						<path class="st11" d="M635.4,55l0.2,0.1c0,0,0.1,0.1,0.1,0.2c0,0.1-0.1,0.1-0.2,0l-0.2-0.1L635.4,55z M635.3,55.3l0.2,0.1
							c0.1,0.1,0.1,0.1,0.1,0.2c0,0-0.1,0.1-0.1,0.2l0.1,0.1l0,0c0,0,0,0,0-0.1l0.1-0.1c0-0.1,0-0.1,0-0.1s0.1,0,0.2-0.1
							c0.1-0.1,0-0.2-0.1-0.3l-0.3-0.1l-0.3,0.6h0.1V55.3z"/>
						<path class="st11" d="M636.1,56.1l-0.4-0.2l0.3-0.6l0.4,0.2v0.1l-0.4-0.2l-0.1,0.2l0.3,0.2v0.1l-0.3-0.2l-0.1,0.2L636.1,56.1
							L636.1,56.1z"/>
						<path class="st11" d="M636.8,55.9c0-0.1,0-0.2-0.1-0.2s-0.1-0.1-0.2,0c0,0.1,0,0.1,0,0.1L636.8,55.9c0,0.1,0,0.2-0.1,0.3
							s-0.2,0.1-0.3,0s-0.1-0.1-0.2-0.2c0-0.1,0-0.1,0-0.2h0.1c-0.1,0.1,0,0.2,0.1,0.2s0.1,0.1,0.2,0c0-0.1,0-0.1-0.1-0.2l-0.1-0.1
							c0,0-0.1-0.1-0.1-0.2c0.1-0.1,0.2-0.1,0.3-0.1C637,55.8,636.9,55.9,636.8,55.9L636.8,55.9z"/>
						<path class="st11" d="M637.4,56.3c0-0.1,0-0.2-0.1-0.2c0,0-0.1-0.1-0.2,0v0.1L637.4,56.3c0,0.1,0,0.2-0.1,0.3s-0.2,0.1-0.3,0
							s-0.1-0.1-0.1-0.2c0-0.1,0-0.1,0-0.2h0.1c-0.1,0.1,0,0.2,0.1,0.2S637.3,56.5,637.4,56.3c-0.1,0-0.1,0-0.2-0.1l-0.1-0.1
							c0,0-0.1-0.1,0-0.2c0.1-0.1,0.2-0.1,0.3-0.1C637.5,56.1,637.5,56.2,637.4,56.3L637.4,56.3z"/>
						<path class="st11" d="M637.9,56.8c-0.1,0.1-0.2,0.2-0.3,0.1c-0.1-0.1-0.1-0.2-0.1-0.4c0.1-0.1,0.2-0.2,0.3-0.1
							C638,56.5,638,56.6,637.9,56.8z M638,56.8c0.1-0.1,0.1-0.3-0.1-0.5c-0.2-0.1-0.4,0-0.5,0.1s-0.1,0.3,0.1,0.5
							C637.7,57.1,637.9,56.9,638,56.8z"/>
					</g>
					<g>
						<polygon class="st10" points="633.8,50.3 633.9,50.6 634.2,50.6 633.9,50.8 634.1,51.1 633.8,50.9 633.5,51.1 633.6,50.8 
							633.3,50.6 633.7,50.6 						"/>
						<polygon class="st10" points="628.3,54.1 628.3,54.3 628.6,54.3 628.4,54.4 628.4,54.6 628.3,54.5 628.1,54.6 628.1,54.4 
							628,54.3 628.2,54.3 						"/>
						<polygon class="st10" points="624.8,52.2 624.9,52.5 625.2,52.5 625,52.7 625.1,53 624.8,52.8 624.6,53 624.7,52.7 
							624.4,52.5 624.7,52.5 						"/>
						<polygon class="st10" points="626.3,55.1 626.3,55.4 626.6,55.3 626.4,55.5 626.5,55.8 626.2,55.6 626,55.8 626.1,55.5 
							625.9,55.3 626.2,55.3 						"/>
						<polygon class="st10" points="625.6,55.5 625.7,55.8 626.1,55.8 625.8,56.1 625.9,56.4 625.6,56.2 625.3,56.4 625.4,56.1 
							625.1,55.8 625.5,55.8 						"/>
						<polygon class="st10" points="624.7,56.4 624.8,56.6 625,56.6 624.8,56.7 624.9,56.9 624.7,56.8 624.6,56.9 624.6,56.7 
							624.5,56.6 624.7,56.6 						"/>
						<polygon class="st10" points="627.1,56.4 627.2,56.6 627.5,56.6 627.3,56.8 627.4,57 627.2,56.9 626.9,57 627,56.8 
							626.8,56.6 627.1,56.6 						"/>
						<polygon class="st10" points="627,57.3 627.1,57.5 627.3,57.5 627.1,57.7 627.2,57.9 627,57.8 626.8,57.9 626.9,57.7 
							626.7,57.5 626.9,57.5 						"/>
						<polygon class="st10" points="628.1,58 628.2,58.3 628.5,58.3 628.3,58.5 628.4,58.9 628.1,58.7 627.8,58.9 627.9,58.5 
							627.6,58.3 628,58.3 						"/>
						<polygon class="st10" points="631.5,57.2 631.6,57.6 631.9,57.6 631.6,57.8 631.8,58.2 631.5,57.9 631.2,58.2 631.3,57.8 
							631,57.6 631.3,57.6 						"/>
						<polygon class="st10" points="631.1,56.4 631.1,56.5 631.2,56.5 631.1,56.6 631.2,56.7 631.1,56.6 631,56.7 631,56.6 
							630.9,56.5 631,56.5 						"/>
						<polygon class="st10" points="630.4,55.8 630.5,56.1 630.7,56.1 630.5,56.2 630.6,56.4 630.4,56.3 630.2,56.4 630.3,56.2 
							630.1,56.1 630.3,56.1 						"/>
						<polygon class="st10" points="631.6,55 631.6,55.2 631.9,55.2 631.7,55.4 631.8,55.6 631.6,55.5 631.3,55.6 631.4,55.4 
							631.2,55.2 631.5,55.2 						"/>
						<polygon class="st10" points="633.4,53.1 633.4,53.4 633.7,53.4 633.5,53.5 633.6,53.7 633.4,53.6 633.2,53.7 633.2,53.5 
							633.1,53.4 633.3,53.4 						"/>
						<polygon class="st10" points="632.3,55.8 632.4,56 632.7,56 632.5,56.2 632.6,56.5 632.3,56.3 632.1,56.5 632.2,56.2 632,56 
							632.3,56 						"/>
						<polygon class="st10" points="633.2,58 633.4,58.4 633.8,58.4 633.4,58.6 633.6,59 633.2,58.8 632.9,59 633,58.6 632.7,58.4 
							633.1,58.4 						"/>
						<polygon class="st10" points="633.9,59.3 634,59.6 634.3,59.6 634,59.8 634.1,60.1 633.9,59.9 633.6,60.1 633.7,59.8 
							633.5,59.6 633.8,59.6 						"/>
						<polygon class="st10" points="634.5,58.4 634.6,58.6 634.9,58.6 634.7,58.8 634.8,59.1 634.6,58.9 634.3,59 634.4,58.8 
							634.2,58.6 634.5,58.6 						"/>
						<polygon class="st10" points="635.5,57.8 635.6,58.1 635.9,58.1 635.7,58.3 635.8,58.6 635.5,58.4 635.3,58.6 635.4,58.3 
							635.1,58.1 635.4,58.1 						"/>
						<polygon class="st10" points="635.5,59.1 635.6,59.3 635.8,59.3 635.7,59.5 635.7,59.7 635.5,59.6 635.4,59.7 635.4,59.5 
							635.2,59.3 635.5,59.3 						"/>
						<polygon class="st10" points="635.5,59.9 635.6,60.1 635.8,60.1 635.6,60.2 635.7,60.4 635.5,60.3 635.4,60.4 635.4,60.2 
							635.3,60.1 635.4,60.1 						"/>
						<polygon class="st10" points="636.3,58.1 636.4,58.4 636.7,58.4 636.5,58.6 636.6,58.9 636.3,58.8 636.1,58.9 636.2,58.6 
							635.9,58.4 636.2,58.4 						"/>
						<polygon class="st10" points="637.2,58.1 637.3,58.3 637.5,58.3 637.4,58.4 637.4,58.6 637.3,58.5 637.1,58.6 637.1,58.4 
							637,58.3 637.2,58.3 						"/>
						<polygon class="st10" points="637.6,57.4 637.6,57.6 637.8,57.6 637.7,57.7 637.7,57.9 637.6,57.8 637.5,57.9 637.5,57.7 
							637.4,57.6 637.6,57.6 						"/>
						<polygon class="st10" points="637.2,56.4 637.2,56.5 637.4,56.5 637.2,56.7 637.3,56.8 637.1,56.7 637,56.8 637,56.7 
							636.9,56.5 637.1,56.5 						"/>
						<polygon class="st10" points="638.4,56.2 638.5,56.5 638.8,56.5 638.5,56.7 638.6,57.1 638.4,56.9 638.1,57.1 638.2,56.7 
							637.9,56.5 638.2,56.5 						"/>
						<polygon class="st10" points="631.6,60.1 631.6,60.3 631.8,60.3 631.7,60.5 631.7,60.7 631.6,60.6 631.4,60.7 631.5,60.5 
							631.3,60.3 631.5,60.3 						"/>
					</g>
				</g>
			</g>
		</g>
	</g>
</g>
</svg>
