<?xml version="1.0" encoding="utf-8"?>
<!-- Generator: Adobe Illustrator 22.0.0, SVG Export Plug-In . SVG Version: 6.00 Build 0)  -->
<svg version="1.1" id="Layer_1" xmlns="http://www.w3.org/2000/svg" xmlns:xlink="http://www.w3.org/1999/xlink" x="0px" y="0px"
	 viewBox="0 0 384.2 121.4" style="enable-background:new 0 0 384.2 121.4;" xml:space="preserve">
<style type="text/css">
	.st0{fill:#1E596D;}
</style>
<g>
	<path class="st0" d="M365.8,18.4C342.4-5,304.5-5,281.1,18.4c-23.4,23.4-23.4,61.3,0,84.7c12.6,12.6,29.3,18.4,45.7,17.4
		c14.2-0.8,28.1-6.6,38.9-17.4c10.8-10.8,16.6-24.8,17.4-39C384.1,47.6,378.3,30.9,365.8,18.4z M351.6,88.9
		c-15.6,15.6-40.8,15.6-56.4,0c-15.6-15.6-15.6-40.8,0-56.4c15.6-15.6,40.8-15.6,56.4,0C367.2,48.1,367.2,73.3,351.6,88.9z"/>
	<g>
		<g id="XMLID_353_">
			<path id="XMLID_285_" class="st0" d="M283.3,56.5H53.6c-5.7,0-11.1-2.8-14.3-7.6c-3.9-5.8-10.5-9.5-18-9.3
				C10.4,40,1.3,48.9,0.9,59.8c-0.5,12,9.1,21.9,21,21.9c7.1,0,13.4-3.5,17.2-9c3.4-4.8,8.7-7.9,14.5-7.9h229.7V56.5z"/>
		</g>
		<g>
			<g>
				<path class="st0" d="M87.1,45H70.6v-2.4l6.6-6.6c2-2,3.3-3.5,4-4.3c0.6-0.9,1.1-1.7,1.4-2.5c0.3-0.8,0.5-1.7,0.5-2.6
					c0-1.3-0.4-2.4-1.2-3.2c-0.8-0.8-1.9-1.2-3.4-1.2c-1,0-2,0.2-2.9,0.5c-0.9,0.3-2,1-3.1,1.9L71,22.5c2.3-1.9,4.8-2.9,7.5-2.9
					c2.3,0,4.2,0.6,5.5,1.8s2,2.8,2,4.8c0,1.6-0.4,3.2-1.3,4.7c-0.9,1.5-2.6,3.5-5,5.9l-5.5,5.3v0.1h12.9V45z"/>
				<path class="st0" d="M107.2,32.4c0,4.3-0.7,7.5-2,9.7c-1.4,2.1-3.4,3.2-6.2,3.2c-2.7,0-4.7-1.1-6.1-3.3s-2.1-5.4-2.1-9.6
					c0-4.4,0.7-7.6,2-9.7c1.4-2.1,3.4-3.2,6.2-3.2c2.7,0,4.8,1.1,6.2,3.3C106.5,25.1,107.2,28.3,107.2,32.4z M93.6,32.4
					c0,3.6,0.4,6.3,1.3,7.9c0.9,1.7,2.2,2.5,4.1,2.5c1.9,0,3.3-0.8,4.1-2.5c0.8-1.7,1.3-4.3,1.3-7.9c0-3.6-0.4-6.2-1.3-7.9
					c-0.8-1.7-2.2-2.5-4.1-2.5c-1.9,0-3.2,0.8-4.1,2.5C94,26.2,93.6,28.8,93.6,32.4z"/>
				<path class="st0" d="M121.2,45h-2.8V27.2c0-1.5,0-2.9,0.1-4.2c-0.2,0.2-0.5,0.5-0.8,0.8c-0.3,0.3-1.7,1.4-4.1,3.3l-1.5-1.9
					l6.6-5.1h2.4V45z"/>
				<path class="st0" d="M139,19.6c2.3,0,4.1,0.5,5.4,1.6s2,2.5,2,4.4c0,1.2-0.4,2.4-1.1,3.4c-0.8,1-2,1.9-3.7,2.8
					c2,1,3.5,2,4.3,3.1s1.3,2.3,1.3,3.7c0,2.1-0.7,3.7-2.2,5c-1.4,1.2-3.4,1.9-5.9,1.9c-2.7,0-4.7-0.6-6.2-1.8
					c-1.4-1.2-2.2-2.8-2.2-5c0-2.9,1.7-5.1,5.2-6.7c-1.6-0.9-2.7-1.8-3.4-2.9c-0.7-1-1-2.2-1-3.5c0-1.8,0.7-3.3,2-4.3
					C134.9,20.2,136.7,19.6,139,19.6z M133.6,38.7c0,1.4,0.5,2.4,1.4,3.2c1,0.8,2.3,1.1,4,1.1c1.7,0,3-0.4,4-1.2
					c0.9-0.8,1.4-1.9,1.4-3.3c0-1.1-0.4-2.1-1.3-2.9s-2.4-1.7-4.6-2.5c-1.7,0.7-2.9,1.5-3.7,2.4C133.9,36.4,133.6,37.4,133.6,38.7z
					 M138.9,21.9c-1.4,0-2.5,0.3-3.3,1c-0.8,0.7-1.2,1.6-1.2,2.7c0,1,0.3,1.9,1,2.7c0.7,0.8,1.9,1.5,3.7,2.3
					c1.6-0.7,2.8-1.4,3.5-2.2c0.7-0.8,1-1.7,1-2.8c0-1.2-0.4-2.1-1.2-2.7C141.5,22.3,140.4,21.9,138.9,21.9z"/>
				<path class="st0" d="M161.5,20l-9.3,25h-2.8l9.3-25H161.5z"/>
				<path class="st0" d="M180,45h-16.4v-2.4l6.6-6.6c2-2,3.3-3.5,4-4.3c0.6-0.9,1.1-1.7,1.4-2.5c0.3-0.8,0.5-1.7,0.5-2.6
					c0-1.3-0.4-2.4-1.2-3.2c-0.8-0.8-1.9-1.2-3.4-1.2c-1,0-2,0.2-2.9,0.5c-0.9,0.3-2,1-3.1,1.9l-1.5-1.9c2.3-1.9,4.8-2.9,7.5-2.9
					c2.3,0,4.2,0.6,5.5,1.8s2,2.8,2,4.8c0,1.6-0.4,3.2-1.3,4.7c-0.9,1.5-2.6,3.5-5,5.9l-5.5,5.3v0.1H180V45z"/>
				<path class="st0" d="M200.1,32.4c0,4.3-0.7,7.5-2,9.7c-1.4,2.1-3.4,3.2-6.2,3.2c-2.7,0-4.7-1.1-6.1-3.3s-2.1-5.4-2.1-9.6
					c0-4.4,0.7-7.6,2-9.7c1.4-2.1,3.4-3.2,6.2-3.2c2.7,0,4.8,1.1,6.2,3.3C199.4,25.1,200.1,28.3,200.1,32.4z M186.5,32.4
					c0,3.6,0.4,6.3,1.3,7.9c0.9,1.7,2.2,2.5,4.1,2.5c1.9,0,3.3-0.8,4.1-2.5c0.8-1.7,1.3-4.3,1.3-7.9c0-3.6-0.4-6.2-1.3-7.9
					c-0.8-1.7-2.2-2.5-4.1-2.5c-1.9,0-3.2,0.8-4.1,2.5C186.9,26.2,186.5,28.8,186.5,32.4z"/>
				<path class="st0" d="M214.1,45h-2.8V27.2c0-1.5,0-2.9,0.1-4.2c-0.2,0.2-0.5,0.5-0.8,0.8c-0.3,0.3-1.7,1.4-4.1,3.3l-1.5-1.9
					l6.6-5.1h2.4V45z"/>
				<path class="st0" d="M240,30.6c0,9.8-3.8,14.7-11.3,14.7c-1.3,0-2.4-0.1-3.1-0.3v-2.4c0.9,0.3,1.9,0.4,3.1,0.4
					c2.7,0,4.8-0.8,6.2-2.5c1.4-1.7,2.2-4.3,2.3-7.8h-0.2c-0.6,0.9-1.5,1.7-2.5,2.2c-1,0.5-2.2,0.7-3.5,0.7c-2.2,0-4-0.7-5.3-2
					c-1.3-1.3-1.9-3.2-1.9-5.5c0-2.6,0.7-4.6,2.2-6.2c1.5-1.5,3.4-2.3,5.7-2.3c1.7,0,3.2,0.4,4.5,1.3c1.3,0.9,2.2,2.1,2.9,3.8
					S240,28.4,240,30.6z M231.6,22.1c-1.6,0-2.9,0.5-3.8,1.6c-0.9,1-1.3,2.5-1.3,4.4c0,1.6,0.4,2.9,1.2,3.9c0.8,0.9,2.1,1.4,3.7,1.4
					c1,0,2-0.2,2.9-0.6c0.9-0.4,1.6-1,2.1-1.7c0.5-0.7,0.8-1.5,0.8-2.3c0-1.2-0.2-2.3-0.7-3.3c-0.5-1-1.1-1.8-2-2.4
					C233.6,22.3,232.7,22.1,231.6,22.1z"/>
			</g>
			<g>
				<path class="st0" d="M306.3,50.1c0-4,3.2-7.2,7.2-7.2s7.2,3.2,7.2,7.2v24.9c0,4-3.2,7.2-7.2,7.2s-7.2-3.2-7.2-7.2V50.1z
					 M309.3,75.1c0,2.3,1.9,4.2,4.2,4.2s4.2-1.9,4.2-4.2V50.1c0-2.3-1.9-4.2-4.2-4.2s-4.2,1.9-4.2,4.2V75.1z"/>
				<path class="st0" d="M340.7,74.9c0,4.1-3.3,7.4-7.4,7.4c-4.1,0-7.4-3.3-7.4-7.4V50.3c0-4.1,3.3-7.4,7.4-7.4
					c4.1,0,7.4,3.3,7.4,7.4v3.2l-2.9,0.3v-3.5c0-2.4-2-4.4-4.4-4.4c-2.4,0-4.4,2-4.4,4.4v9.8c1.2-0.9,2.8-1.4,4.4-1.4
					c4.1,0,7.4,3.3,7.4,7.4V74.9z M337.8,66c0-2.4-2-4.4-4.4-4.4c-2.4,0-4.4,2-4.4,4.4v8.9c0,2.4,2,4.4,4.4,4.4c2.4,0,4.4-2,4.4-4.4
					V66z"/>
			</g>
		</g>
	</g>
</g>
</svg>
