<?xml version="1.0" encoding="utf-8"?>
<!-- Generator: Adobe Illustrator 22.0.0, SVG Export Plug-In . SVG Version: 6.00 Build 0)  -->
<svg version="1.1" id="Layer_1" xmlns="http://www.w3.org/2000/svg" xmlns:xlink="http://www.w3.org/1999/xlink" x="0px" y="0px"
	 viewBox="0 0 384.2 121.4" style="enable-background:new 0 0 384.2 121.4;" xml:space="preserve">
<style type="text/css">
	.st0{fill:#DA635A;}
	.st1{font-family:'OpenSans';}
	.st2{font-size:39.683px;}
	.st3{fill:#DD5361;}
	.st4{font-family:'Dense-Regular';}
	.st5{font-size:56.5633px;}
</style>
<g>
	<text id="XMLID_343_" transform="matrix(1 0 0 1 183.8111 43.6941)" class="st0 st1 st2">2012</text>
	<g id="XMLID_329_">
		<path id="XMLID_280_" class="st3" d="M100.7,64.8h229.7c5.7,0,11.1,2.8,14.3,7.6c3.9,5.8,10.5,9.5,18,9.3
			c10.9-0.3,19.9-9.2,20.4-20.1c0.5-12-9.1-21.9-21-21.9c-7.1,0-13.4,3.5-17.2,9c-3.4,4.8-8.7,7.9-14.5,7.9H100.7V64.8z"/>
	</g>
	<path class="st3" d="M103.2,18.4C79.8-5,41.9-5,18.5,18.4c-23.4,23.4-23.4,61.3,0,84.7c12.6,12.6,29.3,18.4,45.7,17.4
		c14.2-0.8,28.1-6.6,38.9-17.4c10.8-10.8,16.6-24.8,17.4-39C121.6,47.6,115.8,30.9,103.2,18.4z M89,88.9
		c-15.6,15.6-40.8,15.6-56.4,0c-15.6-15.6-15.6-40.8,0-56.4c15.6-15.6,40.8-15.6,56.4,0C104.6,48.1,104.6,73.3,89,88.9z"/>
	<text id="XMLID_325_" transform="matrix(1 0 0 1 44.8487 80.0252)" class="st0 st4 st5">01</text>
</g>
</svg>
