<?xml version="1.0" encoding="utf-8"?>
<!-- Generator: Adobe Illustrator 22.0.0, SVG Export Plug-In . SVG Version: 6.00 Build 0)  -->
<svg version="1.1" id="Layer_1" xmlns="http://www.w3.org/2000/svg" xmlns:xlink="http://www.w3.org/1999/xlink" x="0px" y="0px"
	 viewBox="0 0 384.2 121.4" style="enable-background:new 0 0 384.2 121.4;" xml:space="preserve">
<style type="text/css">
	.st0{fill:#DD5361;}
</style>
<g>
	<g>
		<path class="st0" d="M165.8,45.4h-16.4v-2.4l6.6-6.6c2-2,3.3-3.5,4-4.3c0.6-0.9,1.1-1.7,1.4-2.5c0.3-0.8,0.5-1.7,0.5-2.6
			c0-1.3-0.4-2.4-1.2-3.2c-0.8-0.8-1.9-1.2-3.4-1.2c-1,0-2,0.2-2.9,0.5s-2,1-3.1,1.9l-1.5-1.9c2.3-1.9,4.8-2.9,7.5-2.9
			c2.3,0,4.2,0.6,5.5,1.8s2,2.8,2,4.8c0,1.6-0.4,3.2-1.3,4.7c-0.9,1.5-2.6,3.5-5,5.9l-5.5,5.3v0.1h12.9V45.4z"/>
		<path class="st0" d="M185.9,32.8c0,4.3-0.7,7.5-2,9.7c-1.4,2.1-3.4,3.2-6.2,3.2c-2.7,0-4.7-1.1-6.1-3.3s-2.1-5.4-2.1-9.6
			c0-4.4,0.7-7.6,2-9.7c1.4-2.1,3.4-3.2,6.2-3.2c2.7,0,4.8,1.1,6.2,3.3C185.2,25.5,185.9,28.7,185.9,32.8z M172.2,32.8
			c0,3.6,0.4,6.3,1.3,7.9c0.9,1.7,2.2,2.5,4.1,2.5c1.9,0,3.3-0.8,4.1-2.5c0.8-1.7,1.3-4.3,1.3-7.9c0-3.6-0.4-6.2-1.3-7.9
			c-0.8-1.7-2.2-2.5-4.1-2.5c-1.9,0-3.2,0.8-4.1,2.5C172.7,26.6,172.2,29.2,172.2,32.8z"/>
		<path class="st0" d="M199.9,45.4h-2.8V27.6c0-1.5,0-2.9,0.1-4.2c-0.2,0.2-0.5,0.5-0.8,0.8c-0.3,0.3-1.7,1.4-4.1,3.3l-1.5-1.9
			l6.6-5.1h2.4V45.4z"/>
		<path class="st0" d="M209.7,34.7c0-4.9,1-8.6,2.9-11s4.7-3.6,8.5-3.6c1.3,0,2.3,0.1,3,0.3v2.4c-0.9-0.3-1.9-0.4-3-0.4
			c-2.7,0-4.7,0.8-6.1,2.5c-1.4,1.7-2.2,4.3-2.3,7.9h0.2c1.3-2,3.2-2.9,5.9-2.9c2.2,0,4,0.7,5.3,2c1.3,1.4,1.9,3.2,1.9,5.5
			c0,2.6-0.7,4.6-2.1,6.1c-1.4,1.5-3.3,2.2-5.8,2.2c-2.6,0-4.6-1-6.2-2.9C210.4,40.9,209.7,38.2,209.7,34.7z M218,43.3
			c1.6,0,2.9-0.5,3.8-1.5c0.9-1,1.3-2.5,1.3-4.4c0-1.7-0.4-3-1.2-3.9c-0.8-0.9-2.1-1.4-3.7-1.4c-1,0-2,0.2-2.8,0.6
			c-0.9,0.4-1.5,1-2,1.7c-0.5,0.7-0.8,1.5-0.8,2.3c0,1.2,0.2,2.3,0.7,3.3c0.5,1,1.1,1.8,1.9,2.4C216,43,217,43.3,218,43.3z"/>
		<path class="st0" d="M240.2,20.4l-9.3,25H228l9.3-25H240.2z"/>
		<path class="st0" d="M258.7,45.4h-16.4v-2.4l6.6-6.6c2-2,3.3-3.5,4-4.3c0.6-0.9,1.1-1.7,1.4-2.5c0.3-0.8,0.5-1.7,0.5-2.6
			c0-1.3-0.4-2.4-1.2-3.2c-0.8-0.8-1.9-1.2-3.4-1.2c-1,0-2,0.2-2.9,0.5s-2,1-3.1,1.9l-1.5-1.9c2.3-1.9,4.8-2.9,7.5-2.9
			c2.3,0,4.2,0.6,5.5,1.8s2,2.8,2,4.8c0,1.6-0.4,3.2-1.3,4.7c-0.9,1.5-2.6,3.5-5,5.9l-5.5,5.3v0.1h12.9V45.4z"/>
		<path class="st0" d="M278.8,32.8c0,4.3-0.7,7.5-2,9.7c-1.4,2.1-3.4,3.2-6.2,3.2c-2.7,0-4.7-1.1-6.1-3.3s-2.1-5.4-2.1-9.6
			c0-4.4,0.7-7.6,2-9.7c1.4-2.1,3.4-3.2,6.2-3.2c2.7,0,4.8,1.1,6.2,3.3C278.1,25.5,278.8,28.7,278.8,32.8z M265.1,32.8
			c0,3.6,0.4,6.3,1.3,7.9c0.9,1.7,2.2,2.5,4.1,2.5c1.9,0,3.3-0.8,4.1-2.5c0.8-1.7,1.3-4.3,1.3-7.9c0-3.6-0.4-6.2-1.3-7.9
			c-0.8-1.7-2.2-2.5-4.1-2.5c-1.9,0-3.2,0.8-4.1,2.5C265.6,26.6,265.1,29.2,265.1,32.8z"/>
		<path class="st0" d="M292.8,45.4H290V27.6c0-1.5,0-2.9,0.1-4.2c-0.2,0.2-0.5,0.5-0.8,0.8c-0.3,0.3-1.7,1.4-4.1,3.3l-1.5-1.9
			l6.6-5.1h2.4V45.4z"/>
		<path class="st0" d="M305.4,45.4L315.8,23h-13.6v-2.6h16.6v2.3l-10.2,22.7H305.4z"/>
	</g>
	<g>
		<g id="XMLID_352_">
			<path id="XMLID_283_" class="st0" d="M100.7,64.8h229.7c5.7,0,11.1,2.8,14.3,7.6c3.9,5.8,10.5,9.5,18,9.3
				c10.9-0.3,19.9-9.2,20.4-20.1c0.5-12-9.1-21.9-21-21.9c-7.1,0-13.4,3.5-17.2,9c-3.4,4.8-8.7,7.9-14.5,7.9H100.7V64.8z"/>
		</g>
		<path class="st0" d="M103.2,18.4C79.8-5,41.9-5,18.5,18.4c-23.4,23.4-23.4,61.3,0,84.7c12.6,12.6,29.3,18.4,45.7,17.4
			c14.2-0.8,28.1-6.6,38.9-17.4c10.8-10.8,16.6-24.8,17.4-39C121.6,47.6,115.8,30.9,103.2,18.4z M89,88.9
			c-15.6,15.6-40.8,15.6-56.4,0c-15.6-15.6-15.6-40.8,0-56.4c15.6-15.6,40.8-15.6,56.4,0C104.6,48.1,104.6,73.3,89,88.9z"/>
	</g>
	<g>
		<path class="st0" d="M41.8,48.5c0-4,3.2-7.2,7.2-7.2s7.2,3.2,7.2,7.2v24.9c0,4-3.2,7.2-7.2,7.2s-7.2-3.2-7.2-7.2V48.5z M44.7,73.4
			c0,2.3,1.9,4.2,4.2,4.2c2.3,0,4.2-1.9,4.2-4.2V48.5c0-2.3-1.9-4.2-4.2-4.2c-2.3,0-4.2,1.9-4.2,4.2V73.4z"/>
		<path class="st0" d="M64,44.8v12.6c1.2-0.9,2.8-1.4,4.4-1.4c4.1,0,7.4,3.3,7.4,7.4v9.9c0,4.1-3.3,7.4-7.4,7.4
			c-4.1,0-7.4-3.3-7.4-7.4v-3.5l2.9-0.3v3.8c0,2.4,2,4.4,4.4,4.4c2.4,0,4.4-2,4.4-4.4v-9.9c0-2.4-2-4.4-4.4-4.4
			c-2.1,0-4,1.6-4.4,3.7l-3-0.6V41.9h13.6v2.9H64z"/>
	</g>
</g>
</svg>
