<?xml version="1.0" encoding="utf-8"?>
<!-- Generator: Adobe Illustrator 22.0.0, SVG Export Plug-In . SVG Version: 6.00 Build 0)  -->
<svg version="1.1" id="Layer_1" xmlns="http://www.w3.org/2000/svg" xmlns:xlink="http://www.w3.org/1999/xlink" x="0px" y="0px"
	 viewBox="0 0 662 185.6" style="enable-background:new 0 0 662 185.6;" xml:space="preserve">
<style type="text/css">
	.st0{fill:#FF6B68;}
	.st1{clip-path:url(#SVGID_2_);}
	.st2{fill:#E6E7E8;}
	.st3{fill:#EC1C24;}
	.st4{fill:#FBE6EF;}
	.st5{fill:url(#SVGID_3_);}
	.st6{fill:none;}
	.st7{enable-background:new    ;}
	.st8{fill:#726658;}
	.st9{fill:#1E596D;}
	.st10{fill:#DED9D7;}
</style>
<g>
	<g>
		<path class="st0" d="M44.2,29.4c-4-22.6-36.6-22.6-40.7,0c-0.4,2-0.5,4.1-0.5,6.2c0,14.3,8.6,26.6,20.9,32
			c12.3-5.4,20.9-17.7,20.9-32C44.8,33.5,44.6,31.4,44.2,29.4z"/>
	</g>
	<g>
		<g>
			<defs>
				<path id="SVGID_1_" d="M40.2,33.2c0,8.4-6.3,15.3-14.5,16.2c-0.6,0.1-1.2,0.1-1.9,0.1c-9,0-16.3-7.3-16.3-16.3
					s7.3-16.3,16.3-16.3c0.6,0,1.3,0,1.9,0.1C33.9,17.9,40.2,24.8,40.2,33.2z"/>
			</defs>
			<clipPath id="SVGID_2_">
				<use xlink:href="#SVGID_1_"  style="overflow:visible;"/>
			</clipPath>
			<g class="st1">
				<g>
					<path class="st2" d="M47.6,47.4c0,1.2-1,2.2-2.2,2.2H2.5c-1.2,0-2.2-1-2.2-2.2V18.7c0-1.2,1-2.2,2.2-2.2h42.9
						c1.2,0,2.2,1,2.2,2.2C47.6,18.7,47.6,47.4,47.6,47.4z"/>
					<path class="st3" d="M2.5,16.5c-1.2,0-2.2,1-2.2,2.2v28.7c0,1.2,1,2.2,2.2,2.2h9.9V16.5H2.5z"/>
					<path class="st3" d="M47.6,47.4V18.7c0-1.2-1-2.2-2.2-2.2h-9.9v33.1h9.9C46.6,49.6,47.6,48.6,47.6,47.4z"/>
					<g>
						<path class="st4" d="M23.3,23.6c0,0-1.5,3-1.6,3.2c-0.3-0.1-2.1-1.1-2.1-1.1l0.1,0.4c1.4,4.7,1,5.1,0.9,5.2
							c-0.3,0.1-1.3-1-2.2-2.4l-0.3-0.5V29c0,0.5-0.1,0.8-0.4,1c-0.8,0.6-2.6-0.1-2.7-0.1l-0.4-0.1l0.2,0.4c0.9,1.8,0.9,2.6,0.6,2.9
							c-0.3,0.4-0.8,0.4-0.9,0.4l-0.1,0.3c3.6,1.8,4.4,3.2,4.5,4.1c0,0.8-0.6,1.3-0.6,1.3l0.1,0.3c0,0,4.1-0.9,4.5-1
							c0,0.4-0.3,4.6-0.3,4.6l0.8,0.1l0.8-0.1c0,0-0.3-4.3-0.3-4.7c0.4,0.1,4.5,1,4.5,1l0.1-0.3c0,0-0.7-0.5-0.6-1.3
							c0-0.8,0.9-2.2,4.5-4.1l-0.1-0.3c0,0-0.6,0-0.9-0.4c-0.2-0.4-0.3-1.2,0.6-2.9l0.2-0.4l-0.4,0.1c0,0-1.8,0.7-2.7,0.1
							c-0.3-0.2-0.4-0.5-0.4-1v-0.6l-0.3,0.5c-0.9,1.4-1.9,2.6-2.2,2.4c-0.1,0-0.5-0.5,0.9-5.2l0.1-0.4c0,0-1.8,1-2.1,1.1
							c-0.1-0.3-1.8-3.5-1.8-3.5L23.3,23.6z"/>
						<path class="st3" d="M32.4,33.6c0,0-2.4,0.2-0.4-3.6c0,0-3.3,1.2-3.3-1.1c0,0-4.6,7.3-1.6-2.9l-1.9,1l-1.7-3.4L21.8,27l-1.9-1
							c3,10.1-1.6,2.9-1.6,2.9c0,2.3-3.3,1.1-3.3,1.1c2,3.8-0.4,3.6-0.4,3.6c7,3.6,3.9,5.6,3.9,5.6l4.7-1l-0.3,4.7l0.6,0.1l0.6-0.1
							l-0.3-4.7l4.7,1C28.5,39.2,25.3,37.1,32.4,33.6z"/>
					</g>
				</g>
				
					<radialGradient id="SVGID_3_" cx="-971.953" cy="-1580.7111" r="8.0788" gradientTransform="matrix(1.0148 0 0 -1.0148 1010.3028 -1554.5055)" gradientUnits="userSpaceOnUse">
					<stop  offset="0" style="stop-color:#DDDFE0"/>
					<stop  offset="1" style="stop-color:#FFFFFF"/>
				</radialGradient>
				<polygon class="st5" points="12.4,49.6 35.6,49.6 35.6,49.6 				"/>
			</g>
		</g>
	</g>
</g>
<g id="XMLID_337_">
	<g id="XMLID_338_">
		<rect id="XMLID_11_" x="44.2" y="92.1" class="st6" width="218" height="148.5"/>
		<g class="st7">
			<path class="st8" d="M102.8,101.1c0,1.1-0.4,2-1.1,2.7c-0.8,0.8-1.7,1.1-2.7,1.1h-3.8V88.8H99c1.1,0,2,0.4,2.7,1.1
				c0.7,0.8,1.1,1.7,1.1,2.7V101.1z M97.6,102.6h1.5c0.4,0,0.7-0.1,1-0.4c0.3-0.3,0.4-0.6,0.4-1v-8.5c0-0.4-0.1-0.7-0.4-1
				c-0.3-0.3-0.6-0.4-1-0.4h-1.5V102.6z"/>
			<path class="st8" d="M107.4,105H105V88.8h2.4V105z"/>
			<path class="st8" d="M113.5,88.8c1.2,0,2.1,0.4,2.8,1.1c0.7,0.7,1,1.6,1,2.7V95c0,1.1-0.4,2-1.1,2.7c-0.7,0.8-1.6,1.1-2.7,1.1
				h-1.4v6.1h-2.4V88.8H113.5z M114.9,92.7c0-0.4-0.1-0.8-0.4-1c-0.3-0.3-0.6-0.4-1-0.4h-1.5v5.2h1.5c0.4,0,0.7-0.1,1-0.4
				c0.3-0.3,0.4-0.6,0.4-1V92.7z"/>
			<path class="st8" d="M125.9,105h-6.7V88.8h2.4v13.8h4.2V105z"/>
			<path class="st8" d="M131.5,88.6c1.1,0,2,0.4,2.8,1.1c0.8,0.8,1.1,1.7,1.1,2.7v8.9c0,1.1-0.4,2-1.1,2.8s-1.7,1.1-2.7,1.1
				c-1.1,0-2-0.4-2.7-1.1c-0.8-0.8-1.1-1.7-1.1-2.7v-8.9c0-1.1,0.4-2,1.1-2.8S130.4,88.6,131.5,88.6z M132.8,92.4
				c0-0.4-0.1-0.7-0.4-1c-0.3-0.3-0.6-0.4-1-0.4c-0.4,0-0.7,0.1-1,0.4c-0.3,0.3-0.4,0.6-0.4,1v8.9c0,0.4,0.1,0.7,0.4,1
				c0.3,0.3,0.6,0.4,1,0.4c0.4,0,0.7-0.1,1-0.4c0.3-0.3,0.4-0.6,0.4-1V92.4z"/>
			<path class="st8" d="M139.9,105h-2.4V88.8h3.5l2.3,11.6l2.2-11.6h3.4V105h-2.4V94.8l-2.1,10.2h-2l-2.4-10.2V105z"/>
			<path class="st8" d="M154,101.3l-0.6,3.7h-2.5l2.7-16.2h3.4l2.7,16.2h-2.6l-0.6-3.7H154z M155.3,92.5l-0.9,6.4h1.8L155.3,92.5z"
				/>
			<path class="st8" d="M165.5,105h-2.4V88.8h2.4V105z"/>
			<path class="st8" d="M170.5,88.8l3.2,10.9V88.8h2.4V105h-2.6l-3.4-10.4V105h-2.4V88.8H170.5z"/>
			<path class="st8" d="M182,105h-2.4V88.8h2.4V105z"/>
			<path class="st8" d="M186.9,88.8l3.2,10.9V88.8h2.4V105H190l-3.4-10.4V105h-2.4V88.8H186.9z"/>
			<path class="st8" d="M197.2,91.2h-2.6v-2.4h7.6v2.4h-2.6V105h-2.4V91.2z"/>
			<path class="st8" d="M204.2,105V88.8h7v2.4h-4.5v4.4h3.3v2.4h-3.3v4.4h4.5v2.4H204.2z"/>
			<path class="st8" d="M216.7,88.8c1.4,0,2.4,0.4,3,1.1c0.6,0.7,0.8,1.6,0.8,2.7V95c0,1.2-0.4,2.1-1.3,2.9l1.8,7.1h-2.6l-1.5-6.1
				c-0.1,0-0.1,0-0.2,0h-1.4v6.1h-2.4V88.8H216.7z M218.1,92.7c0-0.9-0.5-1.4-1.4-1.4h-1.5v5.2h1.5c0.4,0,0.7-0.1,1-0.4
				c0.3-0.3,0.4-0.6,0.4-1V92.7z"/>
			<path class="st8" d="M226.1,101.3l-0.6,3.7H223l2.7-16.2h3.4l2.7,16.2h-2.6l-0.6-3.7H226.1z M227.4,92.5l-0.9,6.4h1.8L227.4,92.5
				z"/>
			<path class="st8" d="M237.4,105.2c-1.1,0-2-0.4-2.7-1.1c-0.8-0.8-1.1-1.7-1.1-2.7v-8.9c0-1.1,0.4-2,1.1-2.7s1.7-1.1,2.7-1.1
				c1.1,0,2,0.4,2.7,1.1c0.8,0.8,1.1,1.7,1.1,2.7v1.9h-2.5v-1.9c0-0.4-0.1-0.7-0.4-1s-0.6-0.4-1-0.4c-0.4,0-0.7,0.1-1,0.4
				c-0.3,0.3-0.4,0.6-0.4,1v8.9c0,0.4,0.1,0.7,0.4,1c0.3,0.3,0.6,0.4,1,0.4c0.4,0,0.7-0.1,1-0.4c0.3-0.3,0.4-0.6,0.4-1v-2.2h2.5v2.3
				c0,1.1-0.4,2-1.1,2.7S238.4,105.2,237.4,105.2z"/>
			<path class="st8" d="M245.5,91.2h-2.6v-2.4h7.6v2.4H248V105h-2.4V91.2z"/>
			<path class="st8" d="M255,105h-2.4V88.8h2.4V105z"/>
			<path class="st8" d="M259.9,105L257,88.8h2.6l2,12.6l2.1-12.6h2.6l-2.9,16.2H259.9z"/>
			<path class="st8" d="M268.3,105V88.8h7v2.4h-4.5v4.4h3.3v2.4h-3.3v4.4h4.5v2.4H268.3z"/>
		</g>
		<g class="st7">
			<path class="st8" d="M62.5,126.9H60v-16.2h3.5l2.3,11.6l2.2-11.6h3.4v16.2h-2.4v-10.2l-2.1,10.2h-2l-2.4-10.2V126.9z"/>
			<path class="st8" d="M73.6,126.9v-16.2h7v2.4H76v4.4h3.3v2.4H76v4.4h4.5v2.4H73.6z"/>
			<path class="st8" d="M89.9,123c0,1.1-0.4,2-1.1,2.7c-0.8,0.8-1.7,1.1-2.7,1.1h-3.8v-16.2h3.8c1.1,0,2,0.4,2.7,1.1
				c0.7,0.8,1.1,1.7,1.1,2.7V123z M84.7,124.5h1.5c0.4,0,0.7-0.1,1-0.4c0.3-0.3,0.4-0.6,0.4-1v-8.5c0-0.4-0.1-0.7-0.4-1
				c-0.3-0.3-0.6-0.4-1-0.4h-1.5V124.5z"/>
			<path class="st8" d="M94.5,126.9h-2.4v-16.2h2.4V126.9z"/>
			<path class="st8" d="M99.7,123.2l-0.6,3.7h-2.5l2.7-16.2h3.4l2.7,16.2h-2.6l-0.6-3.7H99.7z M101,114.4l-0.9,6.4h1.8L101,114.4z"
				/>
			<path class="st8" d="M116.5,123c0,1.1-0.4,2-1.1,2.7c-0.8,0.8-1.7,1.1-2.7,1.1h-3.8v-16.2h3.8c1.1,0,2,0.4,2.7,1.1
				c0.7,0.8,1.1,1.7,1.1,2.7V123z M111.2,124.5h1.5c0.4,0,0.7-0.1,1-0.4c0.3-0.3,0.4-0.6,0.4-1v-8.5c0-0.4-0.1-0.7-0.4-1
				c-0.3-0.3-0.6-0.4-1-0.4h-1.5V124.5z"/>
			<path class="st8" d="M118.6,126.9v-16.2h7v2.4H121v4.4h3.3v2.4H121v4.4h4.5v2.4H118.6z"/>
			<path class="st8" d="M135.3,122.9c0,1.1-0.3,2.1-0.9,2.9c-0.4,0.5-1,0.9-1.7,1.1c-0.4,0.1-0.8,0.2-1.4,0.2c-1,0-1.8-0.2-2.4-0.7
				c-0.5-0.4-0.9-0.9-1.2-1.6c-0.3-0.7-0.5-1.4-0.5-2.3l2.3-0.2c0.1,0.9,0.4,1.6,0.8,2c0.3,0.3,0.6,0.5,1,0.5c0.5,0,1-0.3,1.3-0.8
				c0.2-0.3,0.2-0.6,0.2-1.1c0-0.7-0.3-1.4-0.9-2c-0.5-0.5-1.2-1.1-2.2-2.1c-0.8-0.8-1.4-1.5-1.7-2.1c-0.4-0.7-0.5-1.5-0.5-2.3
				c0-1.5,0.5-2.6,1.5-3.4c0.6-0.5,1.4-0.7,2.3-0.7c0.9,0,1.6,0.2,2.2,0.6c0.5,0.3,0.9,0.7,1.2,1.3s0.5,1.2,0.5,1.9l-2.3,0.4
				c-0.1-0.7-0.3-1.2-0.6-1.5c-0.2-0.3-0.5-0.4-1-0.4c-0.4,0-0.8,0.2-1,0.6c-0.2,0.3-0.3,0.7-0.3,1.2c0,0.7,0.3,1.5,1,2.3
				c0.2,0.3,0.6,0.6,1.1,1c0.6,0.5,0.9,0.8,1.1,1c0.6,0.6,1.1,1.2,1.4,1.8c0.2,0.3,0.3,0.5,0.4,0.8
				C135.2,121.9,135.3,122.4,135.3,122.9z"/>
			<path class="st8" d="M139.8,126.9h-2.4v-16.2h2.4V126.9z"/>
			<path class="st8" d="M145.8,127.1c-1.1,0-2-0.4-2.7-1.1c-0.8-0.8-1.1-1.7-1.1-2.7v-8.9c0-1.1,0.4-2,1.1-2.7s1.7-1.1,2.7-1.1
				c1.1,0,2,0.4,2.7,1.1c0.8,0.8,1.1,1.7,1.1,2.7v1.9h-2.5v-1.9c0-0.4-0.1-0.7-0.4-1s-0.6-0.4-1-0.4c-0.4,0-0.7,0.1-1,0.4
				c-0.3,0.3-0.4,0.6-0.4,1v8.9c0,0.4,0.1,0.7,0.4,1c0.3,0.3,0.6,0.4,1,0.4c0.4,0,0.7-0.1,1-0.4c0.3-0.3,0.4-0.6,0.4-1V120h-1.4
				v-2.4h3.9v5.7c0,1.1-0.4,2-1.1,2.7S146.9,127.1,145.8,127.1z"/>
			<path class="st8" d="M154.6,110.7l3.2,10.9v-10.9h2.4v16.2h-2.6l-3.4-10.4v10.4h-2.4v-16.2H154.6z"/>
			<path class="st8" d="M166.8,123.2l-0.6,3.7h-2.5l2.7-16.2h3.4l2.7,16.2h-2.6l-0.6-3.7H166.8z M168.1,114.4l-0.9,6.4h1.8
				L168.1,114.4z"/>
			<path class="st8" d="M174.8,113.1h-2.6v-2.4h7.6v2.4h-2.6v13.8h-2.4V113.1z"/>
			<path class="st8" d="M185.7,126.9h-2.4v-16.2h7v2.4h-4.5v4.4h3.3v2.4h-3.3V126.9z"/>
			<path class="st8" d="M193,123.2l-0.6,3.7h-2.5l2.7-16.2h3.4l2.7,16.2h-2.6l-0.6-3.7H193z M194.3,114.4l-0.9,6.4h1.8L194.3,114.4z
				"/>
			<path class="st8" d="M203.5,110.7l3.2,10.9v-10.9h2.4v16.2h-2.6l-3.4-10.4v10.4h-2.4v-16.2H203.5z"/>
			<path class="st8" d="M219.3,122.9c0,1.1-0.3,2.1-0.9,2.9c-0.4,0.5-1,0.9-1.7,1.1c-0.4,0.1-0.8,0.2-1.4,0.2c-1,0-1.8-0.2-2.4-0.7
				c-0.5-0.4-0.9-0.9-1.2-1.6c-0.3-0.7-0.5-1.4-0.5-2.3l2.3-0.2c0.1,0.9,0.4,1.6,0.8,2c0.3,0.3,0.6,0.5,1,0.5c0.5,0,1-0.3,1.3-0.8
				c0.2-0.3,0.2-0.6,0.2-1.1c0-0.7-0.3-1.4-0.9-2c-0.5-0.5-1.2-1.1-2.2-2.1c-0.8-0.8-1.4-1.5-1.7-2.1c-0.4-0.7-0.5-1.5-0.5-2.3
				c0-1.5,0.5-2.6,1.5-3.4c0.6-0.5,1.4-0.7,2.3-0.7c0.9,0,1.6,0.2,2.2,0.6c0.5,0.3,0.9,0.7,1.2,1.3s0.5,1.2,0.5,1.9l-2.3,0.4
				c-0.1-0.7-0.3-1.2-0.6-1.5c-0.2-0.3-0.5-0.4-1-0.4c-0.4,0-0.8,0.2-1,0.6c-0.2,0.3-0.3,0.7-0.3,1.2c0,0.7,0.3,1.5,1,2.3
				c0.2,0.3,0.6,0.6,1.1,1c0.6,0.5,0.9,0.8,1.1,1c0.6,0.6,1.1,1.2,1.4,1.8c0.2,0.3,0.3,0.5,0.4,0.8
				C219.2,121.9,219.3,122.4,219.3,122.9z"/>
			<path class="st8" d="M223.8,120v6.9h-2.4v-16.2h2.4v6.9h2.9v-6.9h2.4v16.2h-2.4V120H223.8z"/>
			<path class="st8" d="M234.4,123.2l-0.6,3.7h-2.5l2.7-16.2h3.4l2.7,16.2h-2.6l-0.6-3.7H234.4z M235.7,114.4l-0.9,6.4h1.8
				L235.7,114.4z"/>
			<path class="st8" d="M249.6,110.7h2.6l-2.5,16.2h-2.3l-1.4-8.9l-1.3,8.9h-2.3l-2.7-16.2h2.6l1.3,8.7l1.2-8.7h2.6l1.3,8.7
				L249.6,110.7z"/>
			<path class="st8" d="M254.3,126.9v-16.2h7v2.4h-4.5v4.4h3.3v2.4h-3.3v4.4h4.5v2.4H254.3z"/>
		</g>
		<g class="st7">
			<path class="st8" d="M108.4,148.9c-1.1,0-2-0.4-2.7-1.1c-0.8-0.8-1.1-1.7-1.1-2.7v-8.9c0-1.1,0.4-2,1.1-2.7s1.7-1.1,2.7-1.1
				c1.1,0,2,0.4,2.7,1.1c0.8,0.8,1.1,1.7,1.1,2.7v1.9h-2.5v-1.9c0-0.4-0.1-0.7-0.4-1s-0.6-0.4-1-0.4c-0.4,0-0.7,0.1-1,0.4
				c-0.3,0.3-0.4,0.6-0.4,1v8.9c0,0.4,0.1,0.7,0.4,1c0.3,0.3,0.6,0.4,1,0.4c0.4,0,0.7-0.1,1-0.4c0.3-0.3,0.4-0.6,0.4-1v-2.2h2.5v2.3
				c0,1.1-0.4,2-1.1,2.7S109.5,148.9,108.4,148.9z"/>
			<path class="st8" d="M118.1,132.3c1.1,0,2,0.4,2.8,1.1c0.8,0.8,1.1,1.7,1.1,2.7v8.9c0,1.1-0.4,2-1.1,2.8s-1.7,1.1-2.7,1.1
				c-1.1,0-2-0.4-2.7-1.1c-0.8-0.8-1.1-1.7-1.1-2.7v-8.9c0-1.1,0.4-2,1.1-2.8S117.1,132.3,118.1,132.3z M119.5,136.1
				c0-0.4-0.1-0.7-0.4-1c-0.3-0.3-0.6-0.4-1-0.4c-0.4,0-0.7,0.1-1,0.4c-0.3,0.3-0.4,0.6-0.4,1v8.9c0,0.4,0.1,0.7,0.4,1
				c0.3,0.3,0.6,0.4,1,0.4c0.4,0,0.7-0.1,1-0.4c0.3-0.3,0.4-0.6,0.4-1V136.1z"/>
			<path class="st8" d="M130.8,148.7h-6.7v-16.2h2.4v13.8h4.2V148.7z"/>
			<path class="st8" d="M139.2,148.7h-6.7v-16.2h2.4v13.8h4.2V148.7z"/>
			<path class="st8" d="M140.9,148.7v-16.2h7v2.4h-4.5v4.4h3.3v2.4h-3.3v4.4h4.5v2.4H140.9z"/>
			<path class="st8" d="M153.4,148.9c-1.1,0-2-0.4-2.7-1.1c-0.8-0.8-1.1-1.7-1.1-2.7v-8.9c0-1.1,0.4-2,1.1-2.7s1.7-1.1,2.7-1.1
				c1.1,0,2,0.4,2.7,1.1c0.8,0.8,1.1,1.7,1.1,2.7v1.9h-2.5v-1.9c0-0.4-0.1-0.7-0.4-1s-0.6-0.4-1-0.4c-0.4,0-0.7,0.1-1,0.4
				c-0.3,0.3-0.4,0.6-0.4,1v8.9c0,0.4,0.1,0.7,0.4,1c0.3,0.3,0.6,0.4,1,0.4c0.4,0,0.7-0.1,1-0.4c0.3-0.3,0.4-0.6,0.4-1v-3.2h-1.4
				v-2.4h3.9v5.7c0,1.1-0.4,2-1.1,2.7S154.5,148.9,153.4,148.9z"/>
			<path class="st8" d="M159.4,148.7v-16.2h7v2.4h-4.5v4.4h3.3v2.4h-3.3v4.4h4.5v2.4H159.4z"/>
			<path class="st8" d="M168,148.7v-2.4h2.4v2.4l-0.9,1.9h-1l0.6-1.9H168z"/>
			<path class="st8" d="M180.5,148.7h-6.7v-16.2h2.4v13.8h4.2V148.7z"/>
			<path class="st8" d="M186,132.3c1.1,0,2,0.4,2.8,1.1c0.8,0.8,1.1,1.7,1.1,2.7v8.9c0,1.1-0.4,2-1.1,2.8s-1.7,1.1-2.7,1.1
				c-1.1,0-2-0.4-2.7-1.1c-0.8-0.8-1.1-1.7-1.1-2.7v-8.9c0-1.1,0.4-2,1.1-2.8S185,132.3,186,132.3z M187.4,136.1
				c0-0.4-0.1-0.7-0.4-1c-0.3-0.3-0.6-0.4-1-0.4c-0.4,0-0.7,0.1-1,0.4c-0.3,0.3-0.4,0.6-0.4,1v8.9c0,0.4,0.1,0.7,0.4,1
				c0.3,0.3,0.6,0.4,1,0.4c0.4,0,0.7-0.1,1-0.4c0.3-0.3,0.4-0.6,0.4-1V136.1z"/>
			<path class="st8" d="M194.8,132.5l3.2,10.9v-10.9h2.4v16.2h-2.6l-3.4-10.4v10.4h-2.4v-16.2H194.8z"/>
			<path class="st8" d="M210.4,144.8c0,1.1-0.4,2-1.1,2.7c-0.8,0.8-1.7,1.1-2.7,1.1h-3.8v-16.2h3.8c1.1,0,2,0.4,2.7,1.1
				c0.7,0.8,1.1,1.7,1.1,2.7V144.8z M205.2,146.3h1.5c0.4,0,0.7-0.1,1-0.4c0.3-0.3,0.4-0.6,0.4-1v-8.5c0-0.4-0.1-0.7-0.4-1
				c-0.3-0.3-0.6-0.4-1-0.4h-1.5V146.3z"/>
			<path class="st8" d="M216.4,132.3c1.1,0,2,0.4,2.8,1.1c0.8,0.8,1.1,1.7,1.1,2.7v8.9c0,1.1-0.4,2-1.1,2.8s-1.7,1.1-2.7,1.1
				c-1.1,0-2-0.4-2.7-1.1c-0.8-0.8-1.1-1.7-1.1-2.7v-8.9c0-1.1,0.4-2,1.1-2.8S215.3,132.3,216.4,132.3z M217.7,136.1
				c0-0.4-0.1-0.7-0.4-1c-0.3-0.3-0.6-0.4-1-0.4c-0.4,0-0.7,0.1-1,0.4c-0.3,0.3-0.4,0.6-0.4,1v8.9c0,0.4,0.1,0.7,0.4,1
				c0.3,0.3,0.6,0.4,1,0.4c0.4,0,0.7-0.1,1-0.4c0.3-0.3,0.4-0.6,0.4-1V136.1z"/>
			<path class="st8" d="M225.1,132.5l3.2,10.9v-10.9h2.4v16.2h-2.6l-3.4-10.4v10.4h-2.4v-16.2H225.1z"/>
			<path class="st8" d="M232.5,148.7v-2.4h2.4v2.4l-0.9,1.9h-1l0.6-1.9H232.5z"/>
			<path class="st8" d="M242.2,132.3c1.1,0,2,0.4,2.8,1.1c0.8,0.8,1.1,1.7,1.1,2.7v8.9c0,1.1-0.4,2-1.1,2.8s-1.7,1.1-2.7,1.1
				c-1.1,0-2-0.4-2.7-1.1c-0.8-0.8-1.1-1.7-1.1-2.7v-8.9c0-1.1,0.4-2,1.1-2.8S241.1,132.3,242.2,132.3z M243.5,136.1
				c0-0.4-0.1-0.7-0.4-1c-0.3-0.3-0.6-0.4-1-0.4c-0.4,0-0.7,0.1-1,0.4c-0.3,0.3-0.4,0.6-0.4,1v8.9c0,0.4,0.1,0.7,0.4,1
				c0.3,0.3,0.6,0.4,1,0.4c0.4,0,0.7-0.1,1-0.4c0.3-0.3,0.4-0.6,0.4-1V136.1z"/>
			<path class="st8" d="M251,132.5l3.2,10.9v-10.9h2.4v16.2H254l-3.4-10.4v10.4h-2.4v-16.2H251z"/>
			<path class="st8" d="M258.3,146.3h2.4v2.4h-2.4V146.3z"/>
		</g>
	</g>
</g>
<g class="st7">
	<path class="st9" d="M58.7,66.6v-28h2.2v28H58.7z"/>
	<path class="st9" d="M65,38.6h2.6l6.6,21.2h0.1V38.6h2.2v28h-2.2l-7.1-22.4h-0.1v22.4H65V38.6z"/>
	<path class="st9" d="M89.2,40.7h-3.9v25.8h-2.2V40.7h-3.9v-2.2h10V40.7z"/>
	<path class="st9" d="M94.3,40.7v10.7h5v2.2h-5v10.7h7.1v2.2h-9.3v-28h9v2.2H94.3z"/>
	<path class="st9" d="M114.9,66.6h-2.2v-9.3c0-2-1.6-3.6-3.6-3.6h-2.6v12.9h-2.2v-28h4.8c3.2,0,5.8,2.6,5.8,5.8v3.4
		c0,1.9-1,3.7-2.4,4.7c1.5,1.1,2.4,2.8,2.4,4.7V66.6z M109.1,51.5c2,0,3.6-1.6,3.6-3.6v-3.4c0-2-1.6-3.6-3.6-3.6h-2.6v10.7H109.1z"
		/>
	<path class="st9" d="M129.3,66.6h-2.2l-1.1-7.2h-5.7l-1.1,7.2h-2.2l4.3-28h3.6L129.3,66.6z M120.6,57.2h5L123.2,41h-0.1L120.6,57.2
		z"/>
	<path class="st9" d="M140.3,47.9v-4.4c0-1.8-1.5-3.2-3.2-3.2s-3.2,1.5-3.2,3.2v18c0,1.8,1.5,3.2,3.2,3.2s3.2-1.5,3.2-3.2v-3.8h2.2
		v3.8c0,3-2.4,5.4-5.4,5.4c-3,0-5.4-2.4-5.4-5.4v-18c0-3,2.4-5.4,5.4-5.4c3,0,5.4,2.4,5.4,5.4v4.1L140.3,47.9z"/>
	<path class="st9" d="M154.6,40.7h-3.9v25.8h-2.2V40.7h-3.9v-2.2h10V40.7z"/>
	<path class="st9" d="M157.5,66.6v-28h2.2v28H157.5z"/>
	<path class="st9" d="M172.3,38.6h2.2l-4.3,28h-3.6l-4.3-28h2.2l3.9,25.6h0.1L172.3,38.6z"/>
	<path class="st9" d="M179.2,40.7v10.7h5v2.2h-5v10.7h7.1v2.2H177v-28h9v2.2H179.2z"/>
	<path class="st9" d="M203.9,66.6h-2.4L197,43.1h-0.1v23.5h-2.2v-28h3.2l4.6,24.7h0.1l4.6-24.7h3.3v28h-2.2V42.9h-0.1L203.9,66.6z"
		/>
	<path class="st9" d="M216.9,40.7v10.7h5v2.2h-5v10.7h7.1v2.2h-9.3v-28h9v2.2H216.9z"/>
	<path class="st9" d="M237.7,60.7c0,3.2-2.6,5.8-5.8,5.8h-5v-28h5c3.2,0,5.8,2.6,5.8,5.8V60.7z M235.6,44.4c0-2-1.6-3.6-3.6-3.6
		h-2.8v23.7h2.8c2,0,3.6-1.6,3.6-3.7V44.4z"/>
	<path class="st9" d="M241.6,66.6v-28h2.2v28H241.6z"/>
	<path class="st9" d="M258.6,66.6h-2.2l-1.1-7.2h-5.7l-1.1,7.2h-2.2l4.3-28h3.6L258.6,66.6z M249.9,57.2h5L252.5,41h-0.1L249.9,57.2
		z"/>
</g>
<rect id="XMLID_333_" x="56.6" y="73.5" class="st10" width="205.6" height="6.4"/>
<g>
	<path class="st9" d="M644.9,17.9c-23.4-23.4-61.3-23.4-84.7,0s-23.4,61.3,0,84.7c12.6,12.6,29.3,18.4,45.7,17.4
		c14.2-0.8,28.1-6.6,38.9-17.4c10.8-10.8,16.6-24.8,17.4-39C663.3,47.2,657.5,30.5,644.9,17.9z M630.8,88.4
		c-15.6,15.6-40.8,15.6-56.4,0c-15.6-15.6-15.6-40.8,0-56.4s40.8-15.6,56.4,0C646.3,47.6,646.3,72.9,630.8,88.4z"/>
	<g>
		<g id="XMLID_353_">
			<path id="XMLID_285_" class="st9" d="M562.5,56.1H332.7c-5.7,0-11.1-2.8-14.3-7.6c-3.9-5.8-10.5-9.5-18-9.3
				c-10.9,0.3-19.9,9.2-20.4,20.1c-0.5,12,9.1,21.9,21,21.9c7.1,0,13.4-3.5,17.2-9c3.4-4.8,8.7-7.9,14.5-7.9h229.7L562.5,56.1
				L562.5,56.1z"/>
		</g>
		<g>
			<g>
				<path class="st9" d="M366.2,44.5h-16.4v-2.4l6.6-6.6c2-2,3.3-3.5,4-4.3c0.6-0.9,1.1-1.7,1.4-2.5s0.5-1.7,0.5-2.6
					c0-1.3-0.4-2.4-1.2-3.2c-0.8-0.8-1.9-1.2-3.4-1.2c-1,0-2,0.2-2.9,0.5s-2,1-3.1,1.9l-1.5-1.9c2.3-1.9,4.8-2.9,7.5-2.9
					c2.3,0,4.2,0.6,5.5,1.8s2,2.8,2,4.8c0,1.6-0.4,3.2-1.3,4.7s-2.6,3.5-5,5.9l-5.5,5.3v0.1h12.9v2.6H366.2z"/>
				<path class="st9" d="M386.4,32c0,4.3-0.7,7.5-2,9.7c-1.4,2.1-3.4,3.2-6.2,3.2c-2.7,0-4.7-1.1-6.1-3.3S370,36.2,370,32
					c0-4.4,0.7-7.6,2-9.7c1.4-2.1,3.4-3.2,6.2-3.2c2.7,0,4.8,1.1,6.2,3.3C385.7,24.6,386.4,27.8,386.4,32z M372.7,32
					c0,3.6,0.4,6.3,1.3,7.9c0.9,1.7,2.2,2.5,4.1,2.5s3.3-0.8,4.1-2.5c0.8-1.7,1.3-4.3,1.3-7.9s-0.4-6.2-1.3-7.9
					c-0.8-1.7-2.2-2.5-4.1-2.5s-3.2,0.8-4.1,2.5C373.1,25.7,372.7,28.4,372.7,32z"/>
				<path class="st9" d="M400.3,44.5h-2.8V26.7c0-1.5,0-2.9,0.1-4.2c-0.2,0.2-0.5,0.5-0.8,0.8s-1.7,1.4-4.1,3.3l-1.5-1.9l6.6-5.1
					h2.4L400.3,44.5L400.3,44.5z"/>
				<path class="st9" d="M418.1,19.2c2.3,0,4.1,0.5,5.4,1.6s2,2.5,2,4.4c0,1.2-0.4,2.4-1.1,3.4c-0.8,1-2,1.9-3.7,2.8
					c2,1,3.5,2,4.3,3.1s1.3,2.3,1.3,3.7c0,2.1-0.7,3.7-2.2,5c-1.4,1.2-3.4,1.9-5.9,1.9c-2.7,0-4.7-0.6-6.2-1.8
					c-1.4-1.2-2.2-2.8-2.2-5c0-2.9,1.7-5.1,5.2-6.7c-1.6-0.9-2.7-1.8-3.4-2.9c-0.7-1-1-2.2-1-3.5c0-1.8,0.7-3.3,2-4.3
					C414.1,19.7,415.9,19.2,418.1,19.2z M412.7,38.2c0,1.4,0.5,2.4,1.4,3.2c1,0.8,2.3,1.1,4,1.1s3-0.4,4-1.2
					c0.9-0.8,1.4-1.9,1.4-3.3c0-1.1-0.4-2.1-1.3-2.9s-2.4-1.7-4.6-2.5c-1.7,0.7-2.9,1.5-3.7,2.4C413.1,35.9,412.7,37,412.7,38.2z
					 M418.1,21.5c-1.4,0-2.5,0.3-3.3,1s-1.2,1.6-1.2,2.7c0,1,0.3,1.9,1,2.7c0.7,0.8,1.9,1.5,3.7,2.3c1.6-0.7,2.8-1.4,3.5-2.2
					c0.7-0.8,1-1.7,1-2.8c0-1.2-0.4-2.1-1.2-2.7C420.6,21.8,419.5,21.5,418.1,21.5z"/>
				<path class="st9" d="M440.6,19.5l-9.3,25h-2.8l9.3-25H440.6z"/>
				<path class="st9" d="M459.1,44.5h-16.4v-2.4l6.6-6.6c2-2,3.3-3.5,4-4.3c0.6-0.9,1.1-1.7,1.4-2.5s0.5-1.7,0.5-2.6
					c0-1.3-0.4-2.4-1.2-3.2c-0.8-0.8-1.9-1.2-3.4-1.2c-1,0-2,0.2-2.9,0.5s-2,1-3.1,1.9L443,22c2.3-1.9,4.8-2.9,7.5-2.9
					c2.3,0,4.2,0.6,5.5,1.8s2,2.8,2,4.8c0,1.6-0.4,3.2-1.3,4.7s-2.6,3.5-5,5.9l-5.5,5.3v0.1h12.9V44.5z"/>
				<path class="st9" d="M479.3,32c0,4.3-0.7,7.5-2,9.7c-1.4,2.1-3.4,3.2-6.2,3.2c-2.7,0-4.7-1.1-6.1-3.3s-2.1-5.4-2.1-9.6
					c0-4.4,0.7-7.6,2-9.7c1.4-2.1,3.4-3.2,6.2-3.2c2.7,0,4.8,1.1,6.2,3.3C478.6,24.6,479.3,27.8,479.3,32z M465.6,32
					c0,3.6,0.4,6.3,1.3,7.9c0.9,1.7,2.2,2.5,4.1,2.5s3.3-0.8,4.1-2.5c0.8-1.7,1.3-4.3,1.3-7.9s-0.4-6.2-1.3-7.9
					c-0.8-1.7-2.2-2.5-4.1-2.5s-3.2,0.8-4.1,2.5C466,25.7,465.6,28.4,465.6,32z"/>
				<path class="st9" d="M493.2,44.5h-2.8V26.7c0-1.5,0-2.9,0.1-4.2c-0.2,0.2-0.5,0.5-0.8,0.8s-1.7,1.4-4.1,3.3l-1.5-1.9l6.6-5.1
					h2.4L493.2,44.5L493.2,44.5z"/>
				<path class="st9" d="M519.2,30.2c0,9.8-3.8,14.7-11.3,14.7c-1.3,0-2.4-0.1-3.1-0.3v-2.4c0.9,0.3,1.9,0.4,3.1,0.4
					c2.7,0,4.8-0.8,6.2-2.5s2.2-4.3,2.3-7.8H516c-0.6,0.9-1.5,1.7-2.5,2.2s-2.2,0.7-3.5,0.7c-2.2,0-4-0.7-5.3-2s-1.9-3.2-1.9-5.5
					c0-2.6,0.7-4.6,2.2-6.2c1.5-1.5,3.4-2.3,5.7-2.3c1.7,0,3.2,0.4,4.5,1.3c1.3,0.9,2.2,2.1,2.9,3.8S519.2,27.9,519.2,30.2z
					 M510.7,21.6c-1.6,0-2.9,0.5-3.8,1.6c-0.9,1-1.3,2.5-1.3,4.4c0,1.6,0.4,2.9,1.2,3.9c0.8,0.9,2.1,1.4,3.7,1.4c1,0,2-0.2,2.9-0.6
					c0.9-0.4,1.6-1,2.1-1.7s0.8-1.5,0.8-2.3c0-1.2-0.2-2.3-0.7-3.3s-1.1-1.8-2-2.4C512.8,21.9,511.8,21.6,510.7,21.6z"/>
			</g>
			<g>
				<path class="st9" d="M585.5,49.7c0-4,3.2-7.2,7.2-7.2s7.2,3.2,7.2,7.2v24.9c0,4-3.2,7.2-7.2,7.2s-7.2-3.2-7.2-7.2V49.7z
					 M588.4,74.6c0,2.3,1.9,4.2,4.2,4.2s4.2-1.9,4.2-4.2V49.7c0-2.3-1.9-4.2-4.2-4.2s-4.2,1.9-4.2,4.2V74.6z"/>
				<path class="st9" d="M619.9,74.4c0,4.1-3.3,7.4-7.4,7.4c-4.1,0-7.4-3.3-7.4-7.4V49.8c0-4.1,3.3-7.4,7.4-7.4
					c4.1,0,7.4,3.3,7.4,7.4V53l-2.9,0.3v-3.5c0-2.4-2-4.4-4.4-4.4s-4.4,2-4.4,4.4v9.8c1.2-0.9,2.8-1.4,4.4-1.4
					c4.1,0,7.4,3.3,7.4,7.4L619.9,74.4L619.9,74.4z M616.9,65.6c0-2.4-2-4.4-4.4-4.4s-4.4,2-4.4,4.4v8.9c0,2.4,2,4.4,4.4,4.4
					s4.4-2,4.4-4.4V65.6z"/>
			</g>
		</g>
	</g>
</g>
</svg>
