<?xml version="1.0" encoding="utf-8"?>
<!-- Generator: Adobe Illustrator 22.0.0, SVG Export Plug-In . SVG Version: 6.00 Build 0)  -->
<svg version="1.1" id="Layer_1" xmlns="http://www.w3.org/2000/svg" xmlns:xlink="http://www.w3.org/1999/xlink" x="0px" y="0px"
	 viewBox="0 0 384.2 121.4" style="enable-background:new 0 0 384.2 121.4;" xml:space="preserve">
<style type="text/css">
	.st0{fill:#51C0C0;}
</style>
<g>
	<g>
		<path class="st0" d="M128.7,44.7h-18.6v-2.8l7.5-7.5c2.3-2.3,3.8-3.9,4.5-4.9c0.7-1,1.3-1.9,1.6-2.9c0.4-0.9,0.5-1.9,0.5-3
			c0-1.5-0.5-2.7-1.4-3.6c-0.9-0.9-2.2-1.3-3.8-1.3c-1.2,0-2.3,0.2-3.3,0.6c-1.1,0.4-2.2,1.1-3.5,2.1l-1.7-2.2
			C113,17,115.9,16,119,16c2.7,0,4.7,0.7,6.3,2c1.5,1.4,2.3,3.2,2.3,5.5c0,1.8-0.5,3.6-1.5,5.3s-2.9,4-5.7,6.7l-6.2,6.1v0.2h14.6
			V44.7z"/>
		<path class="st0" d="M151.5,30.5c0,4.9-0.8,8.6-2.3,11c-1.5,2.4-3.9,3.6-7.1,3.6c-3,0-5.4-1.2-7-3.7s-2.4-6.1-2.4-10.9
			c0-4.9,0.8-8.6,2.3-11c1.5-2.4,3.9-3.6,7-3.6c3.1,0,5.4,1.2,7,3.7S151.5,25.8,151.5,30.5z M136.1,30.5c0,4.1,0.5,7.1,1.5,9
			c1,1.9,2.5,2.8,4.6,2.8c2.1,0,3.7-1,4.7-2.9c1-1.9,1.4-4.9,1.4-9s-0.5-7-1.4-8.9c-1-1.9-2.5-2.8-4.7-2.8c-2.1,0-3.7,0.9-4.6,2.8
			C136.5,23.4,136.1,26.4,136.1,30.5z"/>
		<path class="st0" d="M167.4,44.7h-3.1V24.5c0-1.7,0.1-3.3,0.2-4.8c-0.3,0.3-0.6,0.6-0.9,0.9c-0.3,0.3-1.9,1.6-4.6,3.8l-1.7-2.2
			l7.5-5.8h2.7V44.7z"/>
		<path class="st0" d="M187,27.4c3,0,5.3,0.7,7,2.2c1.7,1.5,2.6,3.5,2.6,6.1c0,2.9-0.9,5.2-2.8,6.9c-1.9,1.7-4.4,2.5-7.7,2.5
			c-3.2,0-5.6-0.5-7.3-1.5v-3.1c0.9,0.6,2,1,3.4,1.4c1.3,0.3,2.7,0.5,4,0.5c2.3,0,4-0.5,5.3-1.6s1.9-2.6,1.9-4.7
			c0-4-2.4-5.9-7.3-5.9c-1.2,0-2.9,0.2-4.9,0.6l-1.7-1.1l1.1-13.3h14.1v3h-11.3l-0.7,8.5C184,27.5,185.5,27.4,187,27.4z"/>
	</g>
	<g>
		<g id="XMLID_351_">
			<path id="XMLID_282_" class="st0" d="M283.3,56.5H53.6c-5.7,0-11.1-2.8-14.3-7.6c-3.9-5.8-10.5-9.5-18-9.3
				C10.4,40,1.3,48.9,0.9,59.8c-0.5,12,9.1,21.9,21,21.9c7.1,0,13.4-3.5,17.2-9c3.4-4.8,8.7-7.9,14.5-7.9h229.7V56.5z"/>
		</g>
		<path class="st0" d="M365.8,18.4C342.4-5,304.5-5,281.1,18.4c-23.4,23.4-23.4,61.3,0,84.7c12.6,12.6,29.3,18.4,45.7,17.4
			c14.2-0.8,28.1-6.6,38.9-17.4c10.8-10.8,16.6-24.8,17.4-39C384.1,47.6,378.3,30.9,365.8,18.4z M351.6,88.9
			c-15.6,15.6-40.8,15.6-56.4,0c-15.6-15.6-15.6-40.8,0-56.4c15.6-15.6,40.8-15.6,56.4,0C367.2,48.1,367.2,73.3,351.6,88.9z"/>
	</g>
	<g>
		<path class="st0" d="M305.5,48.2c0-4,3.2-7.2,7.2-7.2s7.2,3.2,7.2,7.2v24.9c0,4-3.2,7.2-7.2,7.2s-7.2-3.2-7.2-7.2V48.2z
			 M308.4,73.1c0,2.3,1.9,4.2,4.2,4.2s4.2-1.9,4.2-4.2V48.2c0-2.3-1.9-4.2-4.2-4.2s-4.2,1.9-4.2,4.2V73.1z"/>
		<path class="st0" d="M338.1,41.6V68h2.4v2.9h-2.4v8.8h-2.9v-8.8h-11.4V68l11.4-26.4H338.1z M335.1,68V48.4L326.7,68H335.1z"/>
	</g>
</g>
</svg>
