<?xml version="1.0" encoding="utf-8"?>
<!-- Generator: Adobe Illustrator 22.0.0, SVG Export Plug-In . SVG Version: 6.00 Build 0)  -->
<svg version="1.1" id="Layer_1" xmlns="http://www.w3.org/2000/svg" xmlns:xlink="http://www.w3.org/1999/xlink" x="0px" y="0px"
	 viewBox="0 0 634.5 185.6" style="enable-background:new 0 0 634.5 185.6;" xml:space="preserve">
<style type="text/css">
	.st0{fill:none;}
	.st1{enable-background:new    ;}
	.st2{fill:#726658;}
	.st3{fill:#C7C004;}
	.st4{fill:#DED9D7;}
	.st5{fill:#FCFF26;}
	.st6{clip-path:url(#SVGID_2_);}
	.st7{fill:#00AA5B;}
	.st8{fill:#F9D10B;}
	.st9{fill:#005E9E;}
	.st10{fill:#FFFFFF;}
	.st11{fill:#00A460;}
</style>
<g>
	<g id="XMLID_305_">
		<g id="XMLID_306_">
			<rect id="XMLID_11_" x="403.8" y="102.4" class="st0" width="184.9" height="65.1"/>
			<g class="st1">
				<path class="st2" d="M407.4,101.6v3.5c0.2-0.3,0.6-0.6,1-0.8c0.2-0.1,0.5-0.1,0.8-0.1c1.1,0,1.9,0.4,2.4,1.1
					c0.4,0.6,0.7,1.6,0.7,2.7v3.5c0,1.2-0.4,2.2-1.1,2.9c-0.7,0.7-1.6,1.1-2.7,1.1c-1.1,0-2-0.4-2.7-1.2c-0.7-0.7-1-1.6-1-2.7v-0.4
					l2.3-0.2l0.1,0.6c0.1,0.6,0.3,1.1,0.8,1.3c0.1,0.1,0.3,0.1,0.4,0.1c1,0,1.5-0.5,1.5-1.6v-4c0-0.5-0.2-0.9-0.5-1.2
					c-0.2-0.1-0.4-0.2-0.7-0.2c-0.4,0-0.7,0.2-1,0.5c-0.2,0.3-0.3,0.6-0.3,0.9v0.4h-2.5v-8.9h7.2v2.4H407.4z"/>
				<path class="st2" d="M418,115.4h-2.4V99.1h3.5l2.3,11.6l2.2-11.6h3.4v16.2h-2.4v-10.2l-2.1,10.2h-2l-2.4-10.2V115.4z"/>
				<path class="st2" d="M433,98.9c1.1,0,2,0.4,2.8,1.1c0.8,0.8,1.1,1.7,1.1,2.7v8.9c0,1.1-0.4,2-1.1,2.8c-0.8,0.8-1.7,1.1-2.8,1.1
					c-1.1,0-2-0.4-2.7-1.1c-0.8-0.8-1.1-1.7-1.1-2.7v-8.9c0-1.1,0.4-2,1.1-2.8C431,99.3,431.9,98.9,433,98.9z M434.3,102.8
					c0-0.4-0.1-0.7-0.4-1s-0.6-0.4-1-0.4c-0.4,0-0.7,0.1-1,0.4c-0.3,0.3-0.4,0.6-0.4,1v8.9c0,0.4,0.1,0.7,0.4,1
					c0.3,0.3,0.6,0.4,1,0.4c0.4,0,0.7-0.1,1-0.4s0.4-0.6,0.4-1V102.8z"/>
				<path class="st2" d="M441.7,99.1L445,110V99.1h2.4v16.2h-2.6l-3.4-10.4v10.4H439V99.1H441.7z"/>
				<path class="st2" d="M452,101.6h-2.6v-2.4h7.6v2.4h-2.6v13.8H452V101.6z"/>
				<path class="st2" d="M461.4,108.5v6.9H459V99.1h2.4v6.9h2.9v-6.9h2.4v16.2h-2.4v-6.9H461.4z"/>
				<path class="st2" d="M473.3,111.6l-0.6,3.7h-2.5l2.7-16.2h3.4l2.7,16.2h-2.6l-0.6-3.7H473.3z M474.6,102.8l-0.9,6.4h1.8
					L474.6,102.8z"/>
				<path class="st2" d="M488.4,111.3c0,1.1-0.3,2.1-0.9,2.9c-0.4,0.5-1,0.9-1.7,1.1c-0.4,0.1-0.8,0.2-1.4,0.2c-1,0-1.8-0.2-2.4-0.7
					c-0.5-0.4-0.9-0.9-1.2-1.6c-0.3-0.7-0.5-1.4-0.5-2.3l2.3-0.2c0.1,0.9,0.4,1.6,0.8,2c0.3,0.3,0.6,0.5,1,0.5c0.5,0,1-0.3,1.3-0.8
					c0.2-0.3,0.2-0.6,0.2-1.1c0-0.7-0.3-1.4-0.9-2c-0.5-0.5-1.2-1.1-2.2-2.1c-0.8-0.8-1.4-1.5-1.7-2.1c-0.4-0.7-0.5-1.5-0.5-2.3
					c0-1.5,0.5-2.6,1.5-3.4c0.6-0.5,1.4-0.7,2.3-0.7c0.9,0,1.6,0.2,2.2,0.6c0.5,0.3,0.9,0.7,1.2,1.3s0.5,1.2,0.5,1.9l-2.3,0.4
					c-0.1-0.7-0.3-1.2-0.6-1.5c-0.2-0.3-0.5-0.4-1-0.4c-0.4,0-0.8,0.2-1,0.6c-0.2,0.3-0.3,0.7-0.3,1.2c0,0.7,0.3,1.5,1,2.3
					c0.2,0.3,0.6,0.6,1.1,1c0.6,0.5,0.9,0.8,1.1,1c0.6,0.6,1.1,1.2,1.4,1.8c0.2,0.3,0.3,0.5,0.4,0.8
					C488.3,110.3,488.4,110.9,488.4,111.3z"/>
				<path class="st2" d="M495.7,115.6c-1.1,0-2-0.4-2.7-1.1c-0.8-0.8-1.1-1.7-1.1-2.7v-8.9c0-1.1,0.4-2,1.1-2.7s1.7-1.1,2.7-1.1
					c1.1,0,2,0.4,2.7,1.1c0.8,0.8,1.1,1.7,1.1,2.7v1.9H497v-1.9c0-0.4-0.1-0.7-0.4-1s-0.6-0.4-1-0.4c-0.4,0-0.7,0.1-1,0.4
					c-0.3,0.3-0.4,0.6-0.4,1v8.9c0,0.4,0.1,0.7,0.4,1c0.3,0.3,0.6,0.4,1,0.4c0.4,0,0.7-0.1,1-0.4c0.3-0.3,0.4-0.6,0.4-1v-3.2h-1.4
					V106h3.9v5.7c0,1.1-0.4,2-1.1,2.7S496.7,115.6,495.7,115.6z"/>
				<path class="st2" d="M505.5,99.1c1.4,0,2.4,0.4,3,1.1c0.6,0.7,0.8,1.6,0.8,2.7v2.4c0,1.2-0.4,2.1-1.3,2.9l1.8,7.1h-2.6l-1.5-6.1
					c-0.1,0-0.1,0-0.2,0h-1.4v6.1h-2.4V99.1H505.5z M507,103c0-0.9-0.5-1.4-1.4-1.4h-1.5v5.2h1.5c0.4,0,0.7-0.1,1-0.4
					c0.3-0.3,0.4-0.6,0.4-1V103z"/>
				<path class="st2" d="M515,111.6l-0.6,3.7h-2.5l2.7-16.2h3.4l2.7,16.2h-2.6l-0.6-3.7H515z M516.3,102.8l-0.9,6.4h1.8L516.3,102.8
					z"/>
				<path class="st2" d="M526.6,99.1c1.2,0,2.1,0.4,2.8,1.1c0.7,0.7,1,1.6,1,2.7v2.4c0,1.1-0.4,2-1.1,2.7c-0.7,0.8-1.6,1.1-2.7,1.1
					h-1.4v6.1h-2.4V99.1H526.6z M528,103c0-0.4-0.1-0.8-0.4-1c-0.3-0.3-0.6-0.4-1-0.4h-1.5v5.2h1.5c0.4,0,0.7-0.1,1-0.4
					c0.3-0.3,0.4-0.6,0.4-1V103z"/>
				<path class="st2" d="M534.8,108.5v6.9h-2.4V99.1h2.4v6.9h2.9v-6.9h2.4v16.2h-2.4v-6.9H534.8z"/>
				<path class="st2" d="M544.9,115.4h-2.4V99.1h2.4V115.4z"/>
				<path class="st2" d="M550.9,115.6c-1.1,0-2-0.4-2.7-1.1c-0.8-0.8-1.1-1.7-1.1-2.7v-8.9c0-1.1,0.4-2,1.1-2.7s1.7-1.1,2.7-1.1
					c1.1,0,2,0.4,2.7,1.1c0.8,0.8,1.1,1.7,1.1,2.7v1.9h-2.5v-1.9c0-0.4-0.1-0.7-0.4-1s-0.6-0.4-1-0.4c-0.4,0-0.7,0.1-1,0.4
					s-0.4,0.6-0.4,1v8.9c0,0.4,0.1,0.7,0.4,1c0.3,0.3,0.6,0.4,1,0.4c0.4,0,0.7-0.1,1-0.4c0.3-0.3,0.4-0.6,0.4-1v-2.2h2.5v2.3
					c0,1.1-0.4,2-1.1,2.7S552,115.6,550.9,115.6z"/>
			</g>
			<g class="st1">
				<path class="st2" d="M412.3,133.4c0,1.1-0.4,2-1.1,2.7c-0.8,0.8-1.7,1.1-2.7,1.1h-3.8V121h3.8c1.1,0,2,0.4,2.7,1.1
					c0.7,0.8,1.1,1.7,1.1,2.7V133.4z M407.1,134.8h1.5c0.4,0,0.7-0.1,1-0.4c0.3-0.3,0.4-0.6,0.4-1v-8.5c0-0.4-0.1-0.7-0.4-1
					c-0.3-0.3-0.6-0.4-1-0.4h-1.5V134.8z"/>
				<path class="st2" d="M414.5,137.3V121h7v2.4h-4.5v4.4h3.3v2.4h-3.3v4.4h4.5v2.4H414.5z"/>
				<path class="st2" d="M431.2,133.2c0,1.1-0.3,2.1-0.9,2.9c-0.4,0.5-1,0.9-1.7,1.1c-0.4,0.1-0.8,0.2-1.4,0.2c-1,0-1.8-0.2-2.4-0.7
					c-0.5-0.4-0.9-0.9-1.2-1.6c-0.3-0.7-0.5-1.4-0.5-2.3l2.3-0.2c0.1,0.9,0.4,1.6,0.8,2c0.3,0.3,0.6,0.5,1,0.5c0.5,0,1-0.3,1.3-0.8
					c0.2-0.3,0.2-0.6,0.2-1.1c0-0.7-0.3-1.4-0.9-2c-0.5-0.5-1.2-1.1-2.2-2.1c-0.8-0.8-1.4-1.5-1.7-2.1c-0.4-0.7-0.5-1.5-0.5-2.3
					c0-1.5,0.5-2.6,1.5-3.4c0.6-0.5,1.4-0.7,2.3-0.7c0.9,0,1.6,0.2,2.2,0.6c0.5,0.3,0.9,0.7,1.2,1.3s0.5,1.2,0.5,1.9l-2.3,0.4
					c-0.1-0.7-0.3-1.2-0.6-1.5c-0.2-0.3-0.5-0.4-1-0.4c-0.4,0-0.8,0.2-1,0.6c-0.2,0.3-0.3,0.7-0.3,1.2c0,0.7,0.3,1.5,1,2.3
					c0.2,0.3,0.6,0.6,1.1,1c0.6,0.5,0.9,0.8,1.1,1c0.6,0.6,1.1,1.2,1.4,1.8c0.2,0.3,0.3,0.5,0.4,0.8
					C431.1,132.2,431.2,132.8,431.2,133.2z"/>
				<path class="st2" d="M435.7,137.3h-2.4V121h2.4V137.3z"/>
				<path class="st2" d="M441.7,137.5c-1.1,0-2-0.4-2.8-1.1c-0.8-0.8-1.1-1.7-1.1-2.7v-8.9c0-1.1,0.4-2,1.1-2.7
					c0.8-0.8,1.7-1.1,2.7-1.1c1.1,0,2,0.4,2.7,1.1c0.8,0.8,1.1,1.7,1.1,2.7v1.9h-2.5v-1.9c0-0.4-0.1-0.7-0.4-1
					c-0.3-0.3-0.6-0.4-1-0.4c-0.4,0-0.7,0.1-1,0.4c-0.3,0.3-0.4,0.6-0.4,1v8.9c0,0.4,0.1,0.7,0.4,1c0.3,0.3,0.6,0.4,1,0.4
					c0.4,0,0.7-0.1,1-0.4c0.3-0.3,0.4-0.6,0.4-1v-3.2h-1.4v-2.4h3.9v5.7c0,1.1-0.4,2-1.1,2.7C443.7,137.1,442.8,137.5,441.7,137.5z"
					/>
				<path class="st2" d="M450.5,121l3.2,10.9V121h2.4v16.2h-2.6l-3.4-10.4v10.4h-2.4V121H450.5z"/>
				<path class="st2" d="M458.4,137.3V121h7v2.4h-4.5v4.4h3.3v2.4h-3.3v4.4h4.5v2.4H458.4z"/>
				<path class="st2" d="M470.9,121c1.4,0,2.4,0.4,3,1.1c0.6,0.7,0.8,1.6,0.8,2.7v2.4c0,1.2-0.4,2.1-1.3,2.9l1.8,7.1h-2.6l-1.5-6.1
					c-0.1,0-0.1,0-0.2,0h-1.4v6.1H467V121H470.9z M472.3,124.9c0-0.9-0.5-1.4-1.4-1.4h-1.5v5.2h1.5c0.4,0,0.7-0.1,1-0.4
					c0.3-0.3,0.4-0.6,0.4-1V124.9z"/>
				<path class="st2" d="M481.7,133.5l-0.6,3.7h-2.5l2.7-16.2h3.4l2.7,16.2h-2.6l-0.6-3.7H481.7z M483,124.7l-0.9,6.4h1.8L483,124.7
					z"/>
				<path class="st2" d="M489.8,123.5h-2.6V121h7.6v2.4h-2.6v13.8h-2.4V123.5z"/>
				<path class="st2" d="M502,121c1.2,0,2.1,0.4,2.8,1.1c0.7,0.7,1,1.6,1,2.7v2.4c0,1.1-0.4,2-1.1,2.7c-0.7,0.8-1.6,1.1-2.7,1.1
					h-1.4v6.1h-2.4V121H502z M503.5,124.9c0-0.4-0.1-0.8-0.4-1c-0.3-0.3-0.6-0.4-1-0.4h-1.5v5.2h1.5c0.4,0,0.7-0.1,1-0.4
					c0.3-0.3,0.4-0.6,0.4-1V124.9z"/>
				<path class="st2" d="M511.4,120.8c1.1,0,2,0.4,2.8,1.1c0.8,0.8,1.1,1.7,1.1,2.7v8.9c0,1.1-0.4,2-1.1,2.8s-1.7,1.1-2.7,1.1
					s-2-0.4-2.7-1.1c-0.8-0.8-1.1-1.7-1.1-2.7v-8.9c0-1.1,0.4-2,1.1-2.8S510.3,120.8,511.4,120.8z M512.7,124.7c0-0.4-0.1-0.7-0.4-1
					c-0.3-0.3-0.6-0.4-1-0.4c-0.4,0-0.7,0.1-1,0.4c-0.3,0.3-0.4,0.6-0.4,1v8.9c0,0.4,0.1,0.7,0.4,1c0.3,0.3,0.6,0.4,1,0.4
					c0.4,0,0.7-0.1,1-0.4c0.3-0.3,0.4-0.6,0.4-1V124.7z"/>
				<path class="st2" d="M517.4,137.3V121h7v2.4h-4.5v4.4h3.3v2.4h-3.3v4.4h4.5v2.4H517.4z"/>
				<path class="st2" d="M528.5,137.3h-2.4V121h2.4V137.3z"/>
				<path class="st2" d="M534.6,121c1.4,0,2.4,0.4,3,1.1c0.6,0.7,0.8,1.6,0.8,2.7v2.4c0,1.2-0.4,2.1-1.3,2.9l1.8,7.1h-2.6l-1.5-6.1
					c-0.1,0-0.1,0-0.2,0h-1.4v6.1h-2.4V121H534.6z M536,124.9c0-0.9-0.5-1.4-1.4-1.4h-1.5v5.2h1.5c0.4,0,0.7-0.1,1-0.4
					c0.3-0.3,0.4-0.6,0.4-1V124.9z"/>
				<path class="st2" d="M544,133.5l-0.6,3.7h-2.5l2.7-16.2h3.4l2.7,16.2h-2.6l-0.6-3.7H544z M545.3,124.7l-0.9,6.4h1.8L545.3,124.7
					z"/>
			</g>
			<g class="st1">
				<path class="st2" d="M407.1,159.1h-2.4v-16.2h2.4V159.1z"/>
				<path class="st2" d="M412,142.8l3.2,10.9v-10.9h2.4v16.2h-2.6l-3.4-10.4v10.4h-2.4v-16.2H412z"/>
				<path class="st2" d="M422.3,145.3h-2.6v-2.4h7.6v2.4h-2.6v13.8h-2.4V145.3z"/>
				<path class="st2" d="M429.3,159.1v-16.2h7v2.4h-4.5v4.4h3.3v2.4h-3.3v4.4h4.5v2.4H429.3z"/>
				<path class="st2" d="M441.8,142.8c1.4,0,2.4,0.4,3,1.1c0.6,0.7,0.8,1.6,0.8,2.7v2.4c0,1.2-0.4,2.1-1.3,2.9l1.8,7.1h-2.6
					l-1.5-6.1c-0.1,0-0.1,0-0.2,0h-1.4v6.1h-2.4v-16.2H441.8z M443.3,146.7c0-0.9-0.5-1.4-1.4-1.4h-1.5v5.2h1.5c0.4,0,0.7-0.1,1-0.4
					c0.3-0.3,0.4-0.6,0.4-1V146.7z"/>
				<path class="st2" d="M450.7,159.1h-2.4v-16.2h2.4V159.1z"/>
				<path class="st2" d="M456.7,142.6c1.1,0,2,0.4,2.8,1.1c0.8,0.8,1.1,1.7,1.1,2.7v8.9c0,1.1-0.4,2-1.1,2.8s-1.7,1.1-2.7,1.1
					c-1.1,0-2-0.4-2.7-1.1c-0.8-0.8-1.1-1.7-1.1-2.7v-8.9c0-1.1,0.4-2,1.1-2.8S455.7,142.6,456.7,142.6z M458,146.5
					c0-0.4-0.1-0.7-0.4-1s-0.6-0.4-1-0.4c-0.4,0-0.7,0.1-1,0.4s-0.4,0.6-0.4,1v8.9c0,0.4,0.1,0.7,0.4,1s0.6,0.4,1,0.4
					c0.4,0,0.7-0.1,1-0.4s0.4-0.6,0.4-1V146.5z"/>
				<path class="st2" d="M466.6,142.8c1.4,0,2.4,0.4,3,1.1c0.6,0.7,0.8,1.6,0.8,2.7v2.4c0,1.2-0.4,2.1-1.3,2.9l1.8,7.1h-2.6
					l-1.5-6.1c-0.1,0-0.1,0-0.2,0h-1.4v6.1h-2.4v-16.2H466.6z M468.1,146.7c0-0.9-0.5-1.4-1.4-1.4h-1.5v5.2h1.5c0.4,0,0.7-0.1,1-0.4
					c0.3-0.3,0.4-0.6,0.4-1V146.7z"/>
				<path class="st2" d="M482,155.2c0,1.1-0.4,2-1.1,2.7c-0.8,0.8-1.7,1.1-2.7,1.1h-3.8v-16.2h3.8c1.1,0,2,0.4,2.7,1.1
					c0.7,0.8,1.1,1.7,1.1,2.7V155.2z M476.8,156.6h1.5c0.4,0,0.7-0.1,1-0.4c0.3-0.3,0.4-0.6,0.4-1v-8.5c0-0.4-0.1-0.7-0.4-1
					c-0.3-0.3-0.6-0.4-1-0.4h-1.5V156.6z"/>
				<path class="st2" d="M484.2,159.1v-16.2h7v2.4h-4.5v4.4h3.3v2.4h-3.3v4.4h4.5v2.4H484.2z"/>
				<path class="st2" d="M500.9,155c0,1.1-0.3,2.1-0.9,2.9c-0.4,0.5-1,0.9-1.7,1.1c-0.4,0.1-0.8,0.2-1.4,0.2c-1,0-1.8-0.2-2.4-0.7
					c-0.5-0.4-0.9-0.9-1.2-1.6c-0.3-0.7-0.5-1.4-0.5-2.3l2.3-0.2c0.1,0.9,0.4,1.6,0.8,2c0.3,0.3,0.6,0.5,1,0.5c0.5,0,1-0.3,1.3-0.8
					c0.2-0.3,0.2-0.6,0.2-1.1c0-0.7-0.3-1.4-0.9-2c-0.5-0.5-1.2-1.1-2.2-2.1c-0.8-0.8-1.4-1.5-1.7-2.1c-0.4-0.7-0.5-1.5-0.5-2.3
					c0-1.5,0.5-2.6,1.5-3.4c0.6-0.5,1.4-0.7,2.3-0.7c0.9,0,1.6,0.2,2.2,0.6c0.5,0.3,0.9,0.7,1.2,1.3s0.5,1.2,0.5,1.9l-2.3,0.4
					c-0.1-0.7-0.3-1.2-0.6-1.5c-0.2-0.3-0.5-0.4-1-0.4c-0.4,0-0.8,0.2-1,0.6c-0.2,0.3-0.3,0.7-0.3,1.2c0,0.7,0.3,1.5,1,2.3
					c0.2,0.3,0.6,0.6,1.1,1c0.6,0.5,0.9,0.8,1.1,1c0.6,0.6,1.1,1.2,1.4,1.8c0.2,0.3,0.3,0.5,0.4,0.8
					C500.8,154,500.9,154.6,500.9,155z"/>
				<path class="st2" d="M505.4,159.1h-2.4v-16.2h2.4V159.1z"/>
				<path class="st2" d="M511.4,159.3c-1.1,0-2-0.4-2.8-1.1c-0.8-0.8-1.1-1.7-1.1-2.7v-8.9c0-1.1,0.4-2,1.1-2.7
					c0.8-0.8,1.7-1.1,2.7-1.1c1.1,0,2,0.4,2.7,1.1c0.8,0.8,1.1,1.7,1.1,2.7v1.9h-2.5v-1.9c0-0.4-0.1-0.7-0.4-1
					c-0.3-0.3-0.6-0.4-1-0.4c-0.4,0-0.7,0.1-1,0.4c-0.3,0.3-0.4,0.6-0.4,1v8.9c0,0.4,0.1,0.7,0.4,1c0.3,0.3,0.6,0.4,1,0.4
					c0.4,0,0.7-0.1,1-0.4c0.3-0.3,0.4-0.6,0.4-1v-3.2h-1.4v-2.4h3.9v5.7c0,1.1-0.4,2-1.1,2.7C513.4,158.9,512.5,159.3,511.4,159.3z"
					/>
				<path class="st2" d="M520.1,142.8l3.2,10.9v-10.9h2.4v16.2h-2.6l-3.4-10.4v10.4h-2.4v-16.2H520.1z"/>
				<path class="st2" d="M527.5,156.6h2.4v2.4h-2.4V156.6z"/>
			</g>
		</g>
	</g>
	<g class="st1">
		<path class="st3" d="M405.9,76.9v-28h2.2v28H405.9z"/>
		<path class="st3" d="M412.2,48.9h2.6l6.6,21.2h0.1V48.9h2.2v28h-2.2l-7.1-22.4h-0.1v22.4h-2.2V48.9z"/>
		<path class="st3" d="M436.5,51h-3.9v25.8h-2.2V51h-3.9v-2.2h10V51z"/>
		<path class="st3" d="M441.5,51v10.7h5V64h-5v10.7h7.1v2.2h-9.3v-28h9V51H441.5z"/>
		<path class="st3" d="M462.1,76.9H460v-9.3c0-2-1.6-3.6-3.6-3.6h-2.6v12.9h-2.2v-28h4.8c3.2,0,5.8,2.6,5.8,5.8v3.4
			c0,1.9-1,3.7-2.4,4.7c1.5,1.1,2.4,2.8,2.4,4.7V76.9z M456.3,61.8c2,0,3.6-1.6,3.6-3.6v-3.4c0-2-1.6-3.6-3.6-3.6h-2.6v10.7H456.3z"
			/>
		<path class="st3" d="M465.8,76.9v-28h2.2v28H465.8z"/>
		<path class="st3" d="M471.9,53.9c0-3,2.4-5.4,5.4-5.4s5.4,2.4,5.4,5.4v18c0,3-2.4,5.4-5.4,5.4s-5.4-2.4-5.4-5.4V53.9z M474.1,71.9
			c0,1.8,1.5,3.2,3.2,3.2s3.2-1.5,3.2-3.2v-18c0-1.8-1.5-3.2-3.2-3.2s-3.2,1.5-3.2,3.2V71.9z"/>
		<path class="st3" d="M497.2,76.9h-2.2v-9.3c0-2-1.6-3.6-3.6-3.6h-2.6v12.9h-2.2v-28h4.8c3.2,0,5.8,2.6,5.8,5.8v3.4
			c0,1.9-1,3.7-2.4,4.7c1.5,1.1,2.4,2.8,2.4,4.7V76.9z M491.4,61.8c2,0,3.6-1.6,3.6-3.6v-3.4c0-2-1.6-3.6-3.6-3.6h-2.6v10.7H491.4z"
			/>
		<path class="st3" d="M517.2,71.1c0,3.2-2.6,5.8-5.8,5.8h-5v-28h5c3.2,0,5.8,2.6,5.8,5.8V71.1z M515,54.7c0-2-1.6-3.6-3.7-3.6h-2.8
			v23.7h2.8c2,0,3.7-1.6,3.7-3.7V54.7z"/>
		<path class="st3" d="M523.2,51v10.7h5V64h-5v10.7h7.1v2.2H521v-28h9V51H523.2z"/>
		<path class="st3" d="M533.8,59.2c0,0-1.2-1.5-1.2-3.5v-1.9c0-3,2.4-5.4,5.4-5.4c3,0,5.4,2.4,5.4,5.4v3.5l-2.2,0.2v-3.7
			c0-1.8-1.5-3.2-3.2-3.2c-1.8,0-3.2,1.5-3.2,3.2v1.9c0,1.2,0.7,2.1,0.7,2.1l6.6,7.8c0,0,1.3,1.5,1.3,3.6v2.7c0,3-2.4,5.4-5.4,5.4
			c-3,0-5.4-2.4-5.4-5.4v-4.1l2.2-0.2v4.4c0,1.8,1.5,3.2,3.2,3.2c1.8,0,3.2-1.5,3.2-3.2v-2.7c0-1.2-0.8-2.2-0.8-2.2L533.8,59.2z"/>
		<path class="st3" d="M546.9,76.9v-28h2.2v28H546.9z"/>
		<path class="st3" d="M558.3,62.5h5.4v14.8l-1.8-0.4v-1c-1,0.8-2.2,1.3-3.6,1.3c-3,0-5.4-2.4-5.4-5.4v-18c0-3,2.4-5.4,5.4-5.4
			c3,0,5.4,2.4,5.4,5.4v3.3l-2.2,0.2v-3.6c0-1.8-1.5-3.2-3.2-3.2s-3.2,1.5-3.2,3.2v18c0,1.8,1.5,3.2,3.2,3.2s3.2-1.5,3.2-3.2v-7.2
			h-3.2V62.5z"/>
		<path class="st3" d="M567.5,48.9h2.6l6.6,21.2h0.1V48.9h2.2v28h-2.2l-7.1-22.4h-0.1v22.4h-2.2V48.9z"/>
	</g>
	<rect id="XMLID_303_" x="403.8" y="83.8" class="st4" width="176.3" height="6.4"/>
	<g>
		<g>
			<g id="XMLID_350_">
				<path id="XMLID_281_" class="st3" d="M99.7,65.2h229.7c5.7,0,11.1,2.8,14.3,7.6c3.9,5.8,10.5,9.5,18,9.3
					c10.9-0.3,19.9-9.2,20.4-20.1c0.5-12-9.1-21.9-21-21.9c-7.1,0-13.4,3.5-17.2,9c-3.4,4.8-8.7,7.9-14.5,7.9H99.7V65.2z"/>
			</g>
			<path class="st3" d="M102.2,18.8c-23.4-23.4-61.3-23.4-84.7,0s-23.4,61.3,0,84.7c12.6,12.6,29.3,18.4,45.7,17.4
				c14.2-0.8,28.1-6.6,38.9-17.4s16.6-24.8,17.4-39C120.6,48,114.8,31.3,102.2,18.8z M88.1,89.3c-15.6,15.6-40.8,15.6-56.4,0
				s-15.6-40.8,0-56.4s40.8-15.6,56.4,0C103.6,48.5,103.6,73.7,88.1,89.3z"/>
		</g>
		<g>
			<path class="st3" d="M40.7,48.9c0-4,3.2-7.2,7.2-7.2s7.2,3.2,7.2,7.2v24.9c0,4-3.2,7.2-7.2,7.2s-7.2-3.2-7.2-7.2V48.9z
				 M43.6,73.8c0,2.3,1.9,4.2,4.2,4.2s4.2-1.9,4.2-4.2V48.9c0-2.3-1.9-4.2-4.2-4.2s-4.2,1.9-4.2,4.2V73.8z"/>
			<path class="st3" d="M67,59.8c2.4,0,4.4-2,4.4-4.4V49c0-2.4-2-4.4-4.4-4.4s-4.4,2-4.4,4.4v3.7L59.7,53v-4c0-4.1,3.3-7.4,7.4-7.4
				s7.4,3.3,7.4,7.4v6.4c0,2.4-1.7,5.1-3.5,5.9c1.8,0.8,3.5,3.5,3.5,5.9v6.4c0,4.1-3.3,7.4-7.4,7.4s-7.4-3.3-7.4-7.4V70l2.9-0.3v4
				c0,2.4,2,4.4,4.4,4.4s4.4-2,4.4-4.4v-6.4c0-2.4-2-4.4-4.4-4.4h-0.8V60H67V59.8z"/>
		</g>
		<g>
			<path class="st3" d="M202.4,46.1h-18.6v-2.8l7.5-7.5c2.3-2.3,3.8-3.9,4.5-4.9s1.3-1.9,1.6-2.9c0.4-0.9,0.5-1.9,0.5-3
				c0-1.5-0.5-2.7-1.4-3.6s-2.2-1.3-3.8-1.3c-1.2,0-2.3,0.2-3.3,0.6c-1.1,0.4-2.2,1.1-3.5,2.1l-1.7-2.2c2.6-2.2,5.5-3.3,8.5-3.3
				c2.7,0,4.7,0.7,6.3,2c1.5,1.4,2.3,3.2,2.3,5.5c0,1.8-0.5,3.6-1.5,5.3s-2.9,4-5.7,6.7l-6.2,6.1v0.2h14.6v3H202.4z"/>
			<path class="st3" d="M225.2,31.9c0,4.9-0.8,8.6-2.3,11s-3.9,3.6-7.1,3.6c-3,0-5.4-1.2-7-3.7s-2.4-6.1-2.4-10.9
				c0-4.9,0.8-8.6,2.3-11s3.9-3.6,7-3.6s5.4,1.2,7,3.7S225.2,27.2,225.2,31.9z M209.8,31.9c0,4.1,0.5,7.1,1.5,9s2.5,2.8,4.6,2.8
				s3.7-1,4.7-2.9s1.4-4.9,1.4-9s-0.5-7-1.4-8.9c-1-1.9-2.5-2.8-4.7-2.8c-2.1,0-3.7,0.9-4.6,2.8C210.2,24.8,209.8,27.8,209.8,31.9z"
				/>
			<path class="st3" d="M241.1,46.1H238V25.9c0-1.7,0.1-3.3,0.2-4.8c-0.3,0.3-0.6,0.6-0.9,0.9c-0.3,0.3-1.9,1.6-4.6,3.8l-1.7-2.2
				l7.5-5.8h2.7L241.1,46.1L241.1,46.1z"/>
			<path class="st3" d="M271.8,39.6h-4.2v6.5h-3.1v-6.5h-13.8v-2.8l13.4-19.2h3.4v19h4.2v3H271.8z M264.5,36.7v-9.4
				c0-1.8,0.1-3.9,0.2-6.3h-0.2c-0.6,1.2-1.2,2.3-1.7,3.1L254,36.7H264.5z"/>
		</g>
	</g>
	<g>
		<g>
			<path class="st5" d="M634,44.5c-4-22.6-36.6-22.6-40.7,0c-0.4,2-0.5,4.1-0.5,6.2c0,14.3,8.6,26.6,20.9,32
				c12.3-5.4,20.9-17.7,20.9-32C634.5,48.6,634.3,46.5,634,44.5z"/>
		</g>
		<g>
			<g>
				<defs>
					<path id="SVGID_1_" d="M630,48.3c0,8.4-6.3,15.3-14.5,16.2c-0.6,0.1-1.2,0.1-1.9,0.1c-9,0-16.3-7.3-16.3-16.3
						S604.6,32,613.6,32c0.6,0,1.3,0,1.9,0.1C623.7,33,630,39.9,630,48.3z"/>
				</defs>
				<clipPath id="SVGID_2_">
					<use xlink:href="#SVGID_1_"  style="overflow:visible;"/>
				</clipPath>
				<g class="st6">
					<path class="st7" d="M636.9,62.5c0,1.2-1,2.2-2.2,2.2h-42.4c-1.2,0-2.2-1-2.2-2.2V34.2c0-1.2,1-2.2,2.2-2.2h42.4
						c1.2,0,2.2,1,2.2,2.2V62.5z"/>
					<g>
						<polygon class="st8" points="613.5,60.3 594.3,48.4 613.5,36.4 632.7,48.4 						"/>
						<path class="st9" d="M621.5,48.4c0,4.4-3.6,8-8,8s-8-3.6-8-8s3.6-8,8-8C617.9,40.3,621.5,43.9,621.5,48.4z"/>
						<path class="st10" d="M610.9,45.5c-1.9-0.3-3.5-0.2-4.5-0.1c-0.3,0.5-0.5,1-0.6,1.6c0.8-0.1,2.6-0.3,5,0
							c2.6,0.4,6.5,1.5,10.3,4.5c0.2-0.5,0.3-1.1,0.3-1.6C617.5,46.9,613.6,45.8,610.9,45.5z"/>
						<g>
							<path class="st11" d="M607.6,46c0,0.2-0.1,0.3-0.2,0.3c-0.1,0-0.2-0.1-0.2-0.3s0.1-0.3,0.2-0.3S607.6,45.9,607.6,46z
								 M607.7,46c0-0.1-0.1-0.4-0.3-0.3c-0.2,0-0.3,0.2-0.3,0.4c0,0.1,0.1,0.3,0.3,0.3C607.7,46.4,607.7,46.2,607.7,46z"/>
							<path class="st11" d="M607.9,45.7h0.2c0,0,0.1,0,0.1,0.1s-0.1,0.1-0.1,0.1h-0.2V45.7z M607.9,46.1h0.2c0.1,0,0.1,0.1,0.1,0.1
								s0,0.1,0,0.2h0.1l0,0c0,0,0,0,0-0.1v-0.1c0-0.1,0-0.1-0.1-0.1c0.1,0,0.1-0.1,0.1-0.2c0-0.1-0.1-0.2-0.2-0.2h-0.3v0.7h0.1
								L607.9,46.1z"/>
							<path class="st11" d="M608.6,45.8h0.2c0.1,0,0.2,0.1,0.2,0.3s-0.1,0.3-0.2,0.3h-0.2V45.8z M608.5,46.4h0.3
								c0.2,0,0.3-0.2,0.3-0.3c0-0.2-0.1-0.3-0.3-0.3h-0.3V46.4z"/>
							<path class="st11" d="M609.7,46.4h-0.5v-0.7h0.5v0.1h-0.4V46h0.4v0.1h-0.4v0.2L609.7,46.4L609.7,46.4z"/>
							<path class="st11" d="M610.3,46.5v-0.4c0,0,0-0.1,0-0.2l0,0l-0.2,0.5H610l-0.1-0.6l0,0c0,0.1,0,0.1,0,0.2v0.4h-0.1l0.1-0.7
								h0.1l0.1,0.6l0,0l0.3-0.5h0.1L610.3,46.5L610.3,46.5z"/>
							<path class="st11" d="M612.9,46.9l-0.5-0.1l0.2-0.7l0.5,0.1v0.1l-0.4-0.1v0.2l0.4,0.1v0.1l-0.4-0.1v0.2L612.9,46.9
								L612.9,46.9z"/>
							<path class="st11" d="M614.8,46.9L615,47c0.1,0,0.1,0.1,0.1,0.2c0,0.1-0.1,0.1-0.2,0.1l-0.2-0.1L614.8,46.9z M614.7,47.2
								l0.2,0.1c0.1,0,0.2,0,0.3-0.1c0-0.1,0-0.2-0.1-0.2l-0.3-0.1l-0.2,0.6h0.1V47.2z"/>
							<path class="st11" d="M615.4,47.1l0.2,0.1c0,0,0.1,0.1,0.1,0.2c0,0.1-0.1,0.1-0.2,0.1l-0.2-0.1L615.4,47.1z M615.3,47.4
								l0.2,0.1c0.1,0,0.1,0.1,0.1,0.1s0,0.1,0,0.2h0.1l0,0c0,0,0,0,0-0.1v-0.1c0-0.1,0-0.1,0-0.1s0.1,0,0.1-0.1
								c0.1-0.1,0-0.2-0.1-0.3l-0.3-0.1l-0.2,0.6h0.1L615.3,47.4z"/>
							<path class="st11" d="M616.3,47.7c-0.1,0.1-0.2,0.2-0.3,0.2c-0.1-0.1-0.2-0.2-0.1-0.3c0.1-0.1,0.2-0.2,0.3-0.2
								C616.3,47.5,616.4,47.6,616.3,47.7z M616.4,47.8c0.1-0.1,0.1-0.4-0.2-0.5c-0.2-0.1-0.4,0.1-0.4,0.2c-0.1,0.1-0.1,0.4,0.2,0.4
								C616.2,48.1,616.3,47.9,616.4,47.8z"/>
							<path class="st11" d="M616.8,47.9L617,48l-0.2,0.3h-0.1v-0.1c-0.1,0-0.2,0-0.2,0c-0.1,0-0.1-0.1-0.1-0.2
								c-0.1-0.1,0-0.2,0-0.3c0.1-0.2,0.2-0.3,0.4-0.2c0.1,0.1,0.2,0.2,0.2,0.3h-0.1c0-0.1-0.1-0.2-0.1-0.2c-0.1,0-0.2,0-0.3,0.2
								c-0.1,0.1-0.1,0.3,0.1,0.3h0.1C616.8,48.1,616.8,48,616.8,47.9L616.8,47.9L616.8,47.9z"/>
							<path class="st11" d="M617.4,47.9l0.2,0.1c0,0,0.1,0.1,0.1,0.2c0,0.1-0.1,0.1-0.2,0l-0.2-0.1L617.4,47.9z M617.2,48.2
								l0.2,0.1c0.1,0.1,0.1,0.1,0.1,0.2c0,0-0.1,0.1-0.1,0.2l0.1,0.1l0,0c0,0,0,0,0-0.1l0.1-0.1c0-0.1,0-0.1,0-0.1s0.1,0,0.2-0.1
								c0.1-0.1,0-0.2-0.1-0.3l-0.3-0.1l-0.3,0.6h0.1V48.2z"/>
							<path class="st11" d="M618,49l-0.4-0.2l0.3-0.6l0.4,0.2v0.1l-0.4-0.2l-0.1,0.2l0.3,0.2v0.1l-0.3-0.2l-0.1,0.2L618,49L618,49z
								"/>
							<path class="st11" d="M618.7,48.8c0-0.1,0-0.2-0.1-0.2s-0.1-0.1-0.2,0c0,0.1,0,0.1,0,0.1L618.7,48.8c0,0.1,0,0.2-0.1,0.3
								s-0.2,0.1-0.3,0s-0.1-0.1-0.2-0.2c0-0.1,0-0.1,0-0.2h0.1c-0.1,0.1,0,0.2,0.1,0.2s0.1,0.1,0.2,0c0-0.1,0-0.1-0.1-0.2l-0.1-0.1
								c0,0-0.1-0.1-0.1-0.2c0.1-0.1,0.2-0.1,0.3-0.1C618.9,48.7,618.8,48.8,618.7,48.8L618.7,48.8z"/>
							<path class="st11" d="M619.3,49.1c0-0.1,0-0.2-0.1-0.2c0,0-0.1-0.1-0.2,0V49L619.3,49.1c0,0.1,0,0.2-0.1,0.3s-0.2,0.1-0.3,0
								s-0.1-0.1-0.1-0.2c0-0.1,0-0.1,0-0.2h0.1c-0.1,0.1,0,0.2,0.1,0.2S619.2,49.3,619.3,49.1c-0.1,0-0.1,0-0.2-0.1l-0.1-0.1
								c0,0-0.1-0.1,0-0.2c0.1-0.1,0.2-0.1,0.3-0.1C619.4,49,619.4,49.1,619.3,49.1L619.3,49.1z"/>
							<path class="st11" d="M619.8,49.7c-0.1,0.1-0.2,0.2-0.3,0.1c-0.1-0.1-0.1-0.2-0.1-0.4c0.1-0.1,0.2-0.2,0.3-0.1
								C619.9,49.4,619.9,49.5,619.8,49.7z M619.9,49.7c0.1-0.1,0.1-0.3-0.1-0.5c-0.2-0.1-0.4,0-0.5,0.1s-0.1,0.3,0.1,0.5
								C619.7,50,619.8,49.8,619.9,49.7z"/>
						</g>
						<g>
							<polygon class="st10" points="615.7,43.2 615.8,43.5 616.1,43.5 615.9,43.7 616,44 615.7,43.8 615.4,44 615.5,43.7 
								615.2,43.5 615.6,43.5 							"/>
							<polygon class="st10" points="610.2,46.9 610.2,47.2 610.5,47.2 610.3,47.3 610.4,47.5 610.2,47.4 610,47.5 610.1,47.3 
								609.9,47.2 610.1,47.2 							"/>
							<polygon class="st10" points="606.7,45.1 606.8,45.4 607.2,45.4 606.9,45.6 607,45.9 606.7,45.7 606.5,45.9 606.6,45.5 
								606.3,45.4 606.6,45.4 							"/>
							<polygon class="st10" points="608.2,48 608.3,48.2 608.5,48.2 608.3,48.4 608.4,48.7 608.2,48.5 607.9,48.7 608,48.4 
								607.8,48.2 608.1,48.2 							"/>
							<polygon class="st10" points="607.5,48.4 607.6,48.7 608,48.7 607.7,49 607.8,49.3 607.5,49.1 607.2,49.3 607.3,49 607,48.7 
								607.4,48.7 							"/>
							<polygon class="st10" points="606.6,49.3 606.7,49.5 606.9,49.5 606.7,49.6 606.8,49.8 606.6,49.7 606.5,49.8 606.5,49.6 
								606.4,49.5 606.6,49.5 							"/>
							<polygon class="st10" points="609.1,49.3 609.1,49.5 609.4,49.5 609.2,49.7 609.3,49.9 609.1,49.8 608.9,49.9 608.9,49.7 
								608.7,49.5 609,49.5 							"/>
							<polygon class="st10" points="608.9,50.2 609,50.4 609.2,50.4 609,50.6 609.1,50.8 608.9,50.7 608.7,50.8 608.8,50.6 
								608.6,50.4 608.8,50.4 							"/>
							<polygon class="st10" points="610,50.9 610.1,51.2 610.4,51.2 610.2,51.4 610.3,51.8 610,51.6 609.7,51.8 609.8,51.4 
								609.6,51.2 609.9,51.2 							"/>
							<polygon class="st10" points="613.4,50.1 613.5,50.5 613.9,50.5 613.6,50.7 613.7,51.1 613.4,50.8 613.1,51.1 613.2,50.7 
								612.9,50.5 613.3,50.5 							"/>
							<polygon class="st10" points="613,49.3 613,49.4 613.1,49.4 613,49.5 613.1,49.6 613,49.5 612.9,49.6 612.9,49.5 612.8,49.4 
								612.9,49.4 							"/>
							<polygon class="st10" points="612.3,48.7 612.4,48.9 612.6,48.9 612.4,49.1 612.5,49.3 612.3,49.1 612.2,49.3 612.2,49.1 
								612,48.9 612.3,48.9 							"/>
							<polygon class="st10" points="613.5,47.9 613.6,48.1 613.8,48.1 613.6,48.3 613.7,48.5 613.5,48.4 613.3,48.5 613.3,48.3 
								613.1,48.1 613.4,48.1 							"/>
							<polygon class="st10" points="615.3,46 615.4,46.3 615.6,46.3 615.4,46.4 615.5,46.6 615.3,46.5 615.1,46.6 615.2,46.4 
								615,46.3 615.2,46.3 							"/>
							<polygon class="st10" points="614.3,48.7 614.3,48.9 614.6,48.9 614.4,49.1 614.5,49.4 614.3,49.2 614,49.4 614.1,49.1 
								613.9,48.9 614.2,48.9 							"/>
							<polygon class="st10" points="615.2,50.9 615.3,51.3 615.7,51.3 615.4,51.5 615.5,51.9 615.2,51.7 614.8,51.9 615,51.5 
								614.6,51.3 615,51.3 							"/>
							<polygon class="st10" points="615.8,52.2 615.9,52.5 616.2,52.5 615.9,52.7 616,53 615.8,52.8 615.5,53 615.6,52.7 
								615.4,52.5 615.7,52.5 							"/>
							<polygon class="st10" points="616.5,51.3 616.5,51.5 616.8,51.5 616.6,51.7 616.7,51.9 616.5,51.8 616.3,51.9 616.3,51.7 
								616.1,51.5 616.4,51.5 							"/>
							<polygon class="st10" points="617.4,50.7 617.5,51 617.8,51 617.6,51.2 617.7,51.4 617.4,51.3 617.2,51.4 617.3,51.2 
								617.1,51 617.3,51 							"/>
							<polygon class="st10" points="617.5,52 617.5,52.2 617.8,52.2 617.6,52.4 617.7,52.6 617.5,52.5 617.3,52.6 617.3,52.4 
								617.1,52.2 617.4,52.2 							"/>
							<polygon class="st10" points="617.4,52.8 617.5,53 617.7,53 617.5,53.1 617.6,53.3 617.4,53.2 617.3,53.3 617.3,53.1 
								617.2,53 617.4,53 							"/>
							<polygon class="st10" points="618.2,51 618.3,51.3 618.7,51.3 618.4,51.5 618.5,51.8 618.2,51.7 618,51.8 618.1,51.5 
								617.8,51.3 618.1,51.3 							"/>
							<polygon class="st10" points="619.2,50.9 619.2,51.2 619.5,51.2 619.3,51.3 619.3,51.5 619.2,51.4 619,51.5 619.1,51.3 
								618.9,51.2 619.1,51.2 							"/>
							<polygon class="st10" points="619.5,50.3 619.6,50.5 619.7,50.5 619.6,50.6 619.7,50.8 619.5,50.7 619.4,50.8 619.4,50.6 
								619.3,50.5 619.5,50.5 							"/>
							<polygon class="st10" points="619.1,49.2 619.1,49.4 619.3,49.4 619.2,49.5 619.2,49.7 619.1,49.6 618.9,49.7 619,49.6 
								618.8,49.4 619,49.4 							"/>
							<polygon class="st10" points="620.3,49.1 620.4,49.4 620.7,49.4 620.4,49.6 620.5,50 620.3,49.8 620,50 620.1,49.6 
								619.8,49.4 620.2,49.4 							"/>
							<polygon class="st10" points="613.5,53 613.5,53.2 613.8,53.2 613.6,53.4 613.6,53.6 613.5,53.4 613.3,53.6 613.4,53.4 
								613.2,53.2 613.4,53.2 							"/>
						</g>
					</g>
				</g>
			</g>
		</g>
	</g>
</g>
</svg>
