<?xml version="1.0" encoding="utf-8"?>
<!-- Generator: Adobe Illustrator 22.0.0, SVG Export Plug-In . SVG Version: 6.00 Build 0)  -->
<svg version="1.1" id="Layer_1" xmlns="http://www.w3.org/2000/svg" xmlns:xlink="http://www.w3.org/1999/xlink" x="0px" y="0px"
	 viewBox="0 0 146.2 193.9" style="enable-background:new 0 0 146.2 193.9;" xml:space="preserve">
<style type="text/css">
	.st0{fill:#FDED32;}
	.st1{fill:#E87F28;}
	.st2{fill:#88B9D3;}
</style>
<g>
	<path class="st0" d="M96.9,136.3C81.3,142.1,69,154.4,63,169.9l-0.4,1.1l-49.2-19.3l0.5-1.2c6.1-15.6,5.1-33-2.4-48
		C3,85.5,1.5,65.2,9,46.2C23,10.9,62.9-6.4,98.2,7.5c35.4,13.9,52.9,53.9,39,89.3C129.8,115.9,114.7,129.7,96.9,136.3z"/>
	<path class="st1" d="M90.8,71.7L60,59.7c-9.1-3.6-19.4,0.9-22.9,10c-2.6,6.7,0.7,14.2,7.3,16.8c3,1.2,4.5,4.6,3.3,7.6l-19,48.3
		c-2.6,6.7,0.7,14.2,7.3,16.8l4.4,1.7c6.7,2.6,14.2-0.7,16.8-7.3l19-48.3c1.2-3,4.6-4.5,7.6-3.3c6.7,2.6,14.2-0.7,16.8-7.3
		C104.4,85.6,99.9,75.3,90.8,71.7z M86.6,95.4c-6.7-2.6-14.2,0.7-16.8,7.3l-19,48.3c-1.2,3-4.6,4.5-7.6,3.3l-4.4-1.7
		c-3-1.2-4.5-4.6-3.3-7.6l19-48.3c2.6-6.7-0.7-14.2-7.3-16.8c-3-1.2-4.5-4.6-3.3-7.6c2.1-5.5,8.3-8.1,13.8-6l30.8,12.1
		c5.5,2.1,8.1,8.3,6,13.8C93,95.1,89.6,96.6,86.6,95.4z"/>
	<path class="st2" d="M72.6,169.8c-1.5,3.9-5.4,6.3-9.4,6l-0.2,0.4c-4.8,12.1-18.5,18.1-30.6,13.4l-9.7-3.8
		C10.6,181,4.6,167.3,9.4,155.2l0.2-0.4c-3.1-2.5-4.4-6.9-2.9-10.8c1.9-4.9,7.4-7.2,12.2-5.3l48.3,19
		C72.1,159.5,74.5,165,72.6,169.8z"/>
</g>
</svg>
