<?xml version="1.0" encoding="utf-8"?>
<!-- Generator: Adobe Illustrator 22.0.0, SVG Export Plug-In . SVG Version: 6.00 Build 0)  -->
<svg version="1.1" xmlns="http://www.w3.org/2000/svg" xmlns:xlink="http://www.w3.org/1999/xlink" x="0px" y="0px"
	 viewBox="0 0 828.9 1070.9" style="enable-background:new 0 0 828.9 1070.9;" xml:space="preserve">
<style type="text/css">
	.st0{fill:#4DAC26;}
	.st1{fill:none;stroke:#4DAC26;stroke-width:4;stroke-miterlimit:10;}
	.st2{font-family:'PaperDaisy';}
	.st3{font-size:198.5px;}
	.st4{font-size:77.7798px;}
	.st5{letter-spacing:-1;}
	.st6{fill:#292A52;}
	.st7{fill:#FDFEE2;}
	.st8{fill:#986431;}
	.st9{fill:#2B392E;}
	.st10{fill:#609D1E;}
	.st11{fill:#2A3A2D;}
	.st12{fill:#0E0B0C;}
	.st13{font-size:152.0554px;}
	.st14{font-size:80.3726px;}
	.st15{font-size:119.5475px;}
	.st16{fill:#FFFFFF;}
	.st17{font-size:152.4846px;}
	.st18{fill:none;stroke:#FFFFFF;stroke-width:2;stroke-miterlimit:10;}
	.st19{fill:none;stroke:#4DAC26;stroke-width:3;stroke-miterlimit:10;}
	.st20{fill:#E4DCD7;}
	.st21{fill:none;stroke:#4DAC26;stroke-width:0.5;stroke-miterlimit:10;}
	.st22{fill:none;stroke:#4DAC26;stroke-width:2;stroke-miterlimit:10;}
	.st23{fill:none;stroke:#4DAC26;stroke-width:0.7;stroke-miterlimit:10;}
	.st24{fill:none;stroke:#FFFFFF;stroke-width:3;stroke-miterlimit:10;}
	.st25{stroke:#070606;stroke-width:2;stroke-miterlimit:10;}
	.st26{font-size:95.7537px;}
	.st27{fill:#938B84;stroke:#FFFFFF;stroke-miterlimit:10;}
</style>
<g id="Layer_1">
	<circle id="XMLID_4286_" class="st0" cx="178.3" cy="712.6" r="110.7"/>
	<circle id="XMLID_3899_" class="st1" cx="215.8" cy="172.6" r="110.7"/>
	<text id="XMLID_3894_" transform="matrix(1 0 0 1 150.3996 183.2332)" class="st2 st3">eco</text>
	<text id="XMLID_3891_" transform="matrix(1 0 0 1 146.4589 223.2197)" class="st2 st4 st5">culinarius</text>
	<text id="XMLID_3968_" transform="matrix(1 0 0 1 559.1709 193.621)" class="st12 st2 st13">eco</text>
	<text id="XMLID_4287_" transform="matrix(1 0 0 1 505.3203 236.2784)" class="st12 st2 st14">culinarius</text>
	<text id="XMLID_3857_" transform="matrix(1 0 0 1 673.3152 476.628)" class="st12 st2 st15">eco</text>
	<text id="XMLID_3854_" transform="matrix(1 0 0 1 597.4648 516.5393)" class="st12 st2 st14">culinarius</text>
	<text id="XMLID_3858_" transform="matrix(1 0 0 1 160.2098 724.1551)" class="st16 st2 st17">eco</text>
	<text id="XMLID_3888_" transform="matrix(1 0 0 1 121.6034 771.2596)" class="st16 st2 st4 st5">culinarius</text>
	<g id="XMLID_4300_">
		<path id="XMLID_3897_" class="st18" d="M141,666c0,0-0.5,3,2,4.5c2.6,1.6,6.3,4.2,6.3,13.1s0,38.5,0,38.5s0,7.1-7.9,8.3
			c-7.9,1.2-16.7,1.2-16.7,1.2h-3c0,0-8.8,0.1-16.7-1.2s-7.9-8.3-7.9-8.3s0-29.6,0-38.5s3.7-11.5,6.3-13.1s2-4.5,2-4.5H141z"/>
		<g id="XMLID_4301_">
			<path id="XMLID_3896_" class="st18" d="M138.8,666h-30.9c-1.8,0-3.2-1.5-3.2-3.2v0c0-2.9,2.4-5.4,5.4-5.4h26.7
				c2.9,0,5.4,2.4,5.4,5.4l0,0C142,664.5,140.6,666,138.8,666z"/>
			<line id="XMLID_3895_" class="st18" x1="105" y1="663.6" x2="139.2" y2="663.6"/>
		</g>
	</g>
	<circle id="XMLID_4314_" class="st0" cx="318.4" cy="453.1" r="110.7"/>
	<text id="XMLID_4341_" transform="matrix(1 0 0 1 415.8174 738.8822)" class="st2 st3">eco</text>
	<text id="XMLID_4340_" transform="matrix(1 0 0 1 411.8767 778.8687)" class="st2 st4 st5">culinarius</text>
</g>
<g id="Layer_2">
	<g id="XMLID_391_">
		<g id="XMLID_3907_">
			<g id="XMLID_3908_">
				<path id="XMLID_3912_" class="st19" d="M570.9,240.5c0,1.4,0,2.8,0,4.1c0,0.1,0,0.2,0,0.3c0,0.4,1.2,0.1,1.2-0.3
					c0-1.4,0-2.7,0-4.1"/>
				<path id="XMLID_3909_" class="st19" d="M561.6,141.6c-1.5-1.5-2.9-3-3.9-5c-0.4-0.8-0.8-1.7-1-2.6c-0.1-0.3-0.7-0.1-0.8-0.1
					c-7.8,3.2-16.9,4.5-25.3,4.2c-8.7-0.3-17.4-0.9-25.5-4.3c-0.3-0.1-1,0-1.1,0.4c-1.7,6.1-7.5,9.1-10.6,14.3
					c-3.4,5.6-4.2,12.6-4.6,19c-0.6,8.9-0.2,17.8-0.2,26.7c0,16.8,0,33.5,0,50.3c0,4.5,1.2,9.3,3.8,13.3c2.9,4.6,7.4,7.8,12.2,10.1
					c3.3,1.5,6.8,2.5,10.3,3.2c1.2,0.2,14.5,2,14.5,1.3c0,0.1,0.3,0.2,0.4,0.2c0.3,0,0.6,0,0.8,0c0.3,0,0.8-0.1,0.8-0.5c0,0,0,0,0,0
					c-0.3,0.2-0.6,0.3-0.8,0.5c12.9-0.2,28.2-2.4,36.8-13.5c3-3.9,5.2-9.4,4.8-14.5c0-0.4-1.2-0.1-1.2,0.3c0.4,4.4-1.4,9.1-3.7,12.7
					c-7.6,11.9-23.6,14.1-36.3,14.3c-0.3,0-0.8,0.1-0.8,0.5c0,0,0,0,0,0c0.3-0.2,0.6-0.3,0.8-0.5c-0.3-0.1-0.4-0.1-0.5,0.2
					c0-0.1-0.3-0.2-0.4-0.2c-15.5-0.2-36.9-4.5-40.2-23.3c-0.3-2-0.3-4-0.3-6c0-7.7,0-15.5,0-23.2c0-13.4,0-26.8,0-40.2
					c0-8.2,0-16.5,2.2-24.4c1.3-4.6,3.6-8.4,7.2-11.5c2.7-2.4,5.1-5.5,6.1-9c-0.4,0.1-0.7,0.2-1.1,0.4c8,3.3,17.4,4.7,26,4.4
					c8.9-0.3,17.8-1,26.2-4.4c-0.3,0-0.6,0-0.8-0.1c0.9,3.3,3,5.7,5.3,7.9"/>
			</g>
		</g>
		<g id="XMLID_394_">
			<path id="XMLID_3906_" class="st20" d="M504.8,136.7c0,0-5.7-1.8-5.8-2.8c-0.1-1-0.9-4.6-0.5-5.7c0.4-1.2-0.8-4.1-0.1-5.3
				c0.7-1.2-0.2-4.2,2.2-5.9c2.4-1.7,18.7-4,33.4-3.6c14.7,0.3,26.3,2.9,27,6.3c0.7,3.4,2,3.2,1,5.3c-1,2.1,0.6,3,0.2,4.3
				c-0.4,1.3,0.4,3.7-0.2,4.9c-0.7,1.3-14.2,5.4-28.2,6.3C519.7,141.5,504.8,136.7,504.8,136.7z"/>
			<g id="XMLID_395_">
				<g id="XMLID_3904_">
					<path id="XMLID_3905_" class="st21" d="M562.2,127.9c0-0.8,0-1.6,0-2.4c0-0.8,0.6-1,0.9-1.8c0.3-0.7-0.9-0.9-0.9-1.6
						c0-0.9,0-1.8,0-2.7c0-0.3-1,0-1.1,0.1c-1.4,0.8-4.2,1.4-6.1,1.7c-8.1,1.6-16.7,1.9-25,1.8c-7.8,0-15.7-0.4-23.4-1.9
						c-2-0.4-4.3-0.8-6-1.8c-0.3-0.1-1.2,0-1.2,0.3c0,1,0.4,2.9-0.4,3.4c-1.3,0.8,0.4,1.6,0.4,2.4c0,0.8,0,1.6,0,2.4
						c0,0.2-0.7,0.6-0.8,0.9c-0.3,0.4,0.5,1.1,0.8,1.4c0.4,0.3,0.1,1.9,0.1,2.3c0,0.6,0,1.2,0,1.8c0,0.4,2.3,1.3,2.7,1.5
						c2.2,1.1,4.7,1.8,7.1,2.4c5.2,1.3,10.6,1.9,16,2.2c8,0.5,16.1-0.1,23.9-1.6c2.6-0.5,5.1-1.2,7.6-2.1c1.7-0.6,4.1-1.4,5.4-2.6
						c0.5-0.5,0.1-3,0.1-3.7c0-1.2,1.7-1.8-0.1-2.6c-0.3-0.1-1.4,0.3-1,0.5c1.7,0.8-0.1,1.3-0.1,2.2c0,1.1,0,2.2,0,3.3
						c0,1.1-2.5,1.8-3.6,2.3c-2.2,0.9-4.6,1.6-7,2.1c-6.4,1.5-12.9,1.8-19.4,2c-6.5,0.2-13.2-0.6-19.5-2c-1.8-0.4-3.6-0.9-5.4-1.5
						c-0.8-0.3-5.6-1.8-5.6-2.7c0-1,0-2.1,0-3.1c0-0.3,0-0.6,0-0.9c0-0.6-1.9-1-0.2-1.7c0.1,0,0.2-0.1,0.2-0.2c0-0.8,0-1.6,0-2.4
						c0-0.8-1.3-2-0.2-2.5c0.1,0,0.2-0.1,0.2-0.2c0-1.1,0-2.2,0-3.3c-0.4,0.1-0.8,0.2-1.2,0.3c1.9,1.1,4.4,1.5,6.6,1.9
						c8.3,1.7,17.1,1.9,25.6,1.9c8,0,16.1-0.4,23.9-2c2.1-0.4,4.6-0.9,6.5-2c-0.4,0-0.7,0.1-1.1,0.1c0,1.1,0,2.2,0,3.3
						c0,0,0.1,0.1,0.1,0.1c1.7,0.8-0.1,1.5-0.1,2.3c0,0.9,0,1.8,0,2.8C560.9,128.4,562.2,128.3,562.2,127.9z"/>
				</g>
				<g id="XMLID_3898_">
					<path id="XMLID_3903_" class="st21" d="M500.6,119.4c-0.5-1.3,1.8-2.4,2.8-2.8c3.1-1.3,6.7-1.7,10-2.1
						c6.4-0.7,12.8-0.7,19.2-0.7c8.1,0.1,17.4,0.1,25,3.1c1.1,0.4,3.5,1.4,3.4,2.8c0,0.2,1.2,0,1.2-0.3c0.1-1.6-3.1-2.7-4.3-3.2
						c-3.3-1.2-6.9-1.7-10.5-2.1c-6.7-0.8-13.5-0.8-20.3-0.8c-7.9,0.1-17.3,0-24.7,3.2c-1.1,0.5-3.5,1.7-3,3.1
						C499.5,119.9,500.7,119.6,500.6,119.4L500.6,119.4z"/>
				</g>
				<g id="XMLID_3855_">
					<g id="XMLID_3867_">
						<path id="XMLID_3868_" class="st21" d="M499.8,123.1c6.1,1.7,12.6,2.5,18.9,3.1c14.4,1.3,29,0.4,42.9-3.1
							c0.5-0.1,0.3-0.6-0.1-0.5c-13.8,3.5-28.2,4.4-42.5,3.1c-6.3-0.6-12.7-1.4-18.8-3.1C499.9,122.5,499.3,123,499.8,123.1
							L499.8,123.1z"/>
					</g>
					<g id="XMLID_3856_">
						<path id="XMLID_3866_" class="st21" d="M499.7,125c6.3,1.8,13.1,2.7,19.7,3.3c14.1,1.3,28.6,0.4,42.2-3.1
							c0.5-0.1,0.4-0.4-0.1-0.3c-14,3.6-28.7,4.3-43.2,2.9c-6-0.6-12.2-1.5-18-3.1C500.1,124.6,499.4,124.9,499.7,125L499.7,125z"/>
					</g>
				</g>
				<g id="XMLID_396_">
					<g id="XMLID_3851_">
						<path id="XMLID_3853_" class="st21" d="M499.8,128.3c6.1,1.7,12.6,2.5,18.9,3.1c14.4,1.3,29,0.3,42.9-3.2
							c0.5-0.1,0.4-0.5-0.1-0.4c-13.8,3.5-28.2,4.4-42.5,3.2c-6.3-0.5-12.7-1.4-18.7-3C500,127.8,499.4,128.2,499.8,128.3
							L499.8,128.3z"/>
					</g>
					<g id="XMLID_397_">
						<path id="XMLID_398_" class="st21" d="M499.8,130.3c6.1,1.7,12.6,2.6,19,3.1c14.4,1.3,28.9,0.4,42.9-3.2
							c0.5-0.1,0.4-0.5-0.1-0.3c-14,3.6-28.7,4.4-43.1,3c-6-0.6-12.3-1.4-18-3C500.2,129.8,499.4,130.2,499.8,130.3L499.8,130.3z"/>
					</g>
				</g>
			</g>
		</g>
	</g>
	<g id="XMLID_3946_">
		<g id="XMLID_3947_">
			<path id="XMLID_3949_" class="st22" d="M670.1,529.2c0,0.1,0,0.2,0,0.3"/>
			<path id="XMLID_3948_" class="st22" d="M671.4,477.5c0-9.4,0.1-18.7,0-28.1c-0.1-8-0.7-16.3-3.6-23.9c-1.1-2.8-2.6-5.3-4.5-7.5
				c-2.8-3.1-5.9-5.4-8-9.2c-0.5-0.9-0.9-1.9-1.1-2.9c-0.1-0.3-0.7-0.2-0.9-0.1c-8.7,3.6-18.8,5-28.2,4.7c-9.7-0.3-19.4-1-28.5-4.8
				c-0.3-0.1-1.1,0-1.2,0.4c-1.9,6.8-8.4,10.1-11.8,15.9c-3.7,6.2-4.7,14.1-5.2,21.2c-0.7,9.9-0.2,19.9-0.2,29.8c0,18.7,0,37.3,0,56
				c0,5,1.3,10.3,4.2,14.8c3.3,5.1,8.3,8.7,13.6,11.2c3.7,1.7,7.6,2.8,11.5,3.6c1.3,0.3,16.2,2.3,16.2,1.4c0,0.2,0.3,0.2,0.4,0.2
				c0.3,0,0.6,0,0.9,0c0.3,0,0.9-0.2,0.9-0.6c0,0,0,0,0,0c-0.3,0.2-0.6,0.4-0.9,0.6c14.4-0.2,31.4-2.7,41-15
				c3.2-4.2,5.7-10.1,5.4-15.5c0-0.2,0-0.4,0-0.6c0-0.4-1.4-0.1-1.3,0.4c0.4,4.9-1.6,10.2-4.1,14.1c-8.5,13.3-26.3,15.7-40.4,15.9
				c-0.3,0-0.9,0.1-0.9,0.6c0,0,0,0,0,0c0.3-0.2,0.6-0.4,0.9-0.6c-0.3-0.2-0.5-0.1-0.5,0.2c0-0.2-0.3-0.2-0.4-0.2
				c-17.3-0.2-41.2-5.1-44.8-26c-0.4-2.2-0.3-4.5-0.3-6.7c0-8.6,0-17.3,0-25.9c0-14.9,0-29.9,0-44.8c0-9.1,0-18.4,2.5-27.3
				c1.5-5.2,4.1-9.4,8-12.9c3-2.7,5.7-6.1,6.8-10.1c-0.4,0.1-0.8,0.3-1.2,0.4c8.9,3.7,19.4,5.2,29,4.9c9.9-0.3,19.9-1.1,29.2-5
				c-0.3,0-0.6-0.1-0.9-0.1c1.8,6.4,7.5,9.6,11.1,14.7c4.4,6.3,5.4,14.9,5.9,22.4c0.7,10.1-0.1,23.7-0.1,33.7"/>
		</g>
	</g>
	<g id="XMLID_3893_">
		<path id="XMLID_3945_" class="st20" d="M596.4,409c0,0-6.3-2-6.4-3.1c-0.1-1.1-1-5.1-0.5-6.4c0.4-1.3-0.9-4.6-0.1-5.9
			c0.8-1.3-0.3-4.7,2.4-6.6c2.7-1.9,20.9-4.4,37.3-4c16.4,0.4,29.3,3.2,30.1,7c0.8,3.8,2.2,3.6,1.1,6c-1.1,2.4,0.7,3.4,0.3,4.8
			c-0.4,1.5,0.5,4.1-0.3,5.5c-0.8,1.4-15.8,6-31.4,7C613.1,414.3,596.4,409,596.4,409z"/>
		<g id="XMLID_3900_">
			<g id="XMLID_3943_">
				<path id="XMLID_3944_" class="st23" d="M660.4,399.2c0-0.9,0-1.8,0-2.7c0-0.9,0.7-1.2,1-2c0.3-0.8-1-1-1-1.8c0-1,0-2,0-3
					c0-0.3-1.1,0-1.2,0.1c-1.6,0.9-4.7,1.5-6.8,1.9c-9.1,1.8-18.6,2.1-27.9,2c-8.7,0-17.6-0.5-26.1-2.2c-2.2-0.4-4.8-0.9-6.7-2
					c-0.3-0.2-1.3,0-1.3,0.4c0,1.2,0.5,3.2-0.5,3.8c-1.4,0.9,0.5,1.7,0.5,2.6c0,0.9,0,1.8,0,2.7c0,0.2-0.7,0.7-0.9,1
					c-0.3,0.5,0.6,1.3,0.9,1.5c0.4,0.4,0.1,2.1,0.1,2.6c0,0.7,0,1.4,0,2c0,0.4,2.6,1.5,3,1.7c2.5,1.2,5.2,2,7.9,2.7
					c5.8,1.5,11.9,2.2,17.8,2.5c8.9,0.5,18-0.1,26.7-1.8c2.9-0.6,5.7-1.3,8.5-2.3c1.9-0.7,4.6-1.6,6-2.9c0.6-0.6,0.1-3.3,0.1-4.1
					c0-1.3,1.9-2-0.1-2.9c-0.3-0.1-1.6,0.3-1.1,0.5c1.9,0.8-0.1,1.5-0.1,2.4c0,1.2,0,2.4,0,3.7c0,1.3-2.8,2-4,2.6
					c-2.5,1.1-5.1,1.7-7.8,2.3c-7.1,1.6-14.3,2-21.6,2.2c-7.2,0.2-14.7-0.7-21.7-2.2c-2-0.4-4.1-1-6-1.7c-0.9-0.3-6.2-2-6.2-3
					c0-1.2,0-2.3,0-3.5c0-0.3,0-0.7,0-1c0-0.6-2.1-1.1-0.3-1.9c0.1-0.1,0.3-0.1,0.3-0.3c0-0.9,0-1.8,0-2.7c0-0.9-1.5-2.3-0.3-2.8
					c0.1-0.1,0.3-0.1,0.3-0.3c0-1.2,0-2.5,0-3.7c-0.4,0.1-0.9,0.3-1.3,0.4c2.1,1.2,4.9,1.7,7.3,2.2c9.3,1.9,19,2.2,28.5,2.1
					c8.9,0,18-0.5,26.7-2.2c2.4-0.5,5.1-1,7.2-2.2c-0.4,0-0.8,0.1-1.2,0.1c0,1.2,0,2.5,0,3.7c0,0.1,0.1,0.1,0.1,0.1
					c1.9,0.9-0.1,1.7-0.1,2.6c0,1,0,2.1,0,3.1C659,399.8,660.4,399.6,660.4,399.2z"/>
			</g>
			<g id="XMLID_3941_">
				<path id="XMLID_3942_" class="st23" d="M591.8,389.7c-0.5-1.4,2-2.7,3.1-3.1c3.4-1.5,7.4-1.9,11.2-2.3
					c7.1-0.8,14.3-0.8,21.4-0.8c9,0.1,19.4,0.1,27.8,3.4c1.2,0.5,3.9,1.6,3.8,3.1c0,0.2,1.3,0,1.3-0.3c0.1-1.8-3.4-3-4.8-3.5
					c-3.7-1.3-7.7-1.9-11.7-2.3c-7.5-0.8-15.1-0.9-22.6-0.8c-8.8,0.1-19.3,0-27.5,3.5c-1.2,0.5-3.9,1.9-3.4,3.5
					C590.5,390.3,591.8,389.9,591.8,389.7L591.8,389.7z"/>
			</g>
			<g id="XMLID_3936_">
				<g id="XMLID_3939_">
					<path id="XMLID_3940_" class="st23" d="M590.8,393.8c6.8,1.9,14,2.8,21.1,3.5c16,1.5,32.4,0.5,47.8-3.5
						c0.6-0.1,0.4-0.7-0.2-0.6c-15.4,3.9-31.5,4.9-47.4,3.5c-7-0.6-14.2-1.6-20.9-3.5C591,393.2,590.3,393.7,590.8,393.8
						L590.8,393.8z"/>
				</g>
				<g id="XMLID_3937_">
					<path id="XMLID_3938_" class="st23" d="M590.7,395.9c7.1,2,14.6,3,21.9,3.7c15.8,1.5,31.8,0.4,47.1-3.5
						c0.5-0.1,0.4-0.4-0.1-0.3c-15.6,4-32,4.8-48.1,3.2c-6.7-0.7-13.6-1.7-20.1-3.5C591.2,395.5,590.4,395.8,590.7,395.9
						L590.7,395.9z"/>
				</g>
			</g>
			<g id="XMLID_3910_">
				<g id="XMLID_3934_">
					<path id="XMLID_3935_" class="st23" d="M590.9,399.6c6.8,1.9,14,2.8,21.1,3.4c16,1.5,32.3,0.4,47.8-3.6
						c0.5-0.1,0.4-0.6-0.1-0.4c-15.4,3.9-31.4,4.9-47.3,3.5c-7-0.6-14.1-1.5-20.9-3.4C591.1,399.1,590.4,399.5,590.9,399.6
						L590.9,399.6z"/>
				</g>
				<g id="XMLID_3911_">
					<path id="XMLID_3933_" class="st23" d="M590.8,401.8c6.8,1.9,14.1,2.9,21.1,3.5c16,1.4,32.3,0.4,47.8-3.5
						c0.5-0.1,0.4-0.5-0.1-0.4c-15.6,4-31.9,4.9-48.1,3.4c-6.7-0.6-13.7-1.6-20-3.4C591.3,401.3,590.4,401.7,590.8,401.8
						L590.8,401.8z"/>
				</g>
			</g>
		</g>
	</g>
	<text id="XMLID_3865_" transform="matrix(1 0 0 1 320.1703 448.5927)" class="st16 st2 st15">eco</text>
	<text id="XMLID_3864_" transform="matrix(1 0 0 1 244.3198 488.504)" class="st16 st2 st14">culinarius</text>
	<g id="XMLID_3859_">
		<path id="XMLID_3863_" class="st24" d="M317.3,493.8c0,0,0,11.5-12.7,13.5c-12.7,2-26.9,1.9-26.9,1.9h-4.8c0,0-14.2,0.1-26.9-1.9
			c-12.7-2-12.7-13.5-12.7-13.5s0-47.8,0-62.2c0-14.3,6-18.6,10.2-21.1c4.2-2.5,3.3-7.3,3.3-7.3h57.2c0,0-0.9,4.8,3.3,7.3
			c4.2,2.5,10.2,6.8,10.2,21.1c0,4.7,0,12.9,0,21.8"/>
		<g id="XMLID_3860_">
			<path id="XMLID_3862_" class="st24" d="M301.9,403.2h-53.2c-2,0-3.6-1.6-3.6-3.6v-4.3c0-3.3,2.7-6,6-6h48.4c3.3,0,6,2.7,6,6v4.3
				C305.5,401.5,303.9,403.2,301.9,403.2z"/>
			<line id="XMLID_3861_" class="st24" x1="245.7" y1="399.4" x2="301" y2="399.4"/>
		</g>
	</g>
	<g>
		<text id="XMLID_3852_" transform="matrix(1 0 0 1 496.3859 996.6851)" class="st25 st2 st26">eco</text>
		<text id="XMLID_4316_" transform="matrix(1 0 0 1 564.3776 997.2738)" class="st2 st26">culinarius</text>
		<g id="XMLID_4322_">
			<path id="XMLID_4326_" class="st22" d="M490.3,996.9c0-44.2,19.3-57.4,32.6-65.1c13.3-7.8,10.5-22.5,10.5-22.5h182.9
				c0,0-2.8,14.7,10.5,22.5c13.3,7.8,32.6,20.9,32.6,65.1"/>
			<g id="XMLID_4323_">
				<path id="XMLID_4325_" class="st22" d="M715.8,909.2H533.7c-3.1,0-5.6-2.5-5.6-5.6v-28.1c0-5.1,4.1-9.2,9.2-9.2h174.8
					c5.1,0,9.2,4.1,9.2,9.2v28.1C721.4,906.7,718.9,909.2,715.8,909.2z"/>
				<line id="XMLID_4324_" class="st22" x1="530.2" y1="897.6" x2="707.1" y2="897.6"/>
			</g>
		</g>
	</g>
	<text id="XMLID_4327_" transform="matrix(1 0 0 1 74.9411 967.9698)" class="st25 st2 st26">eco</text>
	<text id="XMLID_4321_" transform="matrix(1 0 0 1 142.9328 968.5586)" class="st2 st26">culinarius</text>
	<ellipse id="XMLID_4292_" class="st27" cx="483.2" cy="802" rx="33.5" ry="3"/>
	<g id="XMLID_3882_">
		<path id="XMLID_4291_" class="st20" d="M454.4,651.3c0,0-6.3-2-6.4-3.1c-0.1-1.1-1-5.1-0.5-6.4c0.4-1.3-0.9-4.6-0.1-5.9
			c0.8-1.3-0.3-4.7,2.4-6.6c2.7-1.9,20.9-4.4,37.3-4c16.4,0.4,29.3,3.2,30.1,7c0.8,3.8,2.2,3.6,1.1,6c-1.1,2.4,0.7,3.4,0.3,4.8
			c-0.4,1.5,0.5,4.1-0.3,5.5c-0.8,1.4-15.8,6-31.4,7C471.1,656.6,454.4,651.3,454.4,651.3z"/>
		<g id="XMLID_3883_">
			<g id="XMLID_4289_">
				<path id="XMLID_4290_" class="st23" d="M518.4,641.5c0-0.9,0-1.8,0-2.7c0-0.9,0.7-1.2,1-2c0.3-0.8-1-1-1-1.8c0-1,0-2,0-3
					c0-0.3-1.1,0-1.2,0.1c-1.6,0.9-4.7,1.5-6.8,1.9c-9.1,1.8-18.6,2.1-27.9,2c-8.7,0-17.6-0.5-26.1-2.2c-2.2-0.4-4.8-0.9-6.7-2
					c-0.3-0.2-1.3,0-1.3,0.4c0,1.2,0.5,3.2-0.5,3.8c-1.4,0.9,0.5,1.7,0.5,2.6c0,0.9,0,1.8,0,2.7c0,0.2-0.7,0.7-0.9,1
					c-0.3,0.5,0.6,1.3,0.9,1.5c0.4,0.4,0.1,2.1,0.1,2.6c0,0.7,0,1.4,0,2c0,0.4,2.6,1.5,3,1.7c2.5,1.2,5.2,2,7.9,2.7
					c5.8,1.5,11.9,2.2,17.8,2.5c8.9,0.5,18-0.1,26.7-1.8c2.9-0.6,5.7-1.3,8.5-2.3c1.9-0.7,4.6-1.6,6-2.9c0.6-0.6,0.1-3.3,0.1-4.1
					c0-1.3,1.9-2-0.1-2.9c-0.3-0.1-1.6,0.3-1.1,0.5c1.9,0.8-0.1,1.5-0.1,2.4c0,1.2,0,2.4,0,3.7c0,1.3-2.8,2-4,2.6
					c-2.5,1.1-5.1,1.7-7.8,2.3c-7.1,1.6-14.3,2-21.6,2.2c-7.2,0.2-14.7-0.7-21.7-2.2c-2-0.4-4.1-1-6-1.7c-0.9-0.3-6.2-2-6.2-3
					c0-1.2,0-2.3,0-3.5c0-0.3,0-0.7,0-1c0-0.6-2.1-1.1-0.3-1.9c0.1-0.1,0.3-0.1,0.3-0.3c0-0.9,0-1.8,0-2.7c0-0.9-1.5-2.3-0.3-2.8
					c0.1-0.1,0.3-0.1,0.3-0.3c0-1.2,0-2.5,0-3.7c-0.4,0.1-0.9,0.3-1.3,0.4c2.1,1.2,4.9,1.7,7.3,2.2c9.3,1.9,19,2.2,28.5,2.1
					c8.9,0,18-0.5,26.7-2.2c2.4-0.5,5.1-1,7.2-2.2c-0.4,0-0.8,0.1-1.2,0.1c0,1.2,0,2.5,0,3.7c0,0.1,0.1,0.1,0.1,0.1
					c1.9,0.9-0.1,1.7-0.1,2.6c0,1,0,2.1,0,3.1C517,642.1,518.4,641.9,518.4,641.5z"/>
			</g>
			<g id="XMLID_3952_">
				<path id="XMLID_4288_" class="st23" d="M449.7,632c-0.5-1.4,2-2.7,3.1-3.1c3.4-1.5,7.4-1.9,11.2-2.3c7.1-0.8,14.3-0.8,21.4-0.8
					c9,0.1,19.4,0.1,27.8,3.4c1.2,0.5,3.9,1.6,3.8,3.1c0,0.2,1.3,0,1.3-0.3c0.1-1.8-3.4-3-4.8-3.5c-3.7-1.3-7.7-1.9-11.7-2.3
					c-7.5-0.8-15.1-0.9-22.6-0.8c-8.8,0.1-19.3,0-27.5,3.5c-1.2,0.5-3.9,1.9-3.4,3.5C448.5,632.6,449.8,632.3,449.7,632L449.7,632z"
					/>
			</g>
			<g id="XMLID_3928_">
				<g id="XMLID_3950_">
					<path id="XMLID_3951_" class="st23" d="M448.8,636.2c6.8,1.9,14,2.8,21.1,3.5c16,1.5,32.4,0.5,47.8-3.5
						c0.6-0.1,0.4-0.7-0.2-0.6c-15.4,3.9-31.5,4.9-47.4,3.5c-7-0.6-14.2-1.6-20.9-3.5C448.9,635.5,448.3,636,448.8,636.2
						L448.8,636.2z"/>
				</g>
				<g id="XMLID_3929_">
					<path id="XMLID_3930_" class="st23" d="M448.7,638.3c7.1,2,14.6,3,21.9,3.7c15.8,1.5,31.8,0.4,47.1-3.5
						c0.5-0.1,0.4-0.4-0.1-0.3c-15.6,4-32,4.8-48.1,3.2c-6.7-0.7-13.6-1.7-20.1-3.5C449.2,637.9,448.4,638.2,448.7,638.3
						L448.7,638.3z"/>
				</g>
			</g>
			<g id="XMLID_3886_">
				<g id="XMLID_3920_">
					<path id="XMLID_3927_" class="st23" d="M448.9,641.9c6.8,1.9,14,2.8,21.1,3.4c16,1.5,32.3,0.4,47.8-3.6
						c0.5-0.1,0.4-0.6-0.1-0.4c-15.4,3.9-31.4,4.9-47.3,3.5c-7-0.6-14.1-1.5-20.9-3.4C449.1,641.4,448.4,641.8,448.9,641.9
						L448.9,641.9z"/>
				</g>
				<g id="XMLID_3887_">
					<path id="XMLID_3919_" class="st23" d="M448.8,644.1c6.8,1.9,14.1,2.9,21.1,3.5c16,1.4,32.3,0.4,47.8-3.5
						c0.5-0.1,0.4-0.5-0.1-0.4c-15.6,4-31.9,4.9-48.1,3.4c-6.7-0.6-13.7-1.6-20-3.4C449.2,643.7,448.4,644,448.8,644.1L448.8,644.1z
						"/>
				</g>
			</g>
		</g>
	</g>
</g>
</svg>
